<?xml version="1.0" encoding="UTF-8" standalone="no"?>
<svg
   xmlns:dc="http://purl.org/dc/elements/1.1/"
   xmlns:cc="http://creativecommons.org/ns#"
   xmlns:rdf="http://www.w3.org/1999/02/22-rdf-syntax-ns#"
   xmlns:svg="http://www.w3.org/2000/svg"
   xmlns="http://www.w3.org/2000/svg"
   xmlns:xlink="http://www.w3.org/1999/xlink"
   xmlns:sodipodi="http://sodipodi.sourceforge.net/DTD/sodipodi-0.dtd"
   xmlns:inkscape="http://www.inkscape.org/namespaces/inkscape"
   width="128"
   height="128"
   viewBox="0 0 33.866665 33.866667"
   version="1.1"
   id="svg8"
   inkscape:version="1.0.2-2 (e86c870879, 2021-01-15)"
   sodipodi:docname="oO-hands-tex.svg"
   inkscape:export-filename="oO-hands-tex.png"
   inkscape:export-xdpi="96"
   inkscape:export-ydpi="96">
  <defs
     id="defs2">
    <linearGradient
       inkscape:collect="always"
       id="linearGradient939">
      <stop
         style="stop-color:#fffce6;stop-opacity:1"
         offset="0"
         id="stop935" />
      <stop
         style="stop-color:#ebde7a;stop-opacity:1"
         offset="1"
         id="stop937" />
    </linearGradient>
    <radialGradient
       inkscape:collect="always"
       xlink:href="#linearGradient939"
       id="radialGradient941"
       cx="7.3929887"
       cy="31.653919"
       fx="7.3929887"
       fy="31.653919"
       r="8.9769554"
       gradientUnits="userSpaceOnUse"
       gradientTransform="matrix(-0.3591009,1.5225577,-1.506943,-0.35541802,64.163073,23.629098)" />
    <filter
       inkscape:collect="always"
       style="color-interpolation-filters:sRGB"
       id="filter975"
       x="-4.3199994e-05"
       width="1.0000864"
       y="-4.3199994e-05"
       height="1.0000864">
      <feGaussianBlur
         inkscape:collect="always"
         stdDeviation="0.0003231696"
         id="feGaussianBlur977" />
    </filter>
    <filter
       inkscape:collect="always"
       style="color-interpolation-filters:sRGB"
       id="filter1027"
       x="-0.0019935366"
       width="1.0039871"
       y="-0.003014661"
       height="1.0060293">
      <feGaussianBlur
         inkscape:collect="always"
         stdDeviation="0.027251163"
         id="feGaussianBlur1029" />
    </filter>
  </defs>
  <sodipodi:namedview
     id="base"
     pagecolor="#ffffff"
     bordercolor="#666666"
     borderopacity="1.0"
     inkscape:pageopacity="0.0"
     inkscape:pageshadow="2"
     inkscape:zoom="3.959798"
     inkscape:cx="71.711158"
     inkscape:cy="88.316812"
     inkscape:document-units="px"
     inkscape:current-layer="layer1"
     inkscape:document-rotation="0"
     showgrid="false"
     inkscape:window-width="1334"
     inkscape:window-height="967"
     inkscape:window-x="1335"
     inkscape:window-y="-2"
     inkscape:window-maximized="0"
     units="px" />
  <metadata
     id="metadata5">
    <rdf:RDF>
      <cc:Work
         rdf:about="">
        <dc:format>image/svg+xml</dc:format>
        <dc:type
           rdf:resource="http://purl.org/dc/dcmitype/StillImage" />
        <dc:title></dc:title>
        <cc:license
           rdf:resource="http://creativecommons.org/licenses/by/4.0/" />
        <dc:rights>
          <cc:Agent>
            <dc:title>Copyright (c) 2021 oO (https://github.com/oocytanb)</dc:title>
          </cc:Agent>
        </dc:rights>
      </cc:Work>
      <cc:License
         rdf:about="http://creativecommons.org/licenses/by/4.0/">
        <cc:permits
           rdf:resource="http://creativecommons.org/ns#Reproduction" />
        <cc:permits
           rdf:resource="http://creativecommons.org/ns#Distribution" />
        <cc:requires
           rdf:resource="http://creativecommons.org/ns#Notice" />
        <cc:requires
           rdf:resource="http://creativecommons.org/ns#Attribution" />
        <cc:permits
           rdf:resource="http://creativecommons.org/ns#DerivativeWorks" />
      </cc:License>
    </rdf:RDF>
  </metadata>
  <g
     inkscape:label="レイヤー 1"
     inkscape:groupmode="layer"
     id="layer1"
     style="opacity:0.999;filter:url(#filter1027)">
    <g
       id="color_palette">
      <rect
         style="opacity:0.999;fill:#00a95f;fill-opacity:1;stroke:none;stroke-width:0.183308;stroke-linecap:round;stroke-linejoin:miter;stroke-miterlimit:4;stroke-dasharray:none;stroke-opacity:1;paint-order:stroke fill markers"
         id="color_0"
         width="3.175"
         height="3.175"
         x="0"
         y="-2.7755576e-17" />
      <rect
         style="opacity:0.999;fill:#00a95f;fill-opacity:1;stroke:none;stroke-width:0.183308;stroke-linecap:round;stroke-linejoin:miter;stroke-miterlimit:4;stroke-dasharray:none;stroke-opacity:1;paint-order:stroke fill markers"
         id="color_1"
         width="3.175"
         height="3.175"
         x="3.175"
         y="-2.7755576e-17" />
      <rect
         style="opacity:0.999;fill:#00a95f;fill-opacity:1;stroke:none;stroke-width:0.183308;stroke-linecap:round;stroke-linejoin:miter;stroke-miterlimit:4;stroke-dasharray:none;stroke-opacity:1;paint-order:stroke fill markers"
         id="color_2"
         width="3.175"
         height="3.175"
         x="6.3499999"
         y="-2.7755576e-17" />
      <rect
         style="opacity:0.999;fill:#00a95f;fill-opacity:1;stroke:none;stroke-width:0.183308;stroke-linecap:round;stroke-linejoin:miter;stroke-miterlimit:4;stroke-dasharray:none;stroke-opacity:1;paint-order:stroke fill markers"
         id="color_3"
         width="3.175"
         height="3.175"
         x="9.5249996"
         y="-2.7755576e-17" />
      <rect
         style="opacity:0.999;fill:#ed334e;fill-opacity:1;stroke:none;stroke-width:0.183308;stroke-linecap:round;stroke-linejoin:miter;stroke-miterlimit:4;stroke-dasharray:none;stroke-opacity:1;paint-order:stroke fill markers"
         id="color_4"
         width="3.175"
         height="3.175"
         x="12.7"
         y="-2.7755576e-17" />
      <rect
         style="opacity:0.999;fill:#e6b422;fill-opacity:1;stroke:none;stroke-width:0.183308;stroke-linecap:round;stroke-linejoin:miter;stroke-miterlimit:4;stroke-dasharray:none;stroke-opacity:1;paint-order:stroke fill markers"
         id="color_5"
         width="3.175"
         height="3.175"
         x="15.875"
         y="-2.7755576e-17" />
      <rect
         style="opacity:0.999;fill:#0095d9;fill-opacity:1;stroke:none;stroke-width:0.183308;stroke-linecap:round;stroke-linejoin:miter;stroke-miterlimit:4;stroke-dasharray:none;stroke-opacity:1;paint-order:stroke fill markers"
         id="color_6"
         width="3.175"
         height="3.175"
         x="19.049999"
         y="-2.7755576e-17" />
      <rect
         style="opacity:0.999;fill:#e7e7e7;fill-opacity:1;stroke:none;stroke-width:0.183308;stroke-linecap:round;stroke-linejoin:miter;stroke-miterlimit:4;stroke-dasharray:none;stroke-opacity:1;paint-order:stroke fill markers"
         id="color_7"
         width="3.175"
         height="3.175"
         x="22.224998"
         y="0" />
      <rect
         style="opacity:0.999;fill:#181818;fill-opacity:1;stroke:none;stroke-width:0.183308;stroke-linecap:round;stroke-linejoin:miter;stroke-miterlimit:4;stroke-dasharray:none;stroke-opacity:1;paint-order:stroke fill markers"
         id="color_8"
         width="3.175"
         height="3.175"
         x="25.399998"
         y="0" />
      <rect
         style="opacity:0.999;fill:#7d7d7d;fill-opacity:1;stroke:none;stroke-width:0.183308;stroke-linecap:round;stroke-linejoin:miter;stroke-miterlimit:4;stroke-dasharray:none;stroke-opacity:1;paint-order:stroke fill markers"
         id="color_9"
         width="3.175"
         height="3.175"
         x="28.574997"
         y="0" />
      <rect
         style="opacity:0.999;fill:#e6b422;fill-opacity:1;stroke:none;stroke-width:0.183308;stroke-linecap:round;stroke-linejoin:miter;stroke-miterlimit:4;stroke-dasharray:none;stroke-opacity:1;paint-order:stroke fill markers"
         id="color_10"
         width="3.175"
         height="3.175"
         x="0"
         y="3.175" />
      <rect
         style="opacity:0.999;fill:#59b9c6;fill-opacity:1;stroke:none;stroke-width:0.183308;stroke-linecap:round;stroke-linejoin:miter;stroke-miterlimit:4;stroke-dasharray:none;stroke-opacity:1;paint-order:stroke fill markers"
         id="color_11"
         width="3.175"
         height="3.175"
         x="3.175"
         y="3.175" />
      <rect
         style="opacity:0.999;fill:#ed334e;fill-opacity:1;stroke:none;stroke-width:0.183308;stroke-linecap:round;stroke-linejoin:miter;stroke-miterlimit:4;stroke-dasharray:none;stroke-opacity:1;paint-order:stroke fill markers"
         id="color_12"
         width="3.175"
         height="3.175"
         x="6.3499994"
         y="3.175" />
      <rect
         style="opacity:0.999;fill:#e4007f;fill-opacity:1;stroke:none;stroke-width:0.183308;stroke-linecap:round;stroke-linejoin:miter;stroke-miterlimit:4;stroke-dasharray:none;stroke-opacity:1;paint-order:stroke fill markers"
         id="color_13"
         width="3.175"
         height="3.175"
         x="9.5249996"
         y="3.175" />
      <rect
         style="opacity:0.999;fill:#e6b422;fill-opacity:1;stroke:none;stroke-width:0.183308;stroke-linecap:round;stroke-linejoin:miter;stroke-miterlimit:4;stroke-dasharray:none;stroke-opacity:1;paint-order:stroke fill markers"
         id="color_14"
         width="3.175"
         height="3.175"
         x="12.7"
         y="3.175" />
      <rect
         style="opacity:0.999;fill:#0095d9;fill-opacity:1;stroke:none;stroke-width:0.183308;stroke-linecap:round;stroke-linejoin:miter;stroke-miterlimit:4;stroke-dasharray:none;stroke-opacity:1;paint-order:stroke fill markers"
         id="color_15"
         width="3.175"
         height="3.175"
         x="15.875"
         y="3.175" />
      <rect
         style="opacity:0.999;fill:#a11213;fill-opacity:1;stroke:none;stroke-width:0.183308;stroke-linecap:round;stroke-linejoin:miter;stroke-miterlimit:4;stroke-dasharray:none;stroke-opacity:1;paint-order:stroke fill markers"
         id="color_16"
         width="3.175"
         height="3.175"
         x="19.049999"
         y="3.175" />
      <rect
         style="opacity:0.999;fill:#65318e;fill-opacity:1;stroke:none;stroke-width:0.183308;stroke-linecap:round;stroke-linejoin:miter;stroke-miterlimit:4;stroke-dasharray:none;stroke-opacity:1;paint-order:stroke fill markers"
         id="color_17"
         width="3.175"
         height="3.175"
         x="22.224998"
         y="3.175" />
      <rect
         style="opacity:0.999;fill:#404040;fill-opacity:1;stroke:none;stroke-width:0.183308;stroke-linecap:round;stroke-linejoin:miter;stroke-miterlimit:4;stroke-dasharray:none;stroke-opacity:1;paint-order:stroke fill markers"
         id="color_18"
         width="3.175"
         height="3.175"
         x="25.399998"
         y="3.175" />
      <rect
         style="opacity:0.999;fill:#c0c0c0;fill-opacity:1;stroke:none;stroke-width:0.183308;stroke-linecap:round;stroke-linejoin:miter;stroke-miterlimit:4;stroke-dasharray:none;stroke-opacity:1;paint-order:stroke fill markers"
         id="color_19"
         width="3.175"
         height="3.175"
         x="28.574997"
         y="3.175" />
      <rect
         style="opacity:0.999;fill:#0ae70a;fill-opacity:1;stroke:none;stroke-width:0.183308;stroke-linecap:round;stroke-linejoin:miter;stroke-miterlimit:4;stroke-dasharray:none;stroke-opacity:1;paint-order:stroke fill markers"
         id="color_20"
         width="3.175"
         height="3.175"
         x="0"
         y="6.3499999" />
      <rect
         style="opacity:0.999;fill:#006611;fill-opacity:1;stroke:none;stroke-width:0.183308;stroke-linecap:round;stroke-linejoin:miter;stroke-miterlimit:4;stroke-dasharray:none;stroke-opacity:1;paint-order:stroke fill markers"
         id="color_21"
         width="3.175"
         height="3.175"
         x="3.175"
         y="6.3499999" />
      <rect
         style="opacity:0.999;fill:#762f07;fill-opacity:1;stroke:none;stroke-width:0.183308;stroke-linecap:round;stroke-linejoin:miter;stroke-miterlimit:4;stroke-dasharray:none;stroke-opacity:1;paint-order:stroke fill markers"
         id="color_22"
         width="3.175"
         height="3.175"
         x="6.3499999"
         y="6.3499999" />
      <rect
         style="opacity:0.999;fill:#887938;fill-opacity:1;stroke:none;stroke-width:0.183308;stroke-linecap:round;stroke-linejoin:miter;stroke-miterlimit:4;stroke-dasharray:none;stroke-opacity:1;paint-order:stroke fill markers"
         id="color_23"
         width="3.175"
         height="3.175"
         x="9.5249996"
         y="6.3499999" />
      <rect
         style="opacity:0.999;fill:#006888;fill-opacity:1;stroke:none;stroke-width:0.183308;stroke-linecap:round;stroke-linejoin:miter;stroke-miterlimit:4;stroke-dasharray:none;stroke-opacity:1;paint-order:stroke fill markers"
         id="color_24"
         width="3.175"
         height="3.175"
         x="12.7"
         y="6.3499999" />
      <rect
         style="opacity:0.999;fill:#26eccf;fill-opacity:1;stroke:none;stroke-width:0.183308;stroke-linecap:round;stroke-linejoin:miter;stroke-miterlimit:4;stroke-dasharray:none;stroke-opacity:1;paint-order:stroke fill markers"
         id="color_25"
         width="3.175"
         height="3.175"
         x="15.875"
         y="6.3499999" />
      <rect
         style="opacity:0.999;fill:#223a70;fill-opacity:1;stroke:none;stroke-width:0.183308;stroke-linecap:round;stroke-linejoin:miter;stroke-miterlimit:4;stroke-dasharray:none;stroke-opacity:1;paint-order:stroke fill markers"
         id="color_26"
         width="3.175"
         height="3.175"
         x="19.049999"
         y="6.3499999" />
      <rect
         style="opacity:0.999;fill:#6d1be0;fill-opacity:1;stroke:none;stroke-width:0.183308;stroke-linecap:round;stroke-linejoin:miter;stroke-miterlimit:4;stroke-dasharray:none;stroke-opacity:1;paint-order:stroke fill markers"
         id="color_27"
         width="3.175"
         height="3.175"
         x="22.224998"
         y="6.3499999" />
      <rect
         style="opacity:0.999;fill:#4dd900;fill-opacity:1;stroke:none;stroke-width:0.183308;stroke-linecap:round;stroke-linejoin:miter;stroke-miterlimit:4;stroke-dasharray:none;stroke-opacity:1;paint-order:stroke fill markers"
         id="color_28"
         width="3.175"
         height="3.175"
         x="25.399998"
         y="6.3499999" />
    </g>
    <g
       id="viseme">
      <path
         id="viseme_a"
         style="fill:#6f6f6f;fill-opacity:1;stroke:none;stroke-width:0.589422;stroke-linecap:round;stroke-linejoin:miter;stroke-miterlimit:4;stroke-dasharray:none;stroke-opacity:1;paint-order:stroke fill markers;filter:url(#filter975)"
         d="M 20.798828,87.001953 A 19.998271,19.99825 0 0 0 1.0019531,107 19.998271,19.99825 0 0 0 21,126.99805 19.998271,19.99825 0 0 0 40.998047,107 19.998271,19.99825 0 0 0 21,87.001953 a 19.998271,19.99825 0 0 0 -0.201172,0 z m 0.08984,5 a 14.998205,14.997988 0 0 1 0.111328,0 14.998205,14.997988 0 0 1 0.326172,0.0039 14.998205,14.997988 0 0 1 0.324219,0.0098 14.998205,14.997988 0 0 1 0.326171,0.01758 14.998205,14.997988 0 0 1 0.324219,0.02539 14.998205,14.997988 0 0 1 0.324219,0.03125 14.998205,14.997988 0 0 1 0.324219,0.03906 14.998205,14.997988 0 0 1 0.322265,0.04687 14.998205,14.997988 0 0 1 0.320313,0.05273 14.998205,14.997988 0 0 1 0.320312,0.05859 14.998205,14.997988 0 0 1 0.31836,0.06641 14.998205,14.997988 0 0 1 0.318359,0.07422 14.998205,14.997988 0 0 1 0.314453,0.08008 14.998205,14.997988 0 0 1 0.314453,0.08789 14.998205,14.997988 0 0 1 0.3125,0.09375 14.998205,14.997988 0 0 1 0.308594,0.101563 14.998205,14.997988 0 0 1 0.306641,0.107422 14.998205,14.997988 0 0 1 0.30664,0.113281 14.998205,14.997988 0 0 1 0.300782,0.121093 14.998205,14.997988 0 0 1 0.300781,0.126954 14.998205,14.997988 0 0 1 0.296875,0.134765 14.998205,14.997988 0 0 1 0.292969,0.140625 14.998205,14.997988 0 0 1 0.291015,0.146485 14.998205,14.997988 0 0 1 0.289063,0.152343 14.998205,14.997988 0 0 1 0.283203,0.158204 14.998205,14.997988 0 0 1 0.28125,0.166015 14.998205,14.997988 0 0 1 0.277344,0.171875 14.998205,14.997988 0 0 1 0.271484,0.175781 14.998205,14.997988 0 0 1 0.269531,0.183594 14.998205,14.997988 0 0 1 0.265625,0.189453 14.998205,14.997988 0 0 1 0.261719,0.19336 14.998205,14.997988 0 0 1 0.255859,0.201172 14.998205,14.997988 0 0 1 0.253907,0.205078 14.998205,14.997988 0 0 1 0.246093,0.210937 14.998205,14.997988 0 0 1 0.244141,0.216797 14.998205,14.997988 0 0 1 0.238281,0.222656 14.998205,14.997988 0 0 1 0.234375,0.226563 14.998205,14.997988 0 0 1 0.228516,0.232422 14.998205,14.997988 0 0 1 0.222656,0.236328 14.998205,14.997988 0 0 1 0.21875,0.242187 14.998205,14.997988 0 0 1 0.212891,0.246094 14.998205,14.997988 0 0 1 0.207031,0.25 14.998205,14.997988 0 0 1 0.203125,0.255859 14.998205,14.997988 0 0 1 0.197266,0.259766 14.998205,14.997988 0 0 1 0.189453,0.263672 14.998205,14.997988 0 0 1 0.185547,0.267578 14.998205,14.997988 0 0 1 0.179687,0.271484 14.998205,14.997988 0 0 1 0.173828,0.275391 14.998205,14.997988 0 0 1 0.166016,0.28125 14.998205,14.997988 0 0 1 0.162109,0.28125 14.998205,14.997988 0 0 1 0.154297,0.28711 14.998205,14.997988 0 0 1 0.148438,0.28906 14.998205,14.997988 0 0 1 0.142578,0.29297 14.998205,14.997988 0 0 1 0.136718,0.29688 14.998205,14.997988 0 0 1 0.128907,0.29882 14.998205,14.997988 0 0 1 0.123047,0.30079 14.998205,14.997988 0 0 1 0.117187,0.30468 14.998205,14.997988 0 0 1 0.109375,0.30664 14.998205,14.997988 0 0 1 0.103516,0.3086 14.998205,14.997988 0 0 1 0.0957,0.31054 14.998205,14.997988 0 0 1 0.08984,0.31446 14.998205,14.997988 0 0 1 0.08203,0.31445 14.998205,14.997988 0 0 1 0.07617,0.31641 14.998205,14.997988 0 0 1 0.07031,0.31836 14.998205,14.997988 0 0 1 0.06055,0.32031 14.998205,14.997988 0 0 1 0.05664,0.32031 14.998205,14.997988 0 0 1 0.04687,0.32227 14.998205,14.997988 0 0 1 0.04102,0.32226 14.998205,14.997988 0 0 1 0.03516,0.32422 14.998205,14.997988 0 0 1 0.02734,0.32422 14.998205,14.997988 0 0 1 0.01953,0.32617 14.998205,14.997988 0 0 1 0.01367,0.32422 14.998205,14.997988 0 0 1 0.0059,0.32617 14.998205,14.997988 0 0 1 0,0.11133 14.998205,14.997988 0 0 1 -0.0039,0.32617 14.998205,14.997988 0 0 1 -0.0098,0.32422 14.998205,14.997988 0 0 1 -0.01758,0.32617 14.998205,14.997988 0 0 1 -0.02539,0.32422 14.998205,14.997988 0 0 1 -0.03125,0.32422 14.998205,14.997988 0 0 1 -0.03906,0.32422 14.998205,14.997988 0 0 1 -0.04492,0.32226 14.998205,14.997988 0 0 1 -0.05273,0.32032 14.998205,14.997988 0 0 1 -0.06055,0.32031 14.998205,14.997988 0 0 1 -0.06641,0.31836 14.998205,14.997988 0 0 1 -0.07422,0.31836 14.998205,14.997988 0 0 1 -0.08008,0.31445 14.998205,14.997988 0 0 1 -0.08789,0.31445 14.998205,14.997988 0 0 1 -0.09375,0.31055 14.998205,14.997988 0 0 1 -0.101563,0.31055 14.998205,14.997988 0 0 1 -0.107422,0.30664 14.998205,14.997988 0 0 1 -0.113281,0.30664 14.998205,14.997988 0 0 1 -0.121093,0.30078 14.998205,14.997988 0 0 1 -0.126954,0.30078 14.998205,14.997988 0 0 1 -0.134765,0.29688 14.998205,14.997988 0 0 1 -0.138672,0.29297 14.998205,14.997988 0 0 1 -0.148438,0.29101 14.998205,14.997988 0 0 1 -0.152343,0.28711 14.998205,14.997988 0 0 1 -0.158204,0.28516 14.998205,14.997988 0 0 1 -0.166015,0.28125 14.998205,14.997988 0 0 1 -0.169922,0.27539 14.998205,14.997988 0 0 1 -0.177734,0.27344 14.998205,14.997988 0 0 1 -0.183594,0.26953 14.998205,14.997988 0 0 1 -0.189453,0.26562 14.998205,14.997988 0 0 1 -0.19336,0.26172 14.998205,14.997988 0 0 1 -0.201172,0.25586 14.998205,14.997988 0 0 1 -0.205078,0.25195 14.998205,14.997988 0 0 1 -0.210937,0.24805 14.998205,14.997988 0 0 1 -0.216797,0.24414 14.998205,14.997988 0 0 1 -0.222656,0.23828 14.998205,14.997988 0 0 1 -0.226563,0.23438 14.998205,14.997988 0 0 1 -0.232422,0.22851 14.998205,14.997988 0 0 1 -0.236328,0.22266 14.998205,14.997988 0 0 1 -0.242187,0.21875 14.998205,14.997988 0 0 1 -0.246094,0.21289 14.998205,14.997988 0 0 1 -0.25,0.20703 14.998205,14.997988 0 0 1 -0.255859,0.20313 14.998205,14.997988 0 0 1 -0.259766,0.19531 14.998205,14.997988 0 0 1 -0.263672,0.1914 14.998205,14.997988 0 0 1 -0.267578,0.18555 14.998205,14.997988 0 0 1 -0.271484,0.17969 14.998205,14.997988 0 0 1 -0.275391,0.17187 14.998205,14.997988 0 0 1 -0.28125,0.16797 14.998205,14.997988 0 0 1 -0.28125,0.16211 14.998205,14.997988 0 0 1 -0.287109,0.1543 14.998205,14.997988 0 0 1 -0.289063,0.14844 14.998205,14.997988 0 0 1 -0.292969,0.14257 14.998205,14.997988 0 0 1 -0.296875,0.13672 14.998205,14.997988 0 0 1 -0.298828,0.12891 14.998205,14.997988 0 0 1 -0.300781,0.12305 14.998205,14.997988 0 0 1 -0.304687,0.11718 14.998205,14.997988 0 0 1 -0.306641,0.10938 14.998205,14.997988 0 0 1 -0.308594,0.10351 14.998205,14.997988 0 0 1 -0.310547,0.0957 14.998205,14.997988 0 0 1 -0.314453,0.0898 14.998205,14.997988 0 0 1 -0.314453,0.082 14.998205,14.997988 0 0 1 -0.316406,0.0762 14.998205,14.997988 0 0 1 -0.31836,0.0684 14.998205,14.997988 0 0 1 -0.320312,0.0625 14.998205,14.997988 0 0 1 -0.320313,0.0566 14.998205,14.997988 0 0 1 -0.322265,0.0469 14.998205,14.997988 0 0 1 -0.322266,0.041 14.998205,14.997988 0 0 1 -0.324219,0.0352 14.998205,14.997988 0 0 1 -0.324218,0.0273 14.998205,14.997988 0 0 1 -0.326172,0.0195 14.998205,14.997988 0 0 1 -0.324219,0.0137 14.998205,14.997988 0 0 1 -0.326172,0.006 14.998205,14.997988 0 0 1 -0.111328,0 14.998205,14.997988 0 0 1 -0.326172,-0.004 14.998205,14.997988 0 0 1 -0.324219,-0.01 14.998205,14.997988 0 0 1 -0.326171,-0.0176 14.998205,14.997988 0 0 1 -0.324219,-0.0254 14.998205,14.997988 0 0 1 -0.324219,-0.0312 14.998205,14.997988 0 0 1 -0.324219,-0.0391 14.998205,14.997988 0 0 1 -0.322265,-0.0469 14.998205,14.997988 0 0 1 -0.320313,-0.0527 14.998205,14.997988 0 0 1 -0.320312,-0.0586 14.998205,14.997988 0 0 1 -0.31836,-0.0664 14.998205,14.997988 0 0 1 -0.318359,-0.0742 14.998205,14.997988 0 0 1 -0.314453,-0.0801 14.998205,14.997988 0 0 1 -0.314453,-0.0879 14.998205,14.997988 0 0 1 -0.3125,-0.0937 14.998205,14.997988 0 0 1 -0.308594,-0.10157 14.998205,14.997988 0 0 1 -0.306641,-0.10742 14.998205,14.997988 0 0 1 -0.30664,-0.11328 14.998205,14.997988 0 0 1 -0.300782,-0.12109 14.998205,14.997988 0 0 1 -0.300781,-0.12696 14.998205,14.997988 0 0 1 -0.296875,-0.13476 14.998205,14.997988 0 0 1 -0.292969,-0.14063 14.998205,14.997988 0 0 1 -0.291015,-0.14648 14.998205,14.997988 0 0 1 -0.289063,-0.15234 14.998205,14.997988 0 0 1 -0.283203,-0.15821 14.998205,14.997988 0 0 1 -0.28125,-0.16601 14.998205,14.997988 0 0 1 -0.277344,-0.17188 14.998205,14.997988 0 0 1 -0.271484,-0.17578 14.998205,14.997988 0 0 1 -0.269531,-0.18359 14.998205,14.997988 0 0 1 -0.265625,-0.18946 14.998205,14.997988 0 0 1 -0.261719,-0.19336 14.998205,14.997988 0 0 1 -0.255859,-0.20117 14.998205,14.997988 0 0 1 -0.253907,-0.20508 14.998205,14.997988 0 0 1 -0.246093,-0.21093 14.998205,14.997988 0 0 1 -0.244141,-0.2168 14.998205,14.997988 0 0 1 -0.238281,-0.22266 14.998205,14.997988 0 0 1 -0.234375,-0.22656 14.998205,14.997988 0 0 1 -0.228516,-0.23242 14.998205,14.997988 0 0 1 -0.2226561,-0.23633 14.998205,14.997988 0 0 1 -0.21875,-0.24219 14.998205,14.997988 0 0 1 -0.2128907,-0.24609 14.998205,14.997988 0 0 1 -0.2070312,-0.25 14.998205,14.997988 0 0 1 -0.203125,-0.25586 14.998205,14.997988 0 0 1 -0.1972656,-0.25976 14.998205,14.997988 0 0 1 -0.1894532,-0.26368 14.998205,14.997988 0 0 1 -0.1855468,-0.26758 14.998205,14.997988 0 0 1 -0.1796875,-0.27148 14.998205,14.997988 0 0 1 -0.1738281,-0.27734 14.998205,14.997988 0 0 1 -0.1660157,-0.2793 14.998205,14.997988 0 0 1 -0.1621093,-0.28125 14.998205,14.997988 0 0 1 -0.1542969,-0.28711 14.998205,14.997988 0 0 1 -0.1484375,-0.28906 14.998205,14.997988 0 0 1 -0.1425782,-0.29297 14.998205,14.997988 0 0 1 -0.1367187,-0.29688 14.998205,14.997988 0 0 1 -0.1289063,-0.29882 14.998205,14.997988 0 0 1 -0.1230468,-0.30079 14.998205,14.997988 0 0 1 -0.1171875,-0.30468 14.998205,14.997988 0 0 1 -0.109375,-0.30664 14.998205,14.997988 0 0 1 -0.1035157,-0.3086 14.998205,14.997988 0 0 1 -0.095703,-0.31054 14.998205,14.997988 0 0 1 -0.089844,-0.31446 14.998205,14.997988 0 0 1 -0.082031,-0.31445 14.998205,14.997988 0 0 1 -0.076172,-0.31641 14.998205,14.997988 0 0 1 -0.070312,-0.31836 14.998205,14.997988 0 0 1 -0.060547,-0.32031 14.998205,14.997988 0 0 1 -0.056641,-0.32031 14.998205,14.997988 0 0 1 -0.046875,-0.32227 14.998205,14.997988 0 0 1 -0.041016,-0.32226 14.998205,14.997988 0 0 1 -0.035156,-0.32422 14.998205,14.997988 0 0 1 -0.027344,-0.32422 14.998205,14.997988 0 0 1 -0.019531,-0.32617 14.998205,14.997988 0 0 1 -0.013672,-0.32422 14.998205,14.997988 0 0 1 -0.00586,-0.32617 14.998205,14.997988 0 0 1 0,-0.11133 14.998205,14.997988 0 0 1 0.00391,-0.32617 14.998205,14.997988 0 0 1 0.00977,-0.32422 14.998205,14.997988 0 0 1 0.017578,-0.32617 14.998205,14.997988 0 0 1 0.025391,-0.32422 14.998205,14.997988 0 0 1 0.03125,-0.32422 14.998205,14.997988 0 0 1 0.039062,-0.32422 14.998205,14.997988 0 0 1 0.044922,-0.32226 14.998205,14.997988 0 0 1 0.052734,-0.32032 14.998205,14.997988 0 0 1 0.060547,-0.32031 14.998205,14.997988 0 0 1 0.066406,-0.31836 14.998205,14.997988 0 0 1 0.074219,-0.31836 14.998205,14.997988 0 0 1 0.080078,-0.31445 14.998205,14.997988 0 0 1 0.087891,-0.31445 14.998205,14.997988 0 0 1 0.09375,-0.3125 14.998205,14.997988 0 0 1 0.1015625,-0.3086 14.998205,14.997988 0 0 1 0.1074219,-0.30664 14.998205,14.997988 0 0 1 0.1132813,-0.30664 14.998205,14.997988 0 0 1 0.1210937,-0.30078 14.998205,14.997988 0 0 1 0.1269531,-0.30078 14.998205,14.997988 0 0 1 0.1347656,-0.29688 14.998205,14.997988 0 0 1 0.1386719,-0.29297 14.998205,14.997988 0 0 1 0.1484375,-0.29101 14.998205,14.997988 0 0 1 0.1523438,-0.287111 14.998205,14.997988 0 0 1 0.1582031,-0.285156 14.998205,14.997988 0 0 1 0.1660156,-0.28125 A 14.998205,14.997988 0 0 1 8.328125,98.976562 14.998205,14.997988 0 0 1 8.5058594,98.703125 14.998205,14.997988 0 0 1 8.6894531,98.433594 14.998205,14.997988 0 0 1 8.8789062,98.167969 14.998205,14.997988 0 0 1 9.0722656,97.90625 14.998205,14.997988 0 0 1 9.2734375,97.650391 14.998205,14.997988 0 0 1 9.4785156,97.398438 14.998205,14.997988 0 0 1 9.6894531,97.150391 14.998205,14.997988 0 0 1 9.90625,96.90625 a 14.998205,14.997988 0 0 1 0.222656,-0.238281 14.998205,14.997988 0 0 1 0.226563,-0.234375 14.998205,14.997988 0 0 1 0.232422,-0.228516 14.998205,14.997988 0 0 1 0.236328,-0.222656 14.998205,14.997988 0 0 1 0.242187,-0.21875 14.998205,14.997988 0 0 1 0.246094,-0.212891 14.998205,14.997988 0 0 1 0.25,-0.207031 14.998205,14.997988 0 0 1 0.255859,-0.203125 14.998205,14.997988 0 0 1 0.259766,-0.195313 14.998205,14.997988 0 0 1 0.263672,-0.191406 14.998205,14.997988 0 0 1 0.267578,-0.185547 14.998205,14.997988 0 0 1 0.271484,-0.179687 14.998205,14.997988 0 0 1 0.275391,-0.171875 14.998205,14.997988 0 0 1 0.28125,-0.167969 14.998205,14.997988 0 0 1 0.28125,-0.162109 14.998205,14.997988 0 0 1 0.287109,-0.154297 14.998205,14.997988 0 0 1 0.289063,-0.148438 14.998205,14.997988 0 0 1 0.292969,-0.142578 14.998205,14.997988 0 0 1 0.296875,-0.136718 14.998205,14.997988 0 0 1 0.298828,-0.128907 14.998205,14.997988 0 0 1 0.300781,-0.123047 14.998205,14.997988 0 0 1 0.304687,-0.117187 14.998205,14.997988 0 0 1 0.306641,-0.109375 14.998205,14.997988 0 0 1 0.308594,-0.103516 14.998205,14.997988 0 0 1 0.310547,-0.0957 14.998205,14.997988 0 0 1 0.314453,-0.08984 14.998205,14.997988 0 0 1 0.314453,-0.08203 14.998205,14.997988 0 0 1 0.316406,-0.07617 14.998205,14.997988 0 0 1 0.31836,-0.07031 14.998205,14.997988 0 0 1 0.320312,-0.06055 14.998205,14.997988 0 0 1 0.320313,-0.05664 14.998205,14.997988 0 0 1 0.322265,-0.04687 14.998205,14.997988 0 0 1 0.322266,-0.04102 14.998205,14.997988 0 0 1 0.324219,-0.03516 14.998205,14.997988 0 0 1 0.324218,-0.02734 14.998205,14.997988 0 0 1 0.326172,-0.01953 14.998205,14.997988 0 0 1 0.324219,-0.01367 14.998205,14.997988 0 0 1 0.326172,-0.0059 z"
         transform="scale(0.26458333)" />
      <path
         id="viseme_i"
         style="fill:#26eccf;fill-opacity:1;stroke:none;stroke-width:0.589422;stroke-linecap:round;stroke-linejoin:miter;stroke-miterlimit:4;stroke-dasharray:none;stroke-opacity:1;paint-order:stroke fill markers;filter:url(#filter975)"
         d="M 20.798828,87.001953 A 19.998271,19.99825 0 0 0 1.0019531,107 19.998271,19.99825 0 0 0 21,126.99805 19.998271,19.99825 0 0 0 40.998047,107 19.998271,19.99825 0 0 0 21,87.001953 a 19.998271,19.99825 0 0 0 -0.201172,0 z m 0.08984,5 a 14.998205,14.997988 0 0 1 0.111328,0 14.998205,14.997988 0 0 1 0.326172,0.0039 14.998205,14.997988 0 0 1 0.324219,0.0098 14.998205,14.997988 0 0 1 0.326171,0.01758 14.998205,14.997988 0 0 1 0.324219,0.02539 14.998205,14.997988 0 0 1 0.324219,0.03125 14.998205,14.997988 0 0 1 0.324219,0.03906 14.998205,14.997988 0 0 1 0.322265,0.04687 14.998205,14.997988 0 0 1 0.320313,0.05273 14.998205,14.997988 0 0 1 0.320312,0.05859 14.998205,14.997988 0 0 1 0.31836,0.06641 14.998205,14.997988 0 0 1 0.318359,0.07422 14.998205,14.997988 0 0 1 0.314453,0.08008 14.998205,14.997988 0 0 1 0.314453,0.08789 14.998205,14.997988 0 0 1 0.3125,0.09375 14.998205,14.997988 0 0 1 0.308594,0.101563 14.998205,14.997988 0 0 1 0.306641,0.107422 14.998205,14.997988 0 0 1 0.30664,0.113281 14.998205,14.997988 0 0 1 0.300782,0.121093 14.998205,14.997988 0 0 1 0.300781,0.126954 14.998205,14.997988 0 0 1 0.296875,0.134765 14.998205,14.997988 0 0 1 0.292969,0.140625 14.998205,14.997988 0 0 1 0.291015,0.146485 14.998205,14.997988 0 0 1 0.289063,0.152343 14.998205,14.997988 0 0 1 0.283203,0.158204 14.998205,14.997988 0 0 1 0.28125,0.166015 14.998205,14.997988 0 0 1 0.277344,0.171875 14.998205,14.997988 0 0 1 0.271484,0.175781 14.998205,14.997988 0 0 1 0.269531,0.183594 14.998205,14.997988 0 0 1 0.265625,0.189453 14.998205,14.997988 0 0 1 0.261719,0.19336 14.998205,14.997988 0 0 1 0.255859,0.201172 14.998205,14.997988 0 0 1 0.253907,0.205078 14.998205,14.997988 0 0 1 0.246093,0.210937 14.998205,14.997988 0 0 1 0.244141,0.216797 14.998205,14.997988 0 0 1 0.238281,0.222656 14.998205,14.997988 0 0 1 0.234375,0.226563 14.998205,14.997988 0 0 1 0.228516,0.232422 14.998205,14.997988 0 0 1 0.222656,0.236328 14.998205,14.997988 0 0 1 0.21875,0.242187 14.998205,14.997988 0 0 1 0.212891,0.246094 14.998205,14.997988 0 0 1 0.207031,0.25 14.998205,14.997988 0 0 1 0.203125,0.255859 14.998205,14.997988 0 0 1 0.197266,0.259766 14.998205,14.997988 0 0 1 0.189453,0.263672 14.998205,14.997988 0 0 1 0.185547,0.267578 14.998205,14.997988 0 0 1 0.179687,0.271484 14.998205,14.997988 0 0 1 0.173828,0.275391 14.998205,14.997988 0 0 1 0.166016,0.28125 14.998205,14.997988 0 0 1 0.162109,0.28125 14.998205,14.997988 0 0 1 0.154297,0.28711 14.998205,14.997988 0 0 1 0.148438,0.28906 14.998205,14.997988 0 0 1 0.142578,0.29297 14.998205,14.997988 0 0 1 0.136718,0.29688 14.998205,14.997988 0 0 1 0.128907,0.29882 14.998205,14.997988 0 0 1 0.123047,0.30079 14.998205,14.997988 0 0 1 0.117187,0.30468 14.998205,14.997988 0 0 1 0.109375,0.30664 14.998205,14.997988 0 0 1 0.103516,0.3086 14.998205,14.997988 0 0 1 0.0957,0.31054 14.998205,14.997988 0 0 1 0.08984,0.31446 14.998205,14.997988 0 0 1 0.08203,0.31445 14.998205,14.997988 0 0 1 0.07617,0.31641 14.998205,14.997988 0 0 1 0.07031,0.31836 14.998205,14.997988 0 0 1 0.06055,0.32031 14.998205,14.997988 0 0 1 0.05664,0.32031 14.998205,14.997988 0 0 1 0.04687,0.32227 14.998205,14.997988 0 0 1 0.04102,0.32226 14.998205,14.997988 0 0 1 0.03516,0.32422 14.998205,14.997988 0 0 1 0.02734,0.32422 14.998205,14.997988 0 0 1 0.01953,0.32617 14.998205,14.997988 0 0 1 0.01367,0.32422 14.998205,14.997988 0 0 1 0.0059,0.32617 14.998205,14.997988 0 0 1 0,0.11133 14.998205,14.997988 0 0 1 -0.0039,0.32617 14.998205,14.997988 0 0 1 -0.0098,0.32422 14.998205,14.997988 0 0 1 -0.01758,0.32617 14.998205,14.997988 0 0 1 -0.02539,0.32422 14.998205,14.997988 0 0 1 -0.03125,0.32422 14.998205,14.997988 0 0 1 -0.03906,0.32422 14.998205,14.997988 0 0 1 -0.04492,0.32226 14.998205,14.997988 0 0 1 -0.05273,0.32032 14.998205,14.997988 0 0 1 -0.06055,0.32031 14.998205,14.997988 0 0 1 -0.06641,0.31836 14.998205,14.997988 0 0 1 -0.07422,0.31836 14.998205,14.997988 0 0 1 -0.08008,0.31445 14.998205,14.997988 0 0 1 -0.08789,0.31445 14.998205,14.997988 0 0 1 -0.09375,0.31055 14.998205,14.997988 0 0 1 -0.101563,0.31055 14.998205,14.997988 0 0 1 -0.107422,0.30664 14.998205,14.997988 0 0 1 -0.113281,0.30664 14.998205,14.997988 0 0 1 -0.121093,0.30078 14.998205,14.997988 0 0 1 -0.126954,0.30078 14.998205,14.997988 0 0 1 -0.134765,0.29688 14.998205,14.997988 0 0 1 -0.138672,0.29297 14.998205,14.997988 0 0 1 -0.148438,0.29101 14.998205,14.997988 0 0 1 -0.152343,0.28711 14.998205,14.997988 0 0 1 -0.158204,0.28516 14.998205,14.997988 0 0 1 -0.166015,0.28125 14.998205,14.997988 0 0 1 -0.169922,0.27539 14.998205,14.997988 0 0 1 -0.177734,0.27344 14.998205,14.997988 0 0 1 -0.183594,0.26953 14.998205,14.997988 0 0 1 -0.189453,0.26562 14.998205,14.997988 0 0 1 -0.19336,0.26172 14.998205,14.997988 0 0 1 -0.201172,0.25586 14.998205,14.997988 0 0 1 -0.205078,0.25195 14.998205,14.997988 0 0 1 -0.210937,0.24805 14.998205,14.997988 0 0 1 -0.216797,0.24414 14.998205,14.997988 0 0 1 -0.222656,0.23828 14.998205,14.997988 0 0 1 -0.226563,0.23438 14.998205,14.997988 0 0 1 -0.232422,0.22851 14.998205,14.997988 0 0 1 -0.236328,0.22266 14.998205,14.997988 0 0 1 -0.242187,0.21875 14.998205,14.997988 0 0 1 -0.246094,0.21289 14.998205,14.997988 0 0 1 -0.25,0.20703 14.998205,14.997988 0 0 1 -0.255859,0.20313 14.998205,14.997988 0 0 1 -0.259766,0.19531 14.998205,14.997988 0 0 1 -0.263672,0.1914 14.998205,14.997988 0 0 1 -0.267578,0.18555 14.998205,14.997988 0 0 1 -0.271484,0.17969 14.998205,14.997988 0 0 1 -0.275391,0.17187 14.998205,14.997988 0 0 1 -0.28125,0.16797 14.998205,14.997988 0 0 1 -0.28125,0.16211 14.998205,14.997988 0 0 1 -0.287109,0.1543 14.998205,14.997988 0 0 1 -0.289063,0.14844 14.998205,14.997988 0 0 1 -0.292969,0.14257 14.998205,14.997988 0 0 1 -0.296875,0.13672 14.998205,14.997988 0 0 1 -0.298828,0.12891 14.998205,14.997988 0 0 1 -0.300781,0.12305 14.998205,14.997988 0 0 1 -0.304687,0.11718 14.998205,14.997988 0 0 1 -0.306641,0.10938 14.998205,14.997988 0 0 1 -0.308594,0.10351 14.998205,14.997988 0 0 1 -0.310547,0.0957 14.998205,14.997988 0 0 1 -0.314453,0.0898 14.998205,14.997988 0 0 1 -0.314453,0.082 14.998205,14.997988 0 0 1 -0.316406,0.0762 14.998205,14.997988 0 0 1 -0.31836,0.0684 14.998205,14.997988 0 0 1 -0.320312,0.0625 14.998205,14.997988 0 0 1 -0.320313,0.0566 14.998205,14.997988 0 0 1 -0.322265,0.0469 14.998205,14.997988 0 0 1 -0.322266,0.041 14.998205,14.997988 0 0 1 -0.324219,0.0352 14.998205,14.997988 0 0 1 -0.324218,0.0273 14.998205,14.997988 0 0 1 -0.326172,0.0195 14.998205,14.997988 0 0 1 -0.324219,0.0137 14.998205,14.997988 0 0 1 -0.326172,0.006 14.998205,14.997988 0 0 1 -0.111328,0 14.998205,14.997988 0 0 1 -0.326172,-0.004 14.998205,14.997988 0 0 1 -0.324219,-0.01 14.998205,14.997988 0 0 1 -0.326171,-0.0176 14.998205,14.997988 0 0 1 -0.324219,-0.0254 14.998205,14.997988 0 0 1 -0.324219,-0.0312 14.998205,14.997988 0 0 1 -0.324219,-0.0391 14.998205,14.997988 0 0 1 -0.322265,-0.0469 14.998205,14.997988 0 0 1 -0.320313,-0.0527 14.998205,14.997988 0 0 1 -0.320312,-0.0586 14.998205,14.997988 0 0 1 -0.31836,-0.0664 14.998205,14.997988 0 0 1 -0.318359,-0.0742 14.998205,14.997988 0 0 1 -0.314453,-0.0801 14.998205,14.997988 0 0 1 -0.314453,-0.0879 14.998205,14.997988 0 0 1 -0.3125,-0.0937 14.998205,14.997988 0 0 1 -0.308594,-0.10157 14.998205,14.997988 0 0 1 -0.306641,-0.10742 14.998205,14.997988 0 0 1 -0.30664,-0.11328 14.998205,14.997988 0 0 1 -0.300782,-0.12109 14.998205,14.997988 0 0 1 -0.300781,-0.12696 14.998205,14.997988 0 0 1 -0.296875,-0.13476 14.998205,14.997988 0 0 1 -0.292969,-0.14063 14.998205,14.997988 0 0 1 -0.291015,-0.14648 14.998205,14.997988 0 0 1 -0.289063,-0.15234 14.998205,14.997988 0 0 1 -0.283203,-0.15821 14.998205,14.997988 0 0 1 -0.28125,-0.16601 14.998205,14.997988 0 0 1 -0.277344,-0.17188 14.998205,14.997988 0 0 1 -0.271484,-0.17578 14.998205,14.997988 0 0 1 -0.269531,-0.18359 14.998205,14.997988 0 0 1 -0.265625,-0.18946 14.998205,14.997988 0 0 1 -0.261719,-0.19336 14.998205,14.997988 0 0 1 -0.255859,-0.20117 14.998205,14.997988 0 0 1 -0.253907,-0.20508 14.998205,14.997988 0 0 1 -0.246093,-0.21093 14.998205,14.997988 0 0 1 -0.244141,-0.2168 14.998205,14.997988 0 0 1 -0.238281,-0.22266 14.998205,14.997988 0 0 1 -0.234375,-0.22656 14.998205,14.997988 0 0 1 -0.228516,-0.23242 14.998205,14.997988 0 0 1 -0.2226561,-0.23633 14.998205,14.997988 0 0 1 -0.21875,-0.24219 14.998205,14.997988 0 0 1 -0.2128907,-0.24609 14.998205,14.997988 0 0 1 -0.2070312,-0.25 14.998205,14.997988 0 0 1 -0.203125,-0.25586 14.998205,14.997988 0 0 1 -0.1972656,-0.25976 14.998205,14.997988 0 0 1 -0.1894532,-0.26368 14.998205,14.997988 0 0 1 -0.1855468,-0.26758 14.998205,14.997988 0 0 1 -0.1796875,-0.27148 14.998205,14.997988 0 0 1 -0.1738281,-0.27734 14.998205,14.997988 0 0 1 -0.1660157,-0.2793 14.998205,14.997988 0 0 1 -0.1621093,-0.28125 14.998205,14.997988 0 0 1 -0.1542969,-0.28711 14.998205,14.997988 0 0 1 -0.1484375,-0.28906 14.998205,14.997988 0 0 1 -0.1425782,-0.29297 14.998205,14.997988 0 0 1 -0.1367187,-0.29688 14.998205,14.997988 0 0 1 -0.1289063,-0.29882 14.998205,14.997988 0 0 1 -0.1230468,-0.30079 14.998205,14.997988 0 0 1 -0.1171875,-0.30468 14.998205,14.997988 0 0 1 -0.109375,-0.30664 14.998205,14.997988 0 0 1 -0.1035157,-0.3086 14.998205,14.997988 0 0 1 -0.095703,-0.31054 14.998205,14.997988 0 0 1 -0.089844,-0.31446 14.998205,14.997988 0 0 1 -0.082031,-0.31445 14.998205,14.997988 0 0 1 -0.076172,-0.31641 14.998205,14.997988 0 0 1 -0.070312,-0.31836 14.998205,14.997988 0 0 1 -0.060547,-0.32031 14.998205,14.997988 0 0 1 -0.056641,-0.32031 14.998205,14.997988 0 0 1 -0.046875,-0.32227 14.998205,14.997988 0 0 1 -0.041016,-0.32226 14.998205,14.997988 0 0 1 -0.035156,-0.32422 14.998205,14.997988 0 0 1 -0.027344,-0.32422 14.998205,14.997988 0 0 1 -0.019531,-0.32617 14.998205,14.997988 0 0 1 -0.013672,-0.32422 14.998205,14.997988 0 0 1 -0.00586,-0.32617 14.998205,14.997988 0 0 1 0,-0.11133 14.998205,14.997988 0 0 1 0.00391,-0.32617 14.998205,14.997988 0 0 1 0.00977,-0.32422 14.998205,14.997988 0 0 1 0.017578,-0.32617 14.998205,14.997988 0 0 1 0.025391,-0.32422 14.998205,14.997988 0 0 1 0.03125,-0.32422 14.998205,14.997988 0 0 1 0.039062,-0.32422 14.998205,14.997988 0 0 1 0.044922,-0.32226 14.998205,14.997988 0 0 1 0.052734,-0.32032 14.998205,14.997988 0 0 1 0.060547,-0.32031 14.998205,14.997988 0 0 1 0.066406,-0.31836 14.998205,14.997988 0 0 1 0.074219,-0.31836 14.998205,14.997988 0 0 1 0.080078,-0.31445 14.998205,14.997988 0 0 1 0.087891,-0.31445 14.998205,14.997988 0 0 1 0.09375,-0.3125 14.998205,14.997988 0 0 1 0.1015625,-0.3086 14.998205,14.997988 0 0 1 0.1074219,-0.30664 14.998205,14.997988 0 0 1 0.1132813,-0.30664 14.998205,14.997988 0 0 1 0.1210937,-0.30078 14.998205,14.997988 0 0 1 0.1269531,-0.30078 14.998205,14.997988 0 0 1 0.1347656,-0.29688 14.998205,14.997988 0 0 1 0.1386719,-0.29297 14.998205,14.997988 0 0 1 0.1484375,-0.29101 14.998205,14.997988 0 0 1 0.1523438,-0.287111 14.998205,14.997988 0 0 1 0.1582031,-0.285156 14.998205,14.997988 0 0 1 0.1660156,-0.28125 A 14.998205,14.997988 0 0 1 8.328125,98.976562 14.998205,14.997988 0 0 1 8.5058594,98.703125 14.998205,14.997988 0 0 1 8.6894531,98.433594 14.998205,14.997988 0 0 1 8.8789062,98.167969 14.998205,14.997988 0 0 1 9.0722656,97.90625 14.998205,14.997988 0 0 1 9.2734375,97.650391 14.998205,14.997988 0 0 1 9.4785156,97.398438 14.998205,14.997988 0 0 1 9.6894531,97.150391 14.998205,14.997988 0 0 1 9.90625,96.90625 a 14.998205,14.997988 0 0 1 0.222656,-0.238281 14.998205,14.997988 0 0 1 0.226563,-0.234375 14.998205,14.997988 0 0 1 0.232422,-0.228516 14.998205,14.997988 0 0 1 0.236328,-0.222656 14.998205,14.997988 0 0 1 0.242187,-0.21875 14.998205,14.997988 0 0 1 0.246094,-0.212891 14.998205,14.997988 0 0 1 0.25,-0.207031 14.998205,14.997988 0 0 1 0.255859,-0.203125 14.998205,14.997988 0 0 1 0.259766,-0.195313 14.998205,14.997988 0 0 1 0.263672,-0.191406 14.998205,14.997988 0 0 1 0.267578,-0.185547 14.998205,14.997988 0 0 1 0.271484,-0.179687 14.998205,14.997988 0 0 1 0.275391,-0.171875 14.998205,14.997988 0 0 1 0.28125,-0.167969 14.998205,14.997988 0 0 1 0.28125,-0.162109 14.998205,14.997988 0 0 1 0.287109,-0.154297 14.998205,14.997988 0 0 1 0.289063,-0.148438 14.998205,14.997988 0 0 1 0.292969,-0.142578 14.998205,14.997988 0 0 1 0.296875,-0.136718 14.998205,14.997988 0 0 1 0.298828,-0.128907 14.998205,14.997988 0 0 1 0.300781,-0.123047 14.998205,14.997988 0 0 1 0.304687,-0.117187 14.998205,14.997988 0 0 1 0.306641,-0.109375 14.998205,14.997988 0 0 1 0.308594,-0.103516 14.998205,14.997988 0 0 1 0.310547,-0.0957 14.998205,14.997988 0 0 1 0.314453,-0.08984 14.998205,14.997988 0 0 1 0.314453,-0.08203 14.998205,14.997988 0 0 1 0.316406,-0.07617 14.998205,14.997988 0 0 1 0.31836,-0.07031 14.998205,14.997988 0 0 1 0.320312,-0.06055 14.998205,14.997988 0 0 1 0.320313,-0.05664 14.998205,14.997988 0 0 1 0.322265,-0.04687 14.998205,14.997988 0 0 1 0.322266,-0.04102 14.998205,14.997988 0 0 1 0.324219,-0.03516 14.998205,14.997988 0 0 1 0.324218,-0.02734 14.998205,14.997988 0 0 1 0.326172,-0.01953 14.998205,14.997988 0 0 1 0.324219,-0.01367 14.998205,14.997988 0 0 1 0.326172,-0.0059 z"
         transform="matrix(0.26458333,0,0,0.26458333,11.11244,0)" />
      <path
         id="viseme_u"
         style="fill:#a11213;fill-opacity:1;stroke:none;stroke-width:0.589422;stroke-linecap:round;stroke-linejoin:miter;stroke-miterlimit:4;stroke-dasharray:none;stroke-opacity:1;paint-order:stroke fill markers;filter:url(#filter975)"
         d="M 20.798828,87.001953 A 19.998271,19.99825 0 0 0 1.0019531,107 19.998271,19.99825 0 0 0 21,126.99805 19.998271,19.99825 0 0 0 40.998047,107 19.998271,19.99825 0 0 0 21,87.001953 a 19.998271,19.99825 0 0 0 -0.201172,0 z m 0.08984,5 a 14.998205,14.997988 0 0 1 0.111328,0 14.998205,14.997988 0 0 1 0.326172,0.0039 14.998205,14.997988 0 0 1 0.324219,0.0098 14.998205,14.997988 0 0 1 0.326171,0.01758 14.998205,14.997988 0 0 1 0.324219,0.02539 14.998205,14.997988 0 0 1 0.324219,0.03125 14.998205,14.997988 0 0 1 0.324219,0.03906 14.998205,14.997988 0 0 1 0.322265,0.04687 14.998205,14.997988 0 0 1 0.320313,0.05273 14.998205,14.997988 0 0 1 0.320312,0.05859 14.998205,14.997988 0 0 1 0.31836,0.06641 14.998205,14.997988 0 0 1 0.318359,0.07422 14.998205,14.997988 0 0 1 0.314453,0.08008 14.998205,14.997988 0 0 1 0.314453,0.08789 14.998205,14.997988 0 0 1 0.3125,0.09375 14.998205,14.997988 0 0 1 0.308594,0.101563 14.998205,14.997988 0 0 1 0.306641,0.107422 14.998205,14.997988 0 0 1 0.30664,0.113281 14.998205,14.997988 0 0 1 0.300782,0.121093 14.998205,14.997988 0 0 1 0.300781,0.126954 14.998205,14.997988 0 0 1 0.296875,0.134765 14.998205,14.997988 0 0 1 0.292969,0.140625 14.998205,14.997988 0 0 1 0.291015,0.146485 14.998205,14.997988 0 0 1 0.289063,0.152343 14.998205,14.997988 0 0 1 0.283203,0.158204 14.998205,14.997988 0 0 1 0.28125,0.166015 14.998205,14.997988 0 0 1 0.277344,0.171875 14.998205,14.997988 0 0 1 0.271484,0.175781 14.998205,14.997988 0 0 1 0.269531,0.183594 14.998205,14.997988 0 0 1 0.265625,0.189453 14.998205,14.997988 0 0 1 0.261719,0.19336 14.998205,14.997988 0 0 1 0.255859,0.201172 14.998205,14.997988 0 0 1 0.253907,0.205078 14.998205,14.997988 0 0 1 0.246093,0.210937 14.998205,14.997988 0 0 1 0.244141,0.216797 14.998205,14.997988 0 0 1 0.238281,0.222656 14.998205,14.997988 0 0 1 0.234375,0.226563 14.998205,14.997988 0 0 1 0.228516,0.232422 14.998205,14.997988 0 0 1 0.222656,0.236328 14.998205,14.997988 0 0 1 0.21875,0.242187 14.998205,14.997988 0 0 1 0.212891,0.246094 14.998205,14.997988 0 0 1 0.207031,0.25 14.998205,14.997988 0 0 1 0.203125,0.255859 14.998205,14.997988 0 0 1 0.197266,0.259766 14.998205,14.997988 0 0 1 0.189453,0.263672 14.998205,14.997988 0 0 1 0.185547,0.267578 14.998205,14.997988 0 0 1 0.179687,0.271484 14.998205,14.997988 0 0 1 0.173828,0.275391 14.998205,14.997988 0 0 1 0.166016,0.28125 14.998205,14.997988 0 0 1 0.162109,0.28125 14.998205,14.997988 0 0 1 0.154297,0.28711 14.998205,14.997988 0 0 1 0.148438,0.28906 14.998205,14.997988 0 0 1 0.142578,0.29297 14.998205,14.997988 0 0 1 0.136718,0.29688 14.998205,14.997988 0 0 1 0.128907,0.29882 14.998205,14.997988 0 0 1 0.123047,0.30079 14.998205,14.997988 0 0 1 0.117187,0.30468 14.998205,14.997988 0 0 1 0.109375,0.30664 14.998205,14.997988 0 0 1 0.103516,0.3086 14.998205,14.997988 0 0 1 0.0957,0.31054 14.998205,14.997988 0 0 1 0.08984,0.31446 14.998205,14.997988 0 0 1 0.08203,0.31445 14.998205,14.997988 0 0 1 0.07617,0.31641 14.998205,14.997988 0 0 1 0.07031,0.31836 14.998205,14.997988 0 0 1 0.06055,0.32031 14.998205,14.997988 0 0 1 0.05664,0.32031 14.998205,14.997988 0 0 1 0.04687,0.32227 14.998205,14.997988 0 0 1 0.04102,0.32226 14.998205,14.997988 0 0 1 0.03516,0.32422 14.998205,14.997988 0 0 1 0.02734,0.32422 14.998205,14.997988 0 0 1 0.01953,0.32617 14.998205,14.997988 0 0 1 0.01367,0.32422 14.998205,14.997988 0 0 1 0.0059,0.32617 14.998205,14.997988 0 0 1 0,0.11133 14.998205,14.997988 0 0 1 -0.0039,0.32617 14.998205,14.997988 0 0 1 -0.0098,0.32422 14.998205,14.997988 0 0 1 -0.01758,0.32617 14.998205,14.997988 0 0 1 -0.02539,0.32422 14.998205,14.997988 0 0 1 -0.03125,0.32422 14.998205,14.997988 0 0 1 -0.03906,0.32422 14.998205,14.997988 0 0 1 -0.04492,0.32226 14.998205,14.997988 0 0 1 -0.05273,0.32032 14.998205,14.997988 0 0 1 -0.06055,0.32031 14.998205,14.997988 0 0 1 -0.06641,0.31836 14.998205,14.997988 0 0 1 -0.07422,0.31836 14.998205,14.997988 0 0 1 -0.08008,0.31445 14.998205,14.997988 0 0 1 -0.08789,0.31445 14.998205,14.997988 0 0 1 -0.09375,0.31055 14.998205,14.997988 0 0 1 -0.101563,0.31055 14.998205,14.997988 0 0 1 -0.107422,0.30664 14.998205,14.997988 0 0 1 -0.113281,0.30664 14.998205,14.997988 0 0 1 -0.121093,0.30078 14.998205,14.997988 0 0 1 -0.126954,0.30078 14.998205,14.997988 0 0 1 -0.134765,0.29688 14.998205,14.997988 0 0 1 -0.138672,0.29297 14.998205,14.997988 0 0 1 -0.148438,0.29101 14.998205,14.997988 0 0 1 -0.152343,0.28711 14.998205,14.997988 0 0 1 -0.158204,0.28516 14.998205,14.997988 0 0 1 -0.166015,0.28125 14.998205,14.997988 0 0 1 -0.169922,0.27539 14.998205,14.997988 0 0 1 -0.177734,0.27344 14.998205,14.997988 0 0 1 -0.183594,0.26953 14.998205,14.997988 0 0 1 -0.189453,0.26562 14.998205,14.997988 0 0 1 -0.19336,0.26172 14.998205,14.997988 0 0 1 -0.201172,0.25586 14.998205,14.997988 0 0 1 -0.205078,0.25195 14.998205,14.997988 0 0 1 -0.210937,0.24805 14.998205,14.997988 0 0 1 -0.216797,0.24414 14.998205,14.997988 0 0 1 -0.222656,0.23828 14.998205,14.997988 0 0 1 -0.226563,0.23438 14.998205,14.997988 0 0 1 -0.232422,0.22851 14.998205,14.997988 0 0 1 -0.236328,0.22266 14.998205,14.997988 0 0 1 -0.242187,0.21875 14.998205,14.997988 0 0 1 -0.246094,0.21289 14.998205,14.997988 0 0 1 -0.25,0.20703 14.998205,14.997988 0 0 1 -0.255859,0.20313 14.998205,14.997988 0 0 1 -0.259766,0.19531 14.998205,14.997988 0 0 1 -0.263672,0.1914 14.998205,14.997988 0 0 1 -0.267578,0.18555 14.998205,14.997988 0 0 1 -0.271484,0.17969 14.998205,14.997988 0 0 1 -0.275391,0.17187 14.998205,14.997988 0 0 1 -0.28125,0.16797 14.998205,14.997988 0 0 1 -0.28125,0.16211 14.998205,14.997988 0 0 1 -0.287109,0.1543 14.998205,14.997988 0 0 1 -0.289063,0.14844 14.998205,14.997988 0 0 1 -0.292969,0.14257 14.998205,14.997988 0 0 1 -0.296875,0.13672 14.998205,14.997988 0 0 1 -0.298828,0.12891 14.998205,14.997988 0 0 1 -0.300781,0.12305 14.998205,14.997988 0 0 1 -0.304687,0.11718 14.998205,14.997988 0 0 1 -0.306641,0.10938 14.998205,14.997988 0 0 1 -0.308594,0.10351 14.998205,14.997988 0 0 1 -0.310547,0.0957 14.998205,14.997988 0 0 1 -0.314453,0.0898 14.998205,14.997988 0 0 1 -0.314453,0.082 14.998205,14.997988 0 0 1 -0.316406,0.0762 14.998205,14.997988 0 0 1 -0.31836,0.0684 14.998205,14.997988 0 0 1 -0.320312,0.0625 14.998205,14.997988 0 0 1 -0.320313,0.0566 14.998205,14.997988 0 0 1 -0.322265,0.0469 14.998205,14.997988 0 0 1 -0.322266,0.041 14.998205,14.997988 0 0 1 -0.324219,0.0352 14.998205,14.997988 0 0 1 -0.324218,0.0273 14.998205,14.997988 0 0 1 -0.326172,0.0195 14.998205,14.997988 0 0 1 -0.324219,0.0137 14.998205,14.997988 0 0 1 -0.326172,0.006 14.998205,14.997988 0 0 1 -0.111328,0 14.998205,14.997988 0 0 1 -0.326172,-0.004 14.998205,14.997988 0 0 1 -0.324219,-0.01 14.998205,14.997988 0 0 1 -0.326171,-0.0176 14.998205,14.997988 0 0 1 -0.324219,-0.0254 14.998205,14.997988 0 0 1 -0.324219,-0.0312 14.998205,14.997988 0 0 1 -0.324219,-0.0391 14.998205,14.997988 0 0 1 -0.322265,-0.0469 14.998205,14.997988 0 0 1 -0.320313,-0.0527 14.998205,14.997988 0 0 1 -0.320312,-0.0586 14.998205,14.997988 0 0 1 -0.31836,-0.0664 14.998205,14.997988 0 0 1 -0.318359,-0.0742 14.998205,14.997988 0 0 1 -0.314453,-0.0801 14.998205,14.997988 0 0 1 -0.314453,-0.0879 14.998205,14.997988 0 0 1 -0.3125,-0.0937 14.998205,14.997988 0 0 1 -0.308594,-0.10157 14.998205,14.997988 0 0 1 -0.306641,-0.10742 14.998205,14.997988 0 0 1 -0.30664,-0.11328 14.998205,14.997988 0 0 1 -0.300782,-0.12109 14.998205,14.997988 0 0 1 -0.300781,-0.12696 14.998205,14.997988 0 0 1 -0.296875,-0.13476 14.998205,14.997988 0 0 1 -0.292969,-0.14063 14.998205,14.997988 0 0 1 -0.291015,-0.14648 14.998205,14.997988 0 0 1 -0.289063,-0.15234 14.998205,14.997988 0 0 1 -0.283203,-0.15821 14.998205,14.997988 0 0 1 -0.28125,-0.16601 14.998205,14.997988 0 0 1 -0.277344,-0.17188 14.998205,14.997988 0 0 1 -0.271484,-0.17578 14.998205,14.997988 0 0 1 -0.269531,-0.18359 14.998205,14.997988 0 0 1 -0.265625,-0.18946 14.998205,14.997988 0 0 1 -0.261719,-0.19336 14.998205,14.997988 0 0 1 -0.255859,-0.20117 14.998205,14.997988 0 0 1 -0.253907,-0.20508 14.998205,14.997988 0 0 1 -0.246093,-0.21093 14.998205,14.997988 0 0 1 -0.244141,-0.2168 14.998205,14.997988 0 0 1 -0.238281,-0.22266 14.998205,14.997988 0 0 1 -0.234375,-0.22656 14.998205,14.997988 0 0 1 -0.228516,-0.23242 14.998205,14.997988 0 0 1 -0.2226561,-0.23633 14.998205,14.997988 0 0 1 -0.21875,-0.24219 14.998205,14.997988 0 0 1 -0.2128907,-0.24609 14.998205,14.997988 0 0 1 -0.2070312,-0.25 14.998205,14.997988 0 0 1 -0.203125,-0.25586 14.998205,14.997988 0 0 1 -0.1972656,-0.25976 14.998205,14.997988 0 0 1 -0.1894532,-0.26368 14.998205,14.997988 0 0 1 -0.1855468,-0.26758 14.998205,14.997988 0 0 1 -0.1796875,-0.27148 14.998205,14.997988 0 0 1 -0.1738281,-0.27734 14.998205,14.997988 0 0 1 -0.1660157,-0.2793 14.998205,14.997988 0 0 1 -0.1621093,-0.28125 14.998205,14.997988 0 0 1 -0.1542969,-0.28711 14.998205,14.997988 0 0 1 -0.1484375,-0.28906 14.998205,14.997988 0 0 1 -0.1425782,-0.29297 14.998205,14.997988 0 0 1 -0.1367187,-0.29688 14.998205,14.997988 0 0 1 -0.1289063,-0.29882 14.998205,14.997988 0 0 1 -0.1230468,-0.30079 14.998205,14.997988 0 0 1 -0.1171875,-0.30468 14.998205,14.997988 0 0 1 -0.109375,-0.30664 14.998205,14.997988 0 0 1 -0.1035157,-0.3086 14.998205,14.997988 0 0 1 -0.095703,-0.31054 14.998205,14.997988 0 0 1 -0.089844,-0.31446 14.998205,14.997988 0 0 1 -0.082031,-0.31445 14.998205,14.997988 0 0 1 -0.076172,-0.31641 14.998205,14.997988 0 0 1 -0.070312,-0.31836 14.998205,14.997988 0 0 1 -0.060547,-0.32031 14.998205,14.997988 0 0 1 -0.056641,-0.32031 14.998205,14.997988 0 0 1 -0.046875,-0.32227 14.998205,14.997988 0 0 1 -0.041016,-0.32226 14.998205,14.997988 0 0 1 -0.035156,-0.32422 14.998205,14.997988 0 0 1 -0.027344,-0.32422 14.998205,14.997988 0 0 1 -0.019531,-0.32617 14.998205,14.997988 0 0 1 -0.013672,-0.32422 14.998205,14.997988 0 0 1 -0.00586,-0.32617 14.998205,14.997988 0 0 1 0,-0.11133 14.998205,14.997988 0 0 1 0.00391,-0.32617 14.998205,14.997988 0 0 1 0.00977,-0.32422 14.998205,14.997988 0 0 1 0.017578,-0.32617 14.998205,14.997988 0 0 1 0.025391,-0.32422 14.998205,14.997988 0 0 1 0.03125,-0.32422 14.998205,14.997988 0 0 1 0.039062,-0.32422 14.998205,14.997988 0 0 1 0.044922,-0.32226 14.998205,14.997988 0 0 1 0.052734,-0.32032 14.998205,14.997988 0 0 1 0.060547,-0.32031 14.998205,14.997988 0 0 1 0.066406,-0.31836 14.998205,14.997988 0 0 1 0.074219,-0.31836 14.998205,14.997988 0 0 1 0.080078,-0.31445 14.998205,14.997988 0 0 1 0.087891,-0.31445 14.998205,14.997988 0 0 1 0.09375,-0.3125 14.998205,14.997988 0 0 1 0.1015625,-0.3086 14.998205,14.997988 0 0 1 0.1074219,-0.30664 14.998205,14.997988 0 0 1 0.1132813,-0.30664 14.998205,14.997988 0 0 1 0.1210937,-0.30078 14.998205,14.997988 0 0 1 0.1269531,-0.30078 14.998205,14.997988 0 0 1 0.1347656,-0.29688 14.998205,14.997988 0 0 1 0.1386719,-0.29297 14.998205,14.997988 0 0 1 0.1484375,-0.29101 14.998205,14.997988 0 0 1 0.1523438,-0.287111 14.998205,14.997988 0 0 1 0.1582031,-0.285156 14.998205,14.997988 0 0 1 0.1660156,-0.28125 A 14.998205,14.997988 0 0 1 8.328125,98.976562 14.998205,14.997988 0 0 1 8.5058594,98.703125 14.998205,14.997988 0 0 1 8.6894531,98.433594 14.998205,14.997988 0 0 1 8.8789062,98.167969 14.998205,14.997988 0 0 1 9.0722656,97.90625 14.998205,14.997988 0 0 1 9.2734375,97.650391 14.998205,14.997988 0 0 1 9.4785156,97.398438 14.998205,14.997988 0 0 1 9.6894531,97.150391 14.998205,14.997988 0 0 1 9.90625,96.90625 a 14.998205,14.997988 0 0 1 0.222656,-0.238281 14.998205,14.997988 0 0 1 0.226563,-0.234375 14.998205,14.997988 0 0 1 0.232422,-0.228516 14.998205,14.997988 0 0 1 0.236328,-0.222656 14.998205,14.997988 0 0 1 0.242187,-0.21875 14.998205,14.997988 0 0 1 0.246094,-0.212891 14.998205,14.997988 0 0 1 0.25,-0.207031 14.998205,14.997988 0 0 1 0.255859,-0.203125 14.998205,14.997988 0 0 1 0.259766,-0.195313 14.998205,14.997988 0 0 1 0.263672,-0.191406 14.998205,14.997988 0 0 1 0.267578,-0.185547 14.998205,14.997988 0 0 1 0.271484,-0.179687 14.998205,14.997988 0 0 1 0.275391,-0.171875 14.998205,14.997988 0 0 1 0.28125,-0.167969 14.998205,14.997988 0 0 1 0.28125,-0.162109 14.998205,14.997988 0 0 1 0.287109,-0.154297 14.998205,14.997988 0 0 1 0.289063,-0.148438 14.998205,14.997988 0 0 1 0.292969,-0.142578 14.998205,14.997988 0 0 1 0.296875,-0.136718 14.998205,14.997988 0 0 1 0.298828,-0.128907 14.998205,14.997988 0 0 1 0.300781,-0.123047 14.998205,14.997988 0 0 1 0.304687,-0.117187 14.998205,14.997988 0 0 1 0.306641,-0.109375 14.998205,14.997988 0 0 1 0.308594,-0.103516 14.998205,14.997988 0 0 1 0.310547,-0.0957 14.998205,14.997988 0 0 1 0.314453,-0.08984 14.998205,14.997988 0 0 1 0.314453,-0.08203 14.998205,14.997988 0 0 1 0.316406,-0.07617 14.998205,14.997988 0 0 1 0.31836,-0.07031 14.998205,14.997988 0 0 1 0.320312,-0.06055 14.998205,14.997988 0 0 1 0.320313,-0.05664 14.998205,14.997988 0 0 1 0.322265,-0.04687 14.998205,14.997988 0 0 1 0.322266,-0.04102 14.998205,14.997988 0 0 1 0.324219,-0.03516 14.998205,14.997988 0 0 1 0.324218,-0.02734 14.998205,14.997988 0 0 1 0.326172,-0.01953 14.998205,14.997988 0 0 1 0.324219,-0.01367 14.998205,14.997988 0 0 1 0.326172,-0.0059 z"
         transform="matrix(0.26458333,0,0,0.26458333,22.22494,0)" />
      <path
         id="viseme_e"
         style="fill:#50008e;fill-opacity:1;stroke:none;stroke-width:0.589422;stroke-linecap:round;stroke-linejoin:miter;stroke-miterlimit:4;stroke-dasharray:none;stroke-opacity:1;paint-order:stroke fill markers;filter:url(#filter975)"
         d="M 20.798828,87.001953 A 19.998271,19.99825 0 0 0 1.0019531,107 19.998271,19.99825 0 0 0 21,126.99805 19.998271,19.99825 0 0 0 40.998047,107 19.998271,19.99825 0 0 0 21,87.001953 a 19.998271,19.99825 0 0 0 -0.201172,0 z m 0.08984,5 a 14.998205,14.997988 0 0 1 0.111328,0 14.998205,14.997988 0 0 1 0.326172,0.0039 14.998205,14.997988 0 0 1 0.324219,0.0098 14.998205,14.997988 0 0 1 0.326171,0.01758 14.998205,14.997988 0 0 1 0.324219,0.02539 14.998205,14.997988 0 0 1 0.324219,0.03125 14.998205,14.997988 0 0 1 0.324219,0.03906 14.998205,14.997988 0 0 1 0.322265,0.04687 14.998205,14.997988 0 0 1 0.320313,0.05273 14.998205,14.997988 0 0 1 0.320312,0.05859 14.998205,14.997988 0 0 1 0.31836,0.06641 14.998205,14.997988 0 0 1 0.318359,0.07422 14.998205,14.997988 0 0 1 0.314453,0.08008 14.998205,14.997988 0 0 1 0.314453,0.08789 14.998205,14.997988 0 0 1 0.3125,0.09375 14.998205,14.997988 0 0 1 0.308594,0.101563 14.998205,14.997988 0 0 1 0.306641,0.107422 14.998205,14.997988 0 0 1 0.30664,0.113281 14.998205,14.997988 0 0 1 0.300782,0.121093 14.998205,14.997988 0 0 1 0.300781,0.126954 14.998205,14.997988 0 0 1 0.296875,0.134765 14.998205,14.997988 0 0 1 0.292969,0.140625 14.998205,14.997988 0 0 1 0.291015,0.146485 14.998205,14.997988 0 0 1 0.289063,0.152343 14.998205,14.997988 0 0 1 0.283203,0.158204 14.998205,14.997988 0 0 1 0.28125,0.166015 14.998205,14.997988 0 0 1 0.277344,0.171875 14.998205,14.997988 0 0 1 0.271484,0.175781 14.998205,14.997988 0 0 1 0.269531,0.183594 14.998205,14.997988 0 0 1 0.265625,0.189453 14.998205,14.997988 0 0 1 0.261719,0.19336 14.998205,14.997988 0 0 1 0.255859,0.201172 14.998205,14.997988 0 0 1 0.253907,0.205078 14.998205,14.997988 0 0 1 0.246093,0.210937 14.998205,14.997988 0 0 1 0.244141,0.216797 14.998205,14.997988 0 0 1 0.238281,0.222656 14.998205,14.997988 0 0 1 0.234375,0.226563 14.998205,14.997988 0 0 1 0.228516,0.232422 14.998205,14.997988 0 0 1 0.222656,0.236328 14.998205,14.997988 0 0 1 0.21875,0.242187 14.998205,14.997988 0 0 1 0.212891,0.246094 14.998205,14.997988 0 0 1 0.207031,0.25 14.998205,14.997988 0 0 1 0.203125,0.255859 14.998205,14.997988 0 0 1 0.197266,0.259766 14.998205,14.997988 0 0 1 0.189453,0.263672 14.998205,14.997988 0 0 1 0.185547,0.267578 14.998205,14.997988 0 0 1 0.179687,0.271484 14.998205,14.997988 0 0 1 0.173828,0.275391 14.998205,14.997988 0 0 1 0.166016,0.28125 14.998205,14.997988 0 0 1 0.162109,0.28125 14.998205,14.997988 0 0 1 0.154297,0.28711 14.998205,14.997988 0 0 1 0.148438,0.28906 14.998205,14.997988 0 0 1 0.142578,0.29297 14.998205,14.997988 0 0 1 0.136718,0.29688 14.998205,14.997988 0 0 1 0.128907,0.29882 14.998205,14.997988 0 0 1 0.123047,0.30079 14.998205,14.997988 0 0 1 0.117187,0.30468 14.998205,14.997988 0 0 1 0.109375,0.30664 14.998205,14.997988 0 0 1 0.103516,0.3086 14.998205,14.997988 0 0 1 0.0957,0.31054 14.998205,14.997988 0 0 1 0.08984,0.31446 14.998205,14.997988 0 0 1 0.08203,0.31445 14.998205,14.997988 0 0 1 0.07617,0.31641 14.998205,14.997988 0 0 1 0.07031,0.31836 14.998205,14.997988 0 0 1 0.06055,0.32031 14.998205,14.997988 0 0 1 0.05664,0.32031 14.998205,14.997988 0 0 1 0.04687,0.32227 14.998205,14.997988 0 0 1 0.04102,0.32226 14.998205,14.997988 0 0 1 0.03516,0.32422 14.998205,14.997988 0 0 1 0.02734,0.32422 14.998205,14.997988 0 0 1 0.01953,0.32617 14.998205,14.997988 0 0 1 0.01367,0.32422 14.998205,14.997988 0 0 1 0.0059,0.32617 14.998205,14.997988 0 0 1 0,0.11133 14.998205,14.997988 0 0 1 -0.0039,0.32617 14.998205,14.997988 0 0 1 -0.0098,0.32422 14.998205,14.997988 0 0 1 -0.01758,0.32617 14.998205,14.997988 0 0 1 -0.02539,0.32422 14.998205,14.997988 0 0 1 -0.03125,0.32422 14.998205,14.997988 0 0 1 -0.03906,0.32422 14.998205,14.997988 0 0 1 -0.04492,0.32226 14.998205,14.997988 0 0 1 -0.05273,0.32032 14.998205,14.997988 0 0 1 -0.06055,0.32031 14.998205,14.997988 0 0 1 -0.06641,0.31836 14.998205,14.997988 0 0 1 -0.07422,0.31836 14.998205,14.997988 0 0 1 -0.08008,0.31445 14.998205,14.997988 0 0 1 -0.08789,0.31445 14.998205,14.997988 0 0 1 -0.09375,0.31055 14.998205,14.997988 0 0 1 -0.101563,0.31055 14.998205,14.997988 0 0 1 -0.107422,0.30664 14.998205,14.997988 0 0 1 -0.113281,0.30664 14.998205,14.997988 0 0 1 -0.121093,0.30078 14.998205,14.997988 0 0 1 -0.126954,0.30078 14.998205,14.997988 0 0 1 -0.134765,0.29688 14.998205,14.997988 0 0 1 -0.138672,0.29297 14.998205,14.997988 0 0 1 -0.148438,0.29101 14.998205,14.997988 0 0 1 -0.152343,0.28711 14.998205,14.997988 0 0 1 -0.158204,0.28516 14.998205,14.997988 0 0 1 -0.166015,0.28125 14.998205,14.997988 0 0 1 -0.169922,0.27539 14.998205,14.997988 0 0 1 -0.177734,0.27344 14.998205,14.997988 0 0 1 -0.183594,0.26953 14.998205,14.997988 0 0 1 -0.189453,0.26562 14.998205,14.997988 0 0 1 -0.19336,0.26172 14.998205,14.997988 0 0 1 -0.201172,0.25586 14.998205,14.997988 0 0 1 -0.205078,0.25195 14.998205,14.997988 0 0 1 -0.210937,0.24805 14.998205,14.997988 0 0 1 -0.216797,0.24414 14.998205,14.997988 0 0 1 -0.222656,0.23828 14.998205,14.997988 0 0 1 -0.226563,0.23438 14.998205,14.997988 0 0 1 -0.232422,0.22851 14.998205,14.997988 0 0 1 -0.236328,0.22266 14.998205,14.997988 0 0 1 -0.242187,0.21875 14.998205,14.997988 0 0 1 -0.246094,0.21289 14.998205,14.997988 0 0 1 -0.25,0.20703 14.998205,14.997988 0 0 1 -0.255859,0.20313 14.998205,14.997988 0 0 1 -0.259766,0.19531 14.998205,14.997988 0 0 1 -0.263672,0.1914 14.998205,14.997988 0 0 1 -0.267578,0.18555 14.998205,14.997988 0 0 1 -0.271484,0.17969 14.998205,14.997988 0 0 1 -0.275391,0.17187 14.998205,14.997988 0 0 1 -0.28125,0.16797 14.998205,14.997988 0 0 1 -0.28125,0.16211 14.998205,14.997988 0 0 1 -0.287109,0.1543 14.998205,14.997988 0 0 1 -0.289063,0.14844 14.998205,14.997988 0 0 1 -0.292969,0.14257 14.998205,14.997988 0 0 1 -0.296875,0.13672 14.998205,14.997988 0 0 1 -0.298828,0.12891 14.998205,14.997988 0 0 1 -0.300781,0.12305 14.998205,14.997988 0 0 1 -0.304687,0.11718 14.998205,14.997988 0 0 1 -0.306641,0.10938 14.998205,14.997988 0 0 1 -0.308594,0.10351 14.998205,14.997988 0 0 1 -0.310547,0.0957 14.998205,14.997988 0 0 1 -0.314453,0.0898 14.998205,14.997988 0 0 1 -0.314453,0.082 14.998205,14.997988 0 0 1 -0.316406,0.0762 14.998205,14.997988 0 0 1 -0.31836,0.0684 14.998205,14.997988 0 0 1 -0.320312,0.0625 14.998205,14.997988 0 0 1 -0.320313,0.0566 14.998205,14.997988 0 0 1 -0.322265,0.0469 14.998205,14.997988 0 0 1 -0.322266,0.041 14.998205,14.997988 0 0 1 -0.324219,0.0352 14.998205,14.997988 0 0 1 -0.324218,0.0273 14.998205,14.997988 0 0 1 -0.326172,0.0195 14.998205,14.997988 0 0 1 -0.324219,0.0137 14.998205,14.997988 0 0 1 -0.326172,0.006 14.998205,14.997988 0 0 1 -0.111328,0 14.998205,14.997988 0 0 1 -0.326172,-0.004 14.998205,14.997988 0 0 1 -0.324219,-0.01 14.998205,14.997988 0 0 1 -0.326171,-0.0176 14.998205,14.997988 0 0 1 -0.324219,-0.0254 14.998205,14.997988 0 0 1 -0.324219,-0.0312 14.998205,14.997988 0 0 1 -0.324219,-0.0391 14.998205,14.997988 0 0 1 -0.322265,-0.0469 14.998205,14.997988 0 0 1 -0.320313,-0.0527 14.998205,14.997988 0 0 1 -0.320312,-0.0586 14.998205,14.997988 0 0 1 -0.31836,-0.0664 14.998205,14.997988 0 0 1 -0.318359,-0.0742 14.998205,14.997988 0 0 1 -0.314453,-0.0801 14.998205,14.997988 0 0 1 -0.314453,-0.0879 14.998205,14.997988 0 0 1 -0.3125,-0.0937 14.998205,14.997988 0 0 1 -0.308594,-0.10157 14.998205,14.997988 0 0 1 -0.306641,-0.10742 14.998205,14.997988 0 0 1 -0.30664,-0.11328 14.998205,14.997988 0 0 1 -0.300782,-0.12109 14.998205,14.997988 0 0 1 -0.300781,-0.12696 14.998205,14.997988 0 0 1 -0.296875,-0.13476 14.998205,14.997988 0 0 1 -0.292969,-0.14063 14.998205,14.997988 0 0 1 -0.291015,-0.14648 14.998205,14.997988 0 0 1 -0.289063,-0.15234 14.998205,14.997988 0 0 1 -0.283203,-0.15821 14.998205,14.997988 0 0 1 -0.28125,-0.16601 14.998205,14.997988 0 0 1 -0.277344,-0.17188 14.998205,14.997988 0 0 1 -0.271484,-0.17578 14.998205,14.997988 0 0 1 -0.269531,-0.18359 14.998205,14.997988 0 0 1 -0.265625,-0.18946 14.998205,14.997988 0 0 1 -0.261719,-0.19336 14.998205,14.997988 0 0 1 -0.255859,-0.20117 14.998205,14.997988 0 0 1 -0.253907,-0.20508 14.998205,14.997988 0 0 1 -0.246093,-0.21093 14.998205,14.997988 0 0 1 -0.244141,-0.2168 14.998205,14.997988 0 0 1 -0.238281,-0.22266 14.998205,14.997988 0 0 1 -0.234375,-0.22656 14.998205,14.997988 0 0 1 -0.228516,-0.23242 14.998205,14.997988 0 0 1 -0.2226561,-0.23633 14.998205,14.997988 0 0 1 -0.21875,-0.24219 14.998205,14.997988 0 0 1 -0.2128907,-0.24609 14.998205,14.997988 0 0 1 -0.2070312,-0.25 14.998205,14.997988 0 0 1 -0.203125,-0.25586 14.998205,14.997988 0 0 1 -0.1972656,-0.25976 14.998205,14.997988 0 0 1 -0.1894532,-0.26368 14.998205,14.997988 0 0 1 -0.1855468,-0.26758 14.998205,14.997988 0 0 1 -0.1796875,-0.27148 14.998205,14.997988 0 0 1 -0.1738281,-0.27734 14.998205,14.997988 0 0 1 -0.1660157,-0.2793 14.998205,14.997988 0 0 1 -0.1621093,-0.28125 14.998205,14.997988 0 0 1 -0.1542969,-0.28711 14.998205,14.997988 0 0 1 -0.1484375,-0.28906 14.998205,14.997988 0 0 1 -0.1425782,-0.29297 14.998205,14.997988 0 0 1 -0.1367187,-0.29688 14.998205,14.997988 0 0 1 -0.1289063,-0.29882 14.998205,14.997988 0 0 1 -0.1230468,-0.30079 14.998205,14.997988 0 0 1 -0.1171875,-0.30468 14.998205,14.997988 0 0 1 -0.109375,-0.30664 14.998205,14.997988 0 0 1 -0.1035157,-0.3086 14.998205,14.997988 0 0 1 -0.095703,-0.31054 14.998205,14.997988 0 0 1 -0.089844,-0.31446 14.998205,14.997988 0 0 1 -0.082031,-0.31445 14.998205,14.997988 0 0 1 -0.076172,-0.31641 14.998205,14.997988 0 0 1 -0.070312,-0.31836 14.998205,14.997988 0 0 1 -0.060547,-0.32031 14.998205,14.997988 0 0 1 -0.056641,-0.32031 14.998205,14.997988 0 0 1 -0.046875,-0.32227 14.998205,14.997988 0 0 1 -0.041016,-0.32226 14.998205,14.997988 0 0 1 -0.035156,-0.32422 14.998205,14.997988 0 0 1 -0.027344,-0.32422 14.998205,14.997988 0 0 1 -0.019531,-0.32617 14.998205,14.997988 0 0 1 -0.013672,-0.32422 14.998205,14.997988 0 0 1 -0.00586,-0.32617 14.998205,14.997988 0 0 1 0,-0.11133 14.998205,14.997988 0 0 1 0.00391,-0.32617 14.998205,14.997988 0 0 1 0.00977,-0.32422 14.998205,14.997988 0 0 1 0.017578,-0.32617 14.998205,14.997988 0 0 1 0.025391,-0.32422 14.998205,14.997988 0 0 1 0.03125,-0.32422 14.998205,14.997988 0 0 1 0.039062,-0.32422 14.998205,14.997988 0 0 1 0.044922,-0.32226 14.998205,14.997988 0 0 1 0.052734,-0.32032 14.998205,14.997988 0 0 1 0.060547,-0.32031 14.998205,14.997988 0 0 1 0.066406,-0.31836 14.998205,14.997988 0 0 1 0.074219,-0.31836 14.998205,14.997988 0 0 1 0.080078,-0.31445 14.998205,14.997988 0 0 1 0.087891,-0.31445 14.998205,14.997988 0 0 1 0.09375,-0.3125 14.998205,14.997988 0 0 1 0.1015625,-0.3086 14.998205,14.997988 0 0 1 0.1074219,-0.30664 14.998205,14.997988 0 0 1 0.1132813,-0.30664 14.998205,14.997988 0 0 1 0.1210937,-0.30078 14.998205,14.997988 0 0 1 0.1269531,-0.30078 14.998205,14.997988 0 0 1 0.1347656,-0.29688 14.998205,14.997988 0 0 1 0.1386719,-0.29297 14.998205,14.997988 0 0 1 0.1484375,-0.29101 14.998205,14.997988 0 0 1 0.1523438,-0.287111 14.998205,14.997988 0 0 1 0.1582031,-0.285156 14.998205,14.997988 0 0 1 0.1660156,-0.28125 A 14.998205,14.997988 0 0 1 8.328125,98.976562 14.998205,14.997988 0 0 1 8.5058594,98.703125 14.998205,14.997988 0 0 1 8.6894531,98.433594 14.998205,14.997988 0 0 1 8.8789062,98.167969 14.998205,14.997988 0 0 1 9.0722656,97.90625 14.998205,14.997988 0 0 1 9.2734375,97.650391 14.998205,14.997988 0 0 1 9.4785156,97.398438 14.998205,14.997988 0 0 1 9.6894531,97.150391 14.998205,14.997988 0 0 1 9.90625,96.90625 a 14.998205,14.997988 0 0 1 0.222656,-0.238281 14.998205,14.997988 0 0 1 0.226563,-0.234375 14.998205,14.997988 0 0 1 0.232422,-0.228516 14.998205,14.997988 0 0 1 0.236328,-0.222656 14.998205,14.997988 0 0 1 0.242187,-0.21875 14.998205,14.997988 0 0 1 0.246094,-0.212891 14.998205,14.997988 0 0 1 0.25,-0.207031 14.998205,14.997988 0 0 1 0.255859,-0.203125 14.998205,14.997988 0 0 1 0.259766,-0.195313 14.998205,14.997988 0 0 1 0.263672,-0.191406 14.998205,14.997988 0 0 1 0.267578,-0.185547 14.998205,14.997988 0 0 1 0.271484,-0.179687 14.998205,14.997988 0 0 1 0.275391,-0.171875 14.998205,14.997988 0 0 1 0.28125,-0.167969 14.998205,14.997988 0 0 1 0.28125,-0.162109 14.998205,14.997988 0 0 1 0.287109,-0.154297 14.998205,14.997988 0 0 1 0.289063,-0.148438 14.998205,14.997988 0 0 1 0.292969,-0.142578 14.998205,14.997988 0 0 1 0.296875,-0.136718 14.998205,14.997988 0 0 1 0.298828,-0.128907 14.998205,14.997988 0 0 1 0.300781,-0.123047 14.998205,14.997988 0 0 1 0.304687,-0.117187 14.998205,14.997988 0 0 1 0.306641,-0.109375 14.998205,14.997988 0 0 1 0.308594,-0.103516 14.998205,14.997988 0 0 1 0.310547,-0.0957 14.998205,14.997988 0 0 1 0.314453,-0.08984 14.998205,14.997988 0 0 1 0.314453,-0.08203 14.998205,14.997988 0 0 1 0.316406,-0.07617 14.998205,14.997988 0 0 1 0.31836,-0.07031 14.998205,14.997988 0 0 1 0.320312,-0.06055 14.998205,14.997988 0 0 1 0.320313,-0.05664 14.998205,14.997988 0 0 1 0.322265,-0.04687 14.998205,14.997988 0 0 1 0.322266,-0.04102 14.998205,14.997988 0 0 1 0.324219,-0.03516 14.998205,14.997988 0 0 1 0.324218,-0.02734 14.998205,14.997988 0 0 1 0.326172,-0.01953 14.998205,14.997988 0 0 1 0.324219,-0.01367 14.998205,14.997988 0 0 1 0.326172,-0.0059 z"
         transform="matrix(0.26458333,0,0,0.26458333,-5.9599938e-5,-11.112493)" />
      <path
         id="viseme_o"
         style="fill:#4dd900;fill-opacity:1;stroke:none;stroke-width:0.589422;stroke-linecap:round;stroke-linejoin:miter;stroke-miterlimit:4;stroke-dasharray:none;stroke-opacity:1;paint-order:stroke fill markers;filter:url(#filter975)"
         d="M 20.798828,87.001953 A 19.998271,19.99825 0 0 0 1.0019531,107 19.998271,19.99825 0 0 0 21,126.99805 19.998271,19.99825 0 0 0 40.998047,107 19.998271,19.99825 0 0 0 21,87.001953 a 19.998271,19.99825 0 0 0 -0.201172,0 z m 0.08984,5 a 14.998205,14.997988 0 0 1 0.111328,0 14.998205,14.997988 0 0 1 0.326172,0.0039 14.998205,14.997988 0 0 1 0.324219,0.0098 14.998205,14.997988 0 0 1 0.326171,0.01758 14.998205,14.997988 0 0 1 0.324219,0.02539 14.998205,14.997988 0 0 1 0.324219,0.03125 14.998205,14.997988 0 0 1 0.324219,0.03906 14.998205,14.997988 0 0 1 0.322265,0.04687 14.998205,14.997988 0 0 1 0.320313,0.05273 14.998205,14.997988 0 0 1 0.320312,0.05859 14.998205,14.997988 0 0 1 0.31836,0.06641 14.998205,14.997988 0 0 1 0.318359,0.07422 14.998205,14.997988 0 0 1 0.314453,0.08008 14.998205,14.997988 0 0 1 0.314453,0.08789 14.998205,14.997988 0 0 1 0.3125,0.09375 14.998205,14.997988 0 0 1 0.308594,0.101563 14.998205,14.997988 0 0 1 0.306641,0.107422 14.998205,14.997988 0 0 1 0.30664,0.113281 14.998205,14.997988 0 0 1 0.300782,0.121093 14.998205,14.997988 0 0 1 0.300781,0.126954 14.998205,14.997988 0 0 1 0.296875,0.134765 14.998205,14.997988 0 0 1 0.292969,0.140625 14.998205,14.997988 0 0 1 0.291015,0.146485 14.998205,14.997988 0 0 1 0.289063,0.152343 14.998205,14.997988 0 0 1 0.283203,0.158204 14.998205,14.997988 0 0 1 0.28125,0.166015 14.998205,14.997988 0 0 1 0.277344,0.171875 14.998205,14.997988 0 0 1 0.271484,0.175781 14.998205,14.997988 0 0 1 0.269531,0.183594 14.998205,14.997988 0 0 1 0.265625,0.189453 14.998205,14.997988 0 0 1 0.261719,0.19336 14.998205,14.997988 0 0 1 0.255859,0.201172 14.998205,14.997988 0 0 1 0.253907,0.205078 14.998205,14.997988 0 0 1 0.246093,0.210937 14.998205,14.997988 0 0 1 0.244141,0.216797 14.998205,14.997988 0 0 1 0.238281,0.222656 14.998205,14.997988 0 0 1 0.234375,0.226563 14.998205,14.997988 0 0 1 0.228516,0.232422 14.998205,14.997988 0 0 1 0.222656,0.236328 14.998205,14.997988 0 0 1 0.21875,0.242187 14.998205,14.997988 0 0 1 0.212891,0.246094 14.998205,14.997988 0 0 1 0.207031,0.25 14.998205,14.997988 0 0 1 0.203125,0.255859 14.998205,14.997988 0 0 1 0.197266,0.259766 14.998205,14.997988 0 0 1 0.189453,0.263672 14.998205,14.997988 0 0 1 0.185547,0.267578 14.998205,14.997988 0 0 1 0.179687,0.271484 14.998205,14.997988 0 0 1 0.173828,0.275391 14.998205,14.997988 0 0 1 0.166016,0.28125 14.998205,14.997988 0 0 1 0.162109,0.28125 14.998205,14.997988 0 0 1 0.154297,0.28711 14.998205,14.997988 0 0 1 0.148438,0.28906 14.998205,14.997988 0 0 1 0.142578,0.29297 14.998205,14.997988 0 0 1 0.136718,0.29688 14.998205,14.997988 0 0 1 0.128907,0.29882 14.998205,14.997988 0 0 1 0.123047,0.30079 14.998205,14.997988 0 0 1 0.117187,0.30468 14.998205,14.997988 0 0 1 0.109375,0.30664 14.998205,14.997988 0 0 1 0.103516,0.3086 14.998205,14.997988 0 0 1 0.0957,0.31054 14.998205,14.997988 0 0 1 0.08984,0.31446 14.998205,14.997988 0 0 1 0.08203,0.31445 14.998205,14.997988 0 0 1 0.07617,0.31641 14.998205,14.997988 0 0 1 0.07031,0.31836 14.998205,14.997988 0 0 1 0.06055,0.32031 14.998205,14.997988 0 0 1 0.05664,0.32031 14.998205,14.997988 0 0 1 0.04687,0.32227 14.998205,14.997988 0 0 1 0.04102,0.32226 14.998205,14.997988 0 0 1 0.03516,0.32422 14.998205,14.997988 0 0 1 0.02734,0.32422 14.998205,14.997988 0 0 1 0.01953,0.32617 14.998205,14.997988 0 0 1 0.01367,0.32422 14.998205,14.997988 0 0 1 0.0059,0.32617 14.998205,14.997988 0 0 1 0,0.11133 14.998205,14.997988 0 0 1 -0.0039,0.32617 14.998205,14.997988 0 0 1 -0.0098,0.32422 14.998205,14.997988 0 0 1 -0.01758,0.32617 14.998205,14.997988 0 0 1 -0.02539,0.32422 14.998205,14.997988 0 0 1 -0.03125,0.32422 14.998205,14.997988 0 0 1 -0.03906,0.32422 14.998205,14.997988 0 0 1 -0.04492,0.32226 14.998205,14.997988 0 0 1 -0.05273,0.32032 14.998205,14.997988 0 0 1 -0.06055,0.32031 14.998205,14.997988 0 0 1 -0.06641,0.31836 14.998205,14.997988 0 0 1 -0.07422,0.31836 14.998205,14.997988 0 0 1 -0.08008,0.31445 14.998205,14.997988 0 0 1 -0.08789,0.31445 14.998205,14.997988 0 0 1 -0.09375,0.31055 14.998205,14.997988 0 0 1 -0.101563,0.31055 14.998205,14.997988 0 0 1 -0.107422,0.30664 14.998205,14.997988 0 0 1 -0.113281,0.30664 14.998205,14.997988 0 0 1 -0.121093,0.30078 14.998205,14.997988 0 0 1 -0.126954,0.30078 14.998205,14.997988 0 0 1 -0.134765,0.29688 14.998205,14.997988 0 0 1 -0.138672,0.29297 14.998205,14.997988 0 0 1 -0.148438,0.29101 14.998205,14.997988 0 0 1 -0.152343,0.28711 14.998205,14.997988 0 0 1 -0.158204,0.28516 14.998205,14.997988 0 0 1 -0.166015,0.28125 14.998205,14.997988 0 0 1 -0.169922,0.27539 14.998205,14.997988 0 0 1 -0.177734,0.27344 14.998205,14.997988 0 0 1 -0.183594,0.26953 14.998205,14.997988 0 0 1 -0.189453,0.26562 14.998205,14.997988 0 0 1 -0.19336,0.26172 14.998205,14.997988 0 0 1 -0.201172,0.25586 14.998205,14.997988 0 0 1 -0.205078,0.25195 14.998205,14.997988 0 0 1 -0.210937,0.24805 14.998205,14.997988 0 0 1 -0.216797,0.24414 14.998205,14.997988 0 0 1 -0.222656,0.23828 14.998205,14.997988 0 0 1 -0.226563,0.23438 14.998205,14.997988 0 0 1 -0.232422,0.22851 14.998205,14.997988 0 0 1 -0.236328,0.22266 14.998205,14.997988 0 0 1 -0.242187,0.21875 14.998205,14.997988 0 0 1 -0.246094,0.21289 14.998205,14.997988 0 0 1 -0.25,0.20703 14.998205,14.997988 0 0 1 -0.255859,0.20313 14.998205,14.997988 0 0 1 -0.259766,0.19531 14.998205,14.997988 0 0 1 -0.263672,0.1914 14.998205,14.997988 0 0 1 -0.267578,0.18555 14.998205,14.997988 0 0 1 -0.271484,0.17969 14.998205,14.997988 0 0 1 -0.275391,0.17187 14.998205,14.997988 0 0 1 -0.28125,0.16797 14.998205,14.997988 0 0 1 -0.28125,0.16211 14.998205,14.997988 0 0 1 -0.287109,0.1543 14.998205,14.997988 0 0 1 -0.289063,0.14844 14.998205,14.997988 0 0 1 -0.292969,0.14257 14.998205,14.997988 0 0 1 -0.296875,0.13672 14.998205,14.997988 0 0 1 -0.298828,0.12891 14.998205,14.997988 0 0 1 -0.300781,0.12305 14.998205,14.997988 0 0 1 -0.304687,0.11718 14.998205,14.997988 0 0 1 -0.306641,0.10938 14.998205,14.997988 0 0 1 -0.308594,0.10351 14.998205,14.997988 0 0 1 -0.310547,0.0957 14.998205,14.997988 0 0 1 -0.314453,0.0898 14.998205,14.997988 0 0 1 -0.314453,0.082 14.998205,14.997988 0 0 1 -0.316406,0.0762 14.998205,14.997988 0 0 1 -0.31836,0.0684 14.998205,14.997988 0 0 1 -0.320312,0.0625 14.998205,14.997988 0 0 1 -0.320313,0.0566 14.998205,14.997988 0 0 1 -0.322265,0.0469 14.998205,14.997988 0 0 1 -0.322266,0.041 14.998205,14.997988 0 0 1 -0.324219,0.0352 14.998205,14.997988 0 0 1 -0.324218,0.0273 14.998205,14.997988 0 0 1 -0.326172,0.0195 14.998205,14.997988 0 0 1 -0.324219,0.0137 14.998205,14.997988 0 0 1 -0.326172,0.006 14.998205,14.997988 0 0 1 -0.111328,0 14.998205,14.997988 0 0 1 -0.326172,-0.004 14.998205,14.997988 0 0 1 -0.324219,-0.01 14.998205,14.997988 0 0 1 -0.326171,-0.0176 14.998205,14.997988 0 0 1 -0.324219,-0.0254 14.998205,14.997988 0 0 1 -0.324219,-0.0312 14.998205,14.997988 0 0 1 -0.324219,-0.0391 14.998205,14.997988 0 0 1 -0.322265,-0.0469 14.998205,14.997988 0 0 1 -0.320313,-0.0527 14.998205,14.997988 0 0 1 -0.320312,-0.0586 14.998205,14.997988 0 0 1 -0.31836,-0.0664 14.998205,14.997988 0 0 1 -0.318359,-0.0742 14.998205,14.997988 0 0 1 -0.314453,-0.0801 14.998205,14.997988 0 0 1 -0.314453,-0.0879 14.998205,14.997988 0 0 1 -0.3125,-0.0937 14.998205,14.997988 0 0 1 -0.308594,-0.10157 14.998205,14.997988 0 0 1 -0.306641,-0.10742 14.998205,14.997988 0 0 1 -0.30664,-0.11328 14.998205,14.997988 0 0 1 -0.300782,-0.12109 14.998205,14.997988 0 0 1 -0.300781,-0.12696 14.998205,14.997988 0 0 1 -0.296875,-0.13476 14.998205,14.997988 0 0 1 -0.292969,-0.14063 14.998205,14.997988 0 0 1 -0.291015,-0.14648 14.998205,14.997988 0 0 1 -0.289063,-0.15234 14.998205,14.997988 0 0 1 -0.283203,-0.15821 14.998205,14.997988 0 0 1 -0.28125,-0.16601 14.998205,14.997988 0 0 1 -0.277344,-0.17188 14.998205,14.997988 0 0 1 -0.271484,-0.17578 14.998205,14.997988 0 0 1 -0.269531,-0.18359 14.998205,14.997988 0 0 1 -0.265625,-0.18946 14.998205,14.997988 0 0 1 -0.261719,-0.19336 14.998205,14.997988 0 0 1 -0.255859,-0.20117 14.998205,14.997988 0 0 1 -0.253907,-0.20508 14.998205,14.997988 0 0 1 -0.246093,-0.21093 14.998205,14.997988 0 0 1 -0.244141,-0.2168 14.998205,14.997988 0 0 1 -0.238281,-0.22266 14.998205,14.997988 0 0 1 -0.234375,-0.22656 14.998205,14.997988 0 0 1 -0.228516,-0.23242 14.998205,14.997988 0 0 1 -0.2226561,-0.23633 14.998205,14.997988 0 0 1 -0.21875,-0.24219 14.998205,14.997988 0 0 1 -0.2128907,-0.24609 14.998205,14.997988 0 0 1 -0.2070312,-0.25 14.998205,14.997988 0 0 1 -0.203125,-0.25586 14.998205,14.997988 0 0 1 -0.1972656,-0.25976 14.998205,14.997988 0 0 1 -0.1894532,-0.26368 14.998205,14.997988 0 0 1 -0.1855468,-0.26758 14.998205,14.997988 0 0 1 -0.1796875,-0.27148 14.998205,14.997988 0 0 1 -0.1738281,-0.27734 14.998205,14.997988 0 0 1 -0.1660157,-0.2793 14.998205,14.997988 0 0 1 -0.1621093,-0.28125 14.998205,14.997988 0 0 1 -0.1542969,-0.28711 14.998205,14.997988 0 0 1 -0.1484375,-0.28906 14.998205,14.997988 0 0 1 -0.1425782,-0.29297 14.998205,14.997988 0 0 1 -0.1367187,-0.29688 14.998205,14.997988 0 0 1 -0.1289063,-0.29882 14.998205,14.997988 0 0 1 -0.1230468,-0.30079 14.998205,14.997988 0 0 1 -0.1171875,-0.30468 14.998205,14.997988 0 0 1 -0.109375,-0.30664 14.998205,14.997988 0 0 1 -0.1035157,-0.3086 14.998205,14.997988 0 0 1 -0.095703,-0.31054 14.998205,14.997988 0 0 1 -0.089844,-0.31446 14.998205,14.997988 0 0 1 -0.082031,-0.31445 14.998205,14.997988 0 0 1 -0.076172,-0.31641 14.998205,14.997988 0 0 1 -0.070312,-0.31836 14.998205,14.997988 0 0 1 -0.060547,-0.32031 14.998205,14.997988 0 0 1 -0.056641,-0.32031 14.998205,14.997988 0 0 1 -0.046875,-0.32227 14.998205,14.997988 0 0 1 -0.041016,-0.32226 14.998205,14.997988 0 0 1 -0.035156,-0.32422 14.998205,14.997988 0 0 1 -0.027344,-0.32422 14.998205,14.997988 0 0 1 -0.019531,-0.32617 14.998205,14.997988 0 0 1 -0.013672,-0.32422 14.998205,14.997988 0 0 1 -0.00586,-0.32617 14.998205,14.997988 0 0 1 0,-0.11133 14.998205,14.997988 0 0 1 0.00391,-0.32617 14.998205,14.997988 0 0 1 0.00977,-0.32422 14.998205,14.997988 0 0 1 0.017578,-0.32617 14.998205,14.997988 0 0 1 0.025391,-0.32422 14.998205,14.997988 0 0 1 0.03125,-0.32422 14.998205,14.997988 0 0 1 0.039062,-0.32422 14.998205,14.997988 0 0 1 0.044922,-0.32226 14.998205,14.997988 0 0 1 0.052734,-0.32032 14.998205,14.997988 0 0 1 0.060547,-0.32031 14.998205,14.997988 0 0 1 0.066406,-0.31836 14.998205,14.997988 0 0 1 0.074219,-0.31836 14.998205,14.997988 0 0 1 0.080078,-0.31445 14.998205,14.997988 0 0 1 0.087891,-0.31445 14.998205,14.997988 0 0 1 0.09375,-0.3125 14.998205,14.997988 0 0 1 0.1015625,-0.3086 14.998205,14.997988 0 0 1 0.1074219,-0.30664 14.998205,14.997988 0 0 1 0.1132813,-0.30664 14.998205,14.997988 0 0 1 0.1210937,-0.30078 14.998205,14.997988 0 0 1 0.1269531,-0.30078 14.998205,14.997988 0 0 1 0.1347656,-0.29688 14.998205,14.997988 0 0 1 0.1386719,-0.29297 14.998205,14.997988 0 0 1 0.1484375,-0.29101 14.998205,14.997988 0 0 1 0.1523438,-0.287111 14.998205,14.997988 0 0 1 0.1582031,-0.285156 14.998205,14.997988 0 0 1 0.1660156,-0.28125 A 14.998205,14.997988 0 0 1 8.328125,98.976562 14.998205,14.997988 0 0 1 8.5058594,98.703125 14.998205,14.997988 0 0 1 8.6894531,98.433594 14.998205,14.997988 0 0 1 8.8789062,98.167969 14.998205,14.997988 0 0 1 9.0722656,97.90625 14.998205,14.997988 0 0 1 9.2734375,97.650391 14.998205,14.997988 0 0 1 9.4785156,97.398438 14.998205,14.997988 0 0 1 9.6894531,97.150391 14.998205,14.997988 0 0 1 9.90625,96.90625 a 14.998205,14.997988 0 0 1 0.222656,-0.238281 14.998205,14.997988 0 0 1 0.226563,-0.234375 14.998205,14.997988 0 0 1 0.232422,-0.228516 14.998205,14.997988 0 0 1 0.236328,-0.222656 14.998205,14.997988 0 0 1 0.242187,-0.21875 14.998205,14.997988 0 0 1 0.246094,-0.212891 14.998205,14.997988 0 0 1 0.25,-0.207031 14.998205,14.997988 0 0 1 0.255859,-0.203125 14.998205,14.997988 0 0 1 0.259766,-0.195313 14.998205,14.997988 0 0 1 0.263672,-0.191406 14.998205,14.997988 0 0 1 0.267578,-0.185547 14.998205,14.997988 0 0 1 0.271484,-0.179687 14.998205,14.997988 0 0 1 0.275391,-0.171875 14.998205,14.997988 0 0 1 0.28125,-0.167969 14.998205,14.997988 0 0 1 0.28125,-0.162109 14.998205,14.997988 0 0 1 0.287109,-0.154297 14.998205,14.997988 0 0 1 0.289063,-0.148438 14.998205,14.997988 0 0 1 0.292969,-0.142578 14.998205,14.997988 0 0 1 0.296875,-0.136718 14.998205,14.997988 0 0 1 0.298828,-0.128907 14.998205,14.997988 0 0 1 0.300781,-0.123047 14.998205,14.997988 0 0 1 0.304687,-0.117187 14.998205,14.997988 0 0 1 0.306641,-0.109375 14.998205,14.997988 0 0 1 0.308594,-0.103516 14.998205,14.997988 0 0 1 0.310547,-0.0957 14.998205,14.997988 0 0 1 0.314453,-0.08984 14.998205,14.997988 0 0 1 0.314453,-0.08203 14.998205,14.997988 0 0 1 0.316406,-0.07617 14.998205,14.997988 0 0 1 0.31836,-0.07031 14.998205,14.997988 0 0 1 0.320312,-0.06055 14.998205,14.997988 0 0 1 0.320313,-0.05664 14.998205,14.997988 0 0 1 0.322265,-0.04687 14.998205,14.997988 0 0 1 0.322266,-0.04102 14.998205,14.997988 0 0 1 0.324219,-0.03516 14.998205,14.997988 0 0 1 0.324218,-0.02734 14.998205,14.997988 0 0 1 0.326172,-0.01953 14.998205,14.997988 0 0 1 0.324219,-0.01367 14.998205,14.997988 0 0 1 0.326172,-0.0059 z"
         transform="matrix(0.26458333,0,0,0.26458333,11.11244,-11.112493)" />
    </g>
  </g>
</svg>
