<?xml version="1.0" encoding="UTF-8" standalone="no"?>
<svg
   width="128"
   height="128"
   viewBox="0 0 33.866665 33.866667"
   version="1.1"
   id="svg8"
   inkscape:version="1.1 (c68e22c387, 2021-05-23)"
   sodipodi:docname=")o-hands-tex.svg"
   inkscape:export-filename=")o-hands-tex.png"
   inkscape:export-xdpi="96"
   inkscape:export-ydpi="96"
   xmlns:inkscape="http://www.inkscape.org/namespaces/inkscape"
   xmlns:sodipodi="http://sodipodi.sourceforge.net/DTD/sodipodi-0.dtd"
   xmlns:xlink="http://www.w3.org/1999/xlink"
   xmlns="http://www.w3.org/2000/svg"
   xmlns:svg="http://www.w3.org/2000/svg"
   xmlns:rdf="http://www.w3.org/1999/02/22-rdf-syntax-ns#">
  <defs
     id="defs2">
    <linearGradient
       inkscape:collect="always"
       id="linearGradient32199">
      <stop
         style="stop-color:#e7e7e7;stop-opacity:1"
         offset="0"
         id="stop32195" />
      <stop
         style="stop-color:#ed334e;stop-opacity:1"
         offset="1"
         id="stop32197" />
    </linearGradient>
    <linearGradient
       inkscape:collect="always"
       id="linearGradient31482">
      <stop
         style="stop-color:#e7e7e7;stop-opacity:1"
         offset="0"
         id="stop31478" />
      <stop
         style="stop-color:#0095d9;stop-opacity:1"
         offset="1"
         id="stop31480" />
    </linearGradient>
    <linearGradient
       inkscape:collect="always"
       id="linearGradient30624">
      <stop
         style="stop-color:#e7e7e7;stop-opacity:1"
         offset="0"
         id="stop30620" />
      <stop
         style="stop-color:#e6b422;stop-opacity:1"
         offset="1"
         id="stop30622" />
    </linearGradient>
    <linearGradient
       inkscape:collect="always"
       id="linearGradient29155">
      <stop
         style="stop-color:#f6f6f6;stop-opacity:1"
         offset="0"
         id="stop29151" />
      <stop
         style="stop-color:#eaeaea;stop-opacity:1"
         offset="1"
         id="stop29153" />
    </linearGradient>
    <linearGradient
       inkscape:collect="always"
       id="linearGradient1692">
      <stop
         style="stop-color:#e48aba;stop-opacity:1"
         offset="0"
         id="stop1688" />
      <stop
         style="stop-color:#e4007f;stop-opacity:1"
         offset="1"
         id="stop1690" />
    </linearGradient>
    <linearGradient
       inkscape:collect="always"
       id="linearGradient939">
      <stop
         style="stop-color:#fffce6;stop-opacity:1"
         offset="0"
         id="stop935" />
      <stop
         style="stop-color:#ebde7a;stop-opacity:1"
         offset="1"
         id="stop937" />
    </linearGradient>
    <radialGradient
       inkscape:collect="always"
       xlink:href="#linearGradient939"
       id="radialGradient941"
       cx="7.3929887"
       cy="31.653919"
       fx="7.3929887"
       fy="31.653919"
       r="8.9769554"
       gradientUnits="userSpaceOnUse"
       gradientTransform="matrix(-0.3591009,1.5225577,-1.506943,-0.35541802,64.163073,23.629098)" />
    <linearGradient
       inkscape:collect="always"
       xlink:href="#linearGradient3037"
       id="linearGradient990"
       gradientUnits="userSpaceOnUse"
       x1="-16.676346"
       y1="-17.184853"
       x2="27.322918"
       y2="-17.184853"
       gradientTransform="translate(-0.56126597,6.4545585)" />
    <linearGradient
       inkscape:collect="always"
       id="linearGradient3037">
      <stop
         style="stop-color:#e7e7e7;stop-opacity:1"
         offset="0"
         id="stop3033" />
      <stop
         style="stop-color:#c0c0c0;stop-opacity:1"
         offset="1"
         id="stop3035" />
    </linearGradient>
    <linearGradient
       inkscape:collect="always"
       xlink:href="#linearGradient1692"
       id="linearGradient996"
       gradientUnits="userSpaceOnUse"
       gradientTransform="translate(-0.56126597,6.4545585)"
       x1="-13.885328"
       y1="-21.907228"
       x2="-9.7593842"
       y2="-13.080381" />
    <linearGradient
       inkscape:collect="always"
       xlink:href="#linearGradient30624"
       id="linearGradient972"
       x1="-11.420739"
       y1="-1.1954383"
       x2="-18.194397"
       y2="12.887555"
       gradientUnits="userSpaceOnUse"
       gradientTransform="matrix(1.089754,0,0,1.089754,24.298891,16.929677)" />
    <linearGradient
       inkscape:collect="always"
       xlink:href="#linearGradient3037"
       id="linearGradient957"
       gradientUnits="userSpaceOnUse"
       gradientTransform="translate(34.6114,7.7641789)"
       x1="-12.794256"
       y1="-20.973398"
       x2="-12.463797"
       y2="-13.41454" />
    <linearGradient
       inkscape:collect="always"
       xlink:href="#linearGradient31482"
       id="linearGradient1016"
       gradientUnits="userSpaceOnUse"
       gradientTransform="matrix(-0.43481643,-0.32563006,-0.32563006,0.43481643,14.257719,14.955956)"
       x1="-3.6932268"
       y1="-19.06904"
       x2="-12.828527"
       y2="-16.998814" />
    <linearGradient
       inkscape:collect="always"
       xlink:href="#linearGradient3037"
       id="linearGradient1020"
       gradientUnits="userSpaceOnUse"
       gradientTransform="translate(-1.8548368,4.9679191)"
       x1="-13.000842"
       y1="-22.551495"
       x2="-15.635652"
       y2="-18.18479" />
    <linearGradient
       inkscape:collect="always"
       xlink:href="#linearGradient32199"
       id="linearGradient983"
       gradientUnits="userSpaceOnUse"
       gradientTransform="translate(34.6114,7.7641789)"
       x1="-13.111892"
       y1="-27.235363"
       x2="-12.463797"
       y2="-13.41454" />
    <filter
       inkscape:collect="always"
       style="color-interpolation-filters:sRGB"
       id="filter975-0"
       x="-4.3199995e-05"
       width="1.0000864"
       y="-4.3199995e-05"
       height="1.0000864">
      <feGaussianBlur
         inkscape:collect="always"
         stdDeviation="0.0003231696"
         id="feGaussianBlur977-9" />
    </filter>
    <radialGradient
       inkscape:collect="always"
       xlink:href="#linearGradient29155"
       id="radialGradient1009"
       gradientUnits="userSpaceOnUse"
       gradientTransform="matrix(-0.3591009,1.5225577,-1.506943,-0.35541802,64.163073,23.629098)"
       cx="7.3929887"
       cy="31.653919"
       fx="7.3929887"
       fy="31.653919"
       r="8.9769554" />
    <filter
       inkscape:collect="always"
       style="color-interpolation-filters:sRGB"
       id="filter975"
       x="-1.939207e-05"
       width="1.0000388"
       y="-1.9391946e-05"
       height="1.0000388">
      <feGaussianBlur
         inkscape:collect="always"
         stdDeviation="0.0003231696"
         id="feGaussianBlur977" />
    </filter>
  </defs>
  <sodipodi:namedview
     id="base"
     pagecolor="#ffffff"
     bordercolor="#666666"
     borderopacity="1.0"
     inkscape:pageopacity="0.0"
     inkscape:pageshadow="2"
     inkscape:zoom="3.959798"
     inkscape:cx="33.84011"
     inkscape:cy="76.266517"
     inkscape:document-units="px"
     inkscape:current-layer="layer1"
     inkscape:document-rotation="0"
     showgrid="false"
     inkscape:window-width="1514"
     inkscape:window-height="906"
     inkscape:window-x="1293"
     inkscape:window-y="74"
     inkscape:window-maximized="0"
     units="px"
     inkscape:pagecheckerboard="0"
     inkscape:snap-global="true" />
  <metadata
     id="metadata5">
    <rdf:RDF />
  </metadata>
  <g
     inkscape:label="レイヤー 1"
     inkscape:groupmode="layer"
     id="layer1"
     style="opacity:1">
    <g
       id="g5110"
       inkscape:label="color_palette">
      <rect
         style="fill:#e6b422;fill-opacity:1;stroke:none;stroke-width:0.122205;stroke-linecap:round;stroke-linejoin:miter;stroke-miterlimit:4;stroke-dasharray:none;stroke-opacity:1;paint-order:stroke fill markers"
         id="color_0"
         width="2.1166666"
         height="2.1166666"
         x="0"
         y="-2.7755576e-17" />
      <rect
         style="opacity:0.999;fill:#e6b422;fill-opacity:1;stroke:none;stroke-width:0.122205;stroke-linecap:round;stroke-linejoin:miter;stroke-miterlimit:4;stroke-dasharray:none;stroke-opacity:1;paint-order:stroke fill markers"
         id="color_1"
         width="2.1166666"
         height="2.1166666"
         x="2.1166666"
         y="-2.7755576e-17" />
      <rect
         style="opacity:0.999;fill:#e6b422;fill-opacity:1;stroke:none;stroke-width:0.122205;stroke-linecap:round;stroke-linejoin:miter;stroke-miterlimit:4;stroke-dasharray:none;stroke-opacity:1;paint-order:stroke fill markers"
         id="color_2"
         width="2.1166666"
         height="2.1166666"
         x="4.2333331"
         y="-2.7755576e-17" />
      <rect
         style="opacity:0.999;fill:#00a95f;fill-opacity:1;stroke:none;stroke-width:0.122205;stroke-linecap:round;stroke-linejoin:miter;stroke-miterlimit:4;stroke-dasharray:none;stroke-opacity:1;paint-order:stroke fill markers"
         id="color_3"
         width="2.1166666"
         height="2.1166666"
         x="6.3499999"
         y="-2.7755576e-17" />
      <rect
         style="fill:#0095d9;fill-opacity:1;stroke:none;stroke-width:0.122205;stroke-linecap:round;stroke-linejoin:miter;stroke-miterlimit:4;stroke-dasharray:none;stroke-opacity:1;paint-order:stroke fill markers"
         id="color_4"
         width="2.1166666"
         height="2.1166666"
         x="8.4666662"
         y="-2.7755576e-17" />
      <rect
         style="fill:#ed334e;fill-opacity:1;stroke:none;stroke-width:0.122205;stroke-linecap:round;stroke-linejoin:miter;stroke-miterlimit:4;stroke-dasharray:none;stroke-opacity:1;paint-order:stroke fill markers"
         id="color_5"
         width="2.1166666"
         height="2.1166666"
         x="10.583333"
         y="-2.7755576e-17" />
      <rect
         style="opacity:0.999;fill:#6d1be0;fill-opacity:1;stroke:none;stroke-width:0.122205;stroke-linecap:round;stroke-linejoin:miter;stroke-miterlimit:4;stroke-dasharray:none;stroke-opacity:1;paint-order:stroke fill markers"
         id="color_6"
         width="2.1166666"
         height="2.1166666"
         x="12.7"
         y="-2.7755576e-17" />
      <rect
         style="opacity:0.999;fill:#e7e7e7;fill-opacity:1;stroke:none;stroke-width:0.122205;stroke-linecap:round;stroke-linejoin:miter;stroke-miterlimit:4;stroke-dasharray:none;stroke-opacity:1;paint-order:stroke fill markers"
         id="rect1272"
         width="2.1166666"
         height="2.1166666"
         x="14.816667"
         y="-2.7755576e-17"
         inkscape:label="color_7" />
      <rect
         style="opacity:0.999;fill:#181818;fill-opacity:1;stroke:none;stroke-width:0.122205;stroke-linecap:round;stroke-linejoin:miter;stroke-miterlimit:4;stroke-dasharray:none;stroke-opacity:1;paint-order:stroke fill markers"
         id="rect1491"
         width="2.1166666"
         height="2.1166666"
         x="16.933332"
         y="-2.7755576e-17"
         inkscape:label="color_8" />
    </g>
    <g
       id="viseme_bg"
       transform="matrix(1.2499986,0,0,1.2500129,0.26458339,-8.7315502)"
       style="opacity:1">
      <circle
         style="opacity:1;fill:#4d4d4d;fill-opacity:1;stroke:none;stroke-width:0.264583;stroke-linecap:round;stroke-linejoin:miter;stroke-miterlimit:4;stroke-dasharray:none;stroke-opacity:1;paint-order:stroke fill markers;filter:url(#filter975-0)"
         id="viseme_bg_outline"
         cx="13.701638"
         cy="36.710938"
         r="8.9769344"
         transform="matrix(0.58942271,0,0,0.5894221,-2.7843906,6.9367557)" />
      <circle
         style="opacity:1;fill:url(#radialGradient1009);fill-opacity:1;stroke:none;stroke-width:0.264583;stroke-linecap:round;stroke-linejoin:miter;stroke-miterlimit:4;stroke-dasharray:none;stroke-opacity:1;paint-order:stroke fill markers"
         id="viseme_bg_fill"
         cx="17.103424"
         cy="28.631697"
         transform="matrix(0.57466921,0,0,0.57466836,-4.537145,12.121261)"
         r="8.9769344" />
    </g>
    <use
       x="0"
       y="0"
       xlink:href="#viseme_bg"
       id="use30918"
       transform="translate(13.49375,-13.49375)"
       width="100%"
       height="100%" />
    <text
       xml:space="preserve"
       style="font-style:normal;font-weight:normal;font-size:11.5332px;line-height:1.25;font-family:sans-serif;opacity:1;fill:url(#linearGradient972);fill-opacity:1;stroke:none;stroke-width:0.0791946;stroke-miterlimit:4;stroke-dasharray:none;stroke-opacity:1"
       x="3.344233"
       y="31.254845"
       id="text964"><tspan
         sodipodi:role="line"
         id="tspan962"
         x="3.344233"
         y="31.254845"
         style="font-style:normal;font-variant:normal;font-weight:bold;font-stretch:normal;font-family:'Rounded M+ 1c';-inkscape-font-specification:'Rounded M+ 1c Bold';fill:url(#linearGradient972);fill-opacity:1;stroke:none;stroke-width:0.0791946;stroke-miterlimit:4;stroke-dasharray:none;stroke-opacity:1">♪</tspan></text>
    <use
       x="0"
       y="0"
       xlink:href="#viseme_bg"
       id="use31958"
       transform="translate(13.49375)"
       width="100%"
       height="100%" />
    <g
       id="g1031"
       style="opacity:1"
       transform="matrix(-0.42200975,-0.14179288,-0.14179288,0.42200975,36.74888,23.606604)">
      <path
         d="m 22.485724,9.2023414 c 0.092,-0.1228343 0.201589,-0.2207898 0.328797,-0.293868 0.127208,-0.073078 0.260987,-0.1190247 0.401334,-0.1378395 0.13997,-0.021431 0.281272,-0.014983 0.423903,0.019349 0.142631,0.034337 0.275364,0.097496 0.398198,0.1894857 0.167774,0.1256433 0.320959,0.2660849 0.45956,0.4213166 0.1386,0.1552343 0.260737,0.3215235 0.366416,0.4988645 0.104175,0.1762183 0.191148,0.3629313 0.260907,0.5601353 0.06938,0.194585 0.118933,0.395359 0.148649,0.602323 l 0.09761,0.679839 c -0.212714,-0.159299 -0.564464,-0.244732 -0.806709,-0.348987 -0.24262,-0.106872 -0.363256,-0.109679 -0.630576,-0.181103 -0.178767,-0.04886 -0.292539,-0.08611 -0.438346,-0.129515 -0.110699,-0.03296 -0.163098,-0.04894 -0.282265,-0.08163 -0.115717,-0.02828 -0.157505,-0.05868 -0.248485,-0.09642 -0.08986,-0.03924 -0.175233,-0.08914 -0.256123,-0.149725 -0.122835,-0.09198 -0.220791,-0.201588 -0.293868,-0.328797 -0.07308,-0.127207 -0.119585,-0.260238 -0.139523,-0.399087 -0.02032,-0.1414693 -0.01331,-0.2835203 0.02102,-0.4261499 0.03434,-0.142632 0.0975,-0.275365 0.189486,-0.3981995 z"
         style="font-style:normal;font-variant:normal;font-weight:normal;font-stretch:normal;font-size:10.5833px;line-height:1.25;font-family:'Rounded M+ 1c';-inkscape-font-specification:'Rounded M+ 1c';fill:url(#linearGradient1016);fill-opacity:1;stroke:none;stroke-width:0.0718652;stroke-miterlimit:4;stroke-dasharray:none;stroke-opacity:1"
         id="path1014"
         sodipodi:nodetypes="sscsssccscccsccssssss" />
    </g>
    <use
       x="0"
       y="0"
       xlink:href="#viseme_bg"
       id="use32357"
       transform="translate(0,-13.49375)"
       width="100%"
       height="100%" />
    <g
       aria-label="！"
       id="text955"
       style="font-style:normal;font-weight:normal;font-size:10.5833px;line-height:1.25;font-family:sans-serif;opacity:1;fill:url(#linearGradient957);fill-opacity:1;stroke:none;stroke-width:0.0850735;stroke-miterlimit:4;stroke-dasharray:none;stroke-opacity:1"
       transform="matrix(1.9931297,0,0,1.3260844,-37.04136,25.934715)">
      <path
         d="m 22.311248,-7.7040004 c -0.137139,0.043147 -0.169333,0.036477 -0.275166,0.036477 -0.105833,0 -0.138002,0.00949 -0.275166,-0.036477 -0.07791,-0.026108 -0.116416,-0.04566 -0.116416,-0.1514925 l -0.09525,-5.1246381 c -0.0026,-0.141087 0.01296,-0.178109 0.137583,-0.214103 0.19626,-0.05669 0.215194,-0.05069 0.349249,-0.05069 0.134055,0 0.193773,0.0051 0.338666,0.05069 0.09878,0.09172 0.148166,0.07299 0.148166,0.214103 l -0.09525,5.1246381 c 0,0.105833 -0.01171,0.1185513 -0.116416,0.1514925 z M 21.708,-6.773913 c 0.135584,-0.047858 0.201083,-0.046947 0.328082,-0.046947 0.127,0 0.195235,0.00849 0.317499,0.046947 0.09172,0.084666 0.137583,0.2811354 0.137583,0.408135 v 0.3915821 c 0,0.1269996 -0.01551,0.3767267 -0.137583,0.4205922 -0.122268,0.043935 -0.190499,0.03449 -0.317499,0.03449 -0.126999,0 -0.18342,5.11e-4 -0.328082,-0.03449 -0.121329,-0.029355 -0.127,-0.2935926 -0.127,-0.4205922 V -6.365778 c 0,-0.1269996 0.04233,-0.3234686 0.127,-0.408135 z"
         style="font-style:normal;font-variant:normal;font-weight:normal;font-stretch:normal;font-family:'Rounded M+ 1c';-inkscape-font-specification:'Rounded M+ 1c';fill:url(#linearGradient983);fill-opacity:1;stroke:none;stroke-width:0.0708946;stroke-miterlimit:4;stroke-dasharray:none;stroke-opacity:1"
         id="path959"
         sodipodi:nodetypes="ssscssscccscscsssssssc" />
    </g>
    <path
       id="viseme_a-8"
       style="opacity:0.999;fill:#6f6f6f;fill-opacity:1;stroke:none;stroke-width:0.589422;stroke-linecap:round;stroke-linejoin:miter;stroke-miterlimit:4;stroke-dasharray:none;stroke-opacity:1;paint-order:stroke fill markers;filter:url(#filter975)"
       d="M 20.798828,87.001953 A 19.998271,19.99825 0 0 0 1.0019531,107 19.998271,19.99825 0 0 0 21,126.99805 19.998271,19.99825 0 0 0 40.998047,107 19.998271,19.99825 0 0 0 21,87.001953 a 19.998271,19.99825 0 0 0 -0.201172,0 z m 0.08984,5 a 14.998205,14.997988 0 0 1 0.111328,0 14.998205,14.997988 0 0 1 0.326172,0.0039 14.998205,14.997988 0 0 1 0.324219,0.0098 14.998205,14.997988 0 0 1 0.326171,0.01758 14.998205,14.997988 0 0 1 0.324219,0.02539 14.998205,14.997988 0 0 1 0.324219,0.03125 14.998205,14.997988 0 0 1 0.324219,0.03906 14.998205,14.997988 0 0 1 0.322265,0.04687 14.998205,14.997988 0 0 1 0.320313,0.05273 14.998205,14.997988 0 0 1 0.320312,0.05859 14.998205,14.997988 0 0 1 0.31836,0.06641 14.998205,14.997988 0 0 1 0.318359,0.07422 14.998205,14.997988 0 0 1 0.314453,0.08008 14.998205,14.997988 0 0 1 0.314453,0.08789 14.998205,14.997988 0 0 1 0.3125,0.09375 14.998205,14.997988 0 0 1 0.308594,0.101563 14.998205,14.997988 0 0 1 0.306641,0.107422 14.998205,14.997988 0 0 1 0.30664,0.113281 14.998205,14.997988 0 0 1 0.300782,0.121093 14.998205,14.997988 0 0 1 0.300781,0.126954 14.998205,14.997988 0 0 1 0.296875,0.134765 14.998205,14.997988 0 0 1 0.292969,0.140625 14.998205,14.997988 0 0 1 0.291015,0.146485 14.998205,14.997988 0 0 1 0.289063,0.152343 14.998205,14.997988 0 0 1 0.283203,0.158204 14.998205,14.997988 0 0 1 0.28125,0.166015 14.998205,14.997988 0 0 1 0.277344,0.171875 14.998205,14.997988 0 0 1 0.271484,0.175781 14.998205,14.997988 0 0 1 0.269531,0.183594 14.998205,14.997988 0 0 1 0.265625,0.189453 14.998205,14.997988 0 0 1 0.261719,0.19336 14.998205,14.997988 0 0 1 0.255859,0.201172 14.998205,14.997988 0 0 1 0.253907,0.205078 14.998205,14.997988 0 0 1 0.246093,0.210937 14.998205,14.997988 0 0 1 0.244141,0.216797 14.998205,14.997988 0 0 1 0.238281,0.222656 14.998205,14.997988 0 0 1 0.234375,0.226563 14.998205,14.997988 0 0 1 0.228516,0.232422 14.998205,14.997988 0 0 1 0.222656,0.236328 14.998205,14.997988 0 0 1 0.21875,0.242187 14.998205,14.997988 0 0 1 0.212891,0.246094 14.998205,14.997988 0 0 1 0.207031,0.25 14.998205,14.997988 0 0 1 0.203125,0.255859 14.998205,14.997988 0 0 1 0.197266,0.259766 14.998205,14.997988 0 0 1 0.189453,0.263672 14.998205,14.997988 0 0 1 0.185547,0.267578 14.998205,14.997988 0 0 1 0.179687,0.271484 14.998205,14.997988 0 0 1 0.173828,0.275391 14.998205,14.997988 0 0 1 0.166016,0.28125 14.998205,14.997988 0 0 1 0.162109,0.28125 14.998205,14.997988 0 0 1 0.154297,0.28711 14.998205,14.997988 0 0 1 0.148438,0.28906 14.998205,14.997988 0 0 1 0.142578,0.29297 14.998205,14.997988 0 0 1 0.136718,0.29688 14.998205,14.997988 0 0 1 0.128907,0.29882 14.998205,14.997988 0 0 1 0.123047,0.30079 14.998205,14.997988 0 0 1 0.117187,0.30468 14.998205,14.997988 0 0 1 0.109375,0.30664 14.998205,14.997988 0 0 1 0.103516,0.3086 14.998205,14.997988 0 0 1 0.0957,0.31054 14.998205,14.997988 0 0 1 0.08984,0.31446 14.998205,14.997988 0 0 1 0.08203,0.31445 14.998205,14.997988 0 0 1 0.07617,0.31641 14.998205,14.997988 0 0 1 0.07031,0.31836 14.998205,14.997988 0 0 1 0.06055,0.32031 14.998205,14.997988 0 0 1 0.05664,0.32031 14.998205,14.997988 0 0 1 0.04687,0.32227 14.998205,14.997988 0 0 1 0.04102,0.32226 14.998205,14.997988 0 0 1 0.03516,0.32422 14.998205,14.997988 0 0 1 0.02734,0.32422 14.998205,14.997988 0 0 1 0.01953,0.32617 14.998205,14.997988 0 0 1 0.01367,0.32422 14.998205,14.997988 0 0 1 0.0059,0.32617 14.998205,14.997988 0 0 1 0,0.11133 14.998205,14.997988 0 0 1 -0.0039,0.32617 14.998205,14.997988 0 0 1 -0.0098,0.32422 14.998205,14.997988 0 0 1 -0.01758,0.32617 14.998205,14.997988 0 0 1 -0.02539,0.32422 14.998205,14.997988 0 0 1 -0.03125,0.32422 14.998205,14.997988 0 0 1 -0.03906,0.32422 14.998205,14.997988 0 0 1 -0.04492,0.32226 14.998205,14.997988 0 0 1 -0.05273,0.32032 14.998205,14.997988 0 0 1 -0.06055,0.32031 14.998205,14.997988 0 0 1 -0.06641,0.31836 14.998205,14.997988 0 0 1 -0.07422,0.31836 14.998205,14.997988 0 0 1 -0.08008,0.31445 14.998205,14.997988 0 0 1 -0.08789,0.31445 14.998205,14.997988 0 0 1 -0.09375,0.31055 14.998205,14.997988 0 0 1 -0.101563,0.31055 14.998205,14.997988 0 0 1 -0.107422,0.30664 14.998205,14.997988 0 0 1 -0.113281,0.30664 14.998205,14.997988 0 0 1 -0.121093,0.30078 14.998205,14.997988 0 0 1 -0.126954,0.30078 14.998205,14.997988 0 0 1 -0.134765,0.29688 14.998205,14.997988 0 0 1 -0.138672,0.29297 14.998205,14.997988 0 0 1 -0.148438,0.29101 14.998205,14.997988 0 0 1 -0.152343,0.28711 14.998205,14.997988 0 0 1 -0.158204,0.28516 14.998205,14.997988 0 0 1 -0.166015,0.28125 14.998205,14.997988 0 0 1 -0.169922,0.27539 14.998205,14.997988 0 0 1 -0.177734,0.27344 14.998205,14.997988 0 0 1 -0.183594,0.26953 14.998205,14.997988 0 0 1 -0.189453,0.26562 14.998205,14.997988 0 0 1 -0.19336,0.26172 14.998205,14.997988 0 0 1 -0.201172,0.25586 14.998205,14.997988 0 0 1 -0.205078,0.25195 14.998205,14.997988 0 0 1 -0.210937,0.24805 14.998205,14.997988 0 0 1 -0.216797,0.24414 14.998205,14.997988 0 0 1 -0.222656,0.23828 14.998205,14.997988 0 0 1 -0.226563,0.23438 14.998205,14.997988 0 0 1 -0.232422,0.22851 14.998205,14.997988 0 0 1 -0.236328,0.22266 14.998205,14.997988 0 0 1 -0.242187,0.21875 14.998205,14.997988 0 0 1 -0.246094,0.21289 14.998205,14.997988 0 0 1 -0.25,0.20703 14.998205,14.997988 0 0 1 -0.255859,0.20313 14.998205,14.997988 0 0 1 -0.259766,0.19531 14.998205,14.997988 0 0 1 -0.263672,0.1914 14.998205,14.997988 0 0 1 -0.267578,0.18555 14.998205,14.997988 0 0 1 -0.271484,0.17969 14.998205,14.997988 0 0 1 -0.275391,0.17187 14.998205,14.997988 0 0 1 -0.28125,0.16797 14.998205,14.997988 0 0 1 -0.28125,0.16211 14.998205,14.997988 0 0 1 -0.287109,0.1543 14.998205,14.997988 0 0 1 -0.289063,0.14844 14.998205,14.997988 0 0 1 -0.292969,0.14257 14.998205,14.997988 0 0 1 -0.296875,0.13672 14.998205,14.997988 0 0 1 -0.298828,0.12891 14.998205,14.997988 0 0 1 -0.300781,0.12305 14.998205,14.997988 0 0 1 -0.304687,0.11718 14.998205,14.997988 0 0 1 -0.306641,0.10938 14.998205,14.997988 0 0 1 -0.308594,0.10351 14.998205,14.997988 0 0 1 -0.310547,0.0957 14.998205,14.997988 0 0 1 -0.314453,0.0898 14.998205,14.997988 0 0 1 -0.314453,0.082 14.998205,14.997988 0 0 1 -0.316406,0.0762 14.998205,14.997988 0 0 1 -0.31836,0.0684 14.998205,14.997988 0 0 1 -0.320312,0.0625 14.998205,14.997988 0 0 1 -0.320313,0.0566 14.998205,14.997988 0 0 1 -0.322265,0.0469 14.998205,14.997988 0 0 1 -0.322266,0.041 14.998205,14.997988 0 0 1 -0.324219,0.0352 14.998205,14.997988 0 0 1 -0.324218,0.0273 14.998205,14.997988 0 0 1 -0.326172,0.0195 14.998205,14.997988 0 0 1 -0.324219,0.0137 14.998205,14.997988 0 0 1 -0.326172,0.006 14.998205,14.997988 0 0 1 -0.111328,0 14.998205,14.997988 0 0 1 -0.326172,-0.004 14.998205,14.997988 0 0 1 -0.324219,-0.01 14.998205,14.997988 0 0 1 -0.326171,-0.0176 14.998205,14.997988 0 0 1 -0.324219,-0.0254 14.998205,14.997988 0 0 1 -0.324219,-0.0312 14.998205,14.997988 0 0 1 -0.324219,-0.0391 14.998205,14.997988 0 0 1 -0.322265,-0.0469 14.998205,14.997988 0 0 1 -0.320313,-0.0527 14.998205,14.997988 0 0 1 -0.320312,-0.0586 14.998205,14.997988 0 0 1 -0.31836,-0.0664 14.998205,14.997988 0 0 1 -0.318359,-0.0742 14.998205,14.997988 0 0 1 -0.314453,-0.0801 14.998205,14.997988 0 0 1 -0.314453,-0.0879 14.998205,14.997988 0 0 1 -0.3125,-0.0937 14.998205,14.997988 0 0 1 -0.308594,-0.10157 14.998205,14.997988 0 0 1 -0.306641,-0.10742 14.998205,14.997988 0 0 1 -0.30664,-0.11328 14.998205,14.997988 0 0 1 -0.300782,-0.12109 14.998205,14.997988 0 0 1 -0.300781,-0.12696 14.998205,14.997988 0 0 1 -0.296875,-0.13476 14.998205,14.997988 0 0 1 -0.292969,-0.14063 14.998205,14.997988 0 0 1 -0.291015,-0.14648 14.998205,14.997988 0 0 1 -0.289063,-0.15234 14.998205,14.997988 0 0 1 -0.283203,-0.15821 14.998205,14.997988 0 0 1 -0.28125,-0.16601 14.998205,14.997988 0 0 1 -0.277344,-0.17188 14.998205,14.997988 0 0 1 -0.271484,-0.17578 14.998205,14.997988 0 0 1 -0.269531,-0.18359 14.998205,14.997988 0 0 1 -0.265625,-0.18946 14.998205,14.997988 0 0 1 -0.261719,-0.19336 14.998205,14.997988 0 0 1 -0.255859,-0.20117 14.998205,14.997988 0 0 1 -0.253907,-0.20508 14.998205,14.997988 0 0 1 -0.246093,-0.21093 14.998205,14.997988 0 0 1 -0.244141,-0.2168 14.998205,14.997988 0 0 1 -0.238281,-0.22266 14.998205,14.997988 0 0 1 -0.234375,-0.22656 14.998205,14.997988 0 0 1 -0.228516,-0.23242 14.998205,14.997988 0 0 1 -0.2226561,-0.23633 14.998205,14.997988 0 0 1 -0.21875,-0.24219 14.998205,14.997988 0 0 1 -0.2128907,-0.24609 14.998205,14.997988 0 0 1 -0.2070312,-0.25 14.998205,14.997988 0 0 1 -0.203125,-0.25586 14.998205,14.997988 0 0 1 -0.1972656,-0.25976 14.998205,14.997988 0 0 1 -0.1894532,-0.26368 14.998205,14.997988 0 0 1 -0.1855468,-0.26758 14.998205,14.997988 0 0 1 -0.1796875,-0.27148 14.998205,14.997988 0 0 1 -0.1738281,-0.27734 14.998205,14.997988 0 0 1 -0.1660157,-0.2793 14.998205,14.997988 0 0 1 -0.1621093,-0.28125 14.998205,14.997988 0 0 1 -0.1542969,-0.28711 14.998205,14.997988 0 0 1 -0.1484375,-0.28906 14.998205,14.997988 0 0 1 -0.1425782,-0.29297 14.998205,14.997988 0 0 1 -0.1367187,-0.29688 14.998205,14.997988 0 0 1 -0.1289063,-0.29882 14.998205,14.997988 0 0 1 -0.1230468,-0.30079 14.998205,14.997988 0 0 1 -0.1171875,-0.30468 14.998205,14.997988 0 0 1 -0.109375,-0.30664 14.998205,14.997988 0 0 1 -0.1035157,-0.3086 14.998205,14.997988 0 0 1 -0.095703,-0.31054 14.998205,14.997988 0 0 1 -0.089844,-0.31446 14.998205,14.997988 0 0 1 -0.082031,-0.31445 14.998205,14.997988 0 0 1 -0.076172,-0.31641 14.998205,14.997988 0 0 1 -0.070312,-0.31836 14.998205,14.997988 0 0 1 -0.060547,-0.32031 14.998205,14.997988 0 0 1 -0.056641,-0.32031 14.998205,14.997988 0 0 1 -0.046875,-0.32227 14.998205,14.997988 0 0 1 -0.041016,-0.32226 14.998205,14.997988 0 0 1 -0.035156,-0.32422 14.998205,14.997988 0 0 1 -0.027344,-0.32422 14.998205,14.997988 0 0 1 -0.019531,-0.32617 14.998205,14.997988 0 0 1 -0.013672,-0.32422 14.998205,14.997988 0 0 1 -0.00586,-0.32617 14.998205,14.997988 0 0 1 0,-0.11133 14.998205,14.997988 0 0 1 0.00391,-0.32617 14.998205,14.997988 0 0 1 0.00977,-0.32422 14.998205,14.997988 0 0 1 0.017578,-0.32617 14.998205,14.997988 0 0 1 0.025391,-0.32422 14.998205,14.997988 0 0 1 0.03125,-0.32422 14.998205,14.997988 0 0 1 0.039062,-0.32422 14.998205,14.997988 0 0 1 0.044922,-0.32226 14.998205,14.997988 0 0 1 0.052734,-0.32032 14.998205,14.997988 0 0 1 0.060547,-0.32031 14.998205,14.997988 0 0 1 0.066406,-0.31836 14.998205,14.997988 0 0 1 0.074219,-0.31836 14.998205,14.997988 0 0 1 0.080078,-0.31445 14.998205,14.997988 0 0 1 0.087891,-0.31445 14.998205,14.997988 0 0 1 0.09375,-0.3125 14.998205,14.997988 0 0 1 0.1015625,-0.3086 14.998205,14.997988 0 0 1 0.1074219,-0.30664 14.998205,14.997988 0 0 1 0.1132813,-0.30664 14.998205,14.997988 0 0 1 0.1210937,-0.30078 14.998205,14.997988 0 0 1 0.1269531,-0.30078 14.998205,14.997988 0 0 1 0.1347656,-0.29688 14.998205,14.997988 0 0 1 0.1386719,-0.29297 14.998205,14.997988 0 0 1 0.1484375,-0.29101 14.998205,14.997988 0 0 1 0.1523438,-0.287111 14.998205,14.997988 0 0 1 0.1582031,-0.285156 14.998205,14.997988 0 0 1 0.1660156,-0.28125 A 14.998205,14.997988 0 0 1 8.328125,98.976562 14.998205,14.997988 0 0 1 8.5058594,98.703125 14.998205,14.997988 0 0 1 8.6894531,98.433594 14.998205,14.997988 0 0 1 8.8789062,98.167969 14.998205,14.997988 0 0 1 9.0722656,97.90625 14.998205,14.997988 0 0 1 9.2734375,97.650391 14.998205,14.997988 0 0 1 9.4785156,97.398438 14.998205,14.997988 0 0 1 9.6894531,97.150391 14.998205,14.997988 0 0 1 9.90625,96.90625 a 14.998205,14.997988 0 0 1 0.222656,-0.238281 14.998205,14.997988 0 0 1 0.226563,-0.234375 14.998205,14.997988 0 0 1 0.232422,-0.228516 14.998205,14.997988 0 0 1 0.236328,-0.222656 14.998205,14.997988 0 0 1 0.242187,-0.21875 14.998205,14.997988 0 0 1 0.246094,-0.212891 14.998205,14.997988 0 0 1 0.25,-0.207031 14.998205,14.997988 0 0 1 0.255859,-0.203125 14.998205,14.997988 0 0 1 0.259766,-0.195313 14.998205,14.997988 0 0 1 0.263672,-0.191406 14.998205,14.997988 0 0 1 0.267578,-0.185547 14.998205,14.997988 0 0 1 0.271484,-0.179687 14.998205,14.997988 0 0 1 0.275391,-0.171875 14.998205,14.997988 0 0 1 0.28125,-0.167969 14.998205,14.997988 0 0 1 0.28125,-0.162109 14.998205,14.997988 0 0 1 0.287109,-0.154297 14.998205,14.997988 0 0 1 0.289063,-0.148438 14.998205,14.997988 0 0 1 0.292969,-0.142578 14.998205,14.997988 0 0 1 0.296875,-0.136718 14.998205,14.997988 0 0 1 0.298828,-0.128907 14.998205,14.997988 0 0 1 0.300781,-0.123047 14.998205,14.997988 0 0 1 0.304687,-0.117187 14.998205,14.997988 0 0 1 0.306641,-0.109375 14.998205,14.997988 0 0 1 0.308594,-0.103516 14.998205,14.997988 0 0 1 0.310547,-0.0957 14.998205,14.997988 0 0 1 0.314453,-0.08984 14.998205,14.997988 0 0 1 0.314453,-0.08203 14.998205,14.997988 0 0 1 0.316406,-0.07617 14.998205,14.997988 0 0 1 0.31836,-0.07031 14.998205,14.997988 0 0 1 0.320312,-0.06055 14.998205,14.997988 0 0 1 0.320313,-0.05664 14.998205,14.997988 0 0 1 0.322265,-0.04687 14.998205,14.997988 0 0 1 0.322266,-0.04102 14.998205,14.997988 0 0 1 0.324219,-0.03516 14.998205,14.997988 0 0 1 0.324218,-0.02734 14.998205,14.997988 0 0 1 0.326172,-0.01953 14.998205,14.997988 0 0 1 0.324219,-0.01367 14.998205,14.997988 0 0 1 0.326172,-0.0059 z"
       transform="matrix(0.15875895,0,0,0.15875654,27.093137,13.440117)" />
    <path
       id="viseme_i-5"
       style="opacity:0.999;fill:#26eccf;fill-opacity:1;stroke:none;stroke-width:0.589422;stroke-linecap:round;stroke-linejoin:miter;stroke-miterlimit:4;stroke-dasharray:none;stroke-opacity:1;paint-order:stroke fill markers;filter:url(#filter975)"
       d="M 20.798828,87.001953 A 19.998271,19.99825 0 0 0 1.0019531,107 19.998271,19.99825 0 0 0 21,126.99805 19.998271,19.99825 0 0 0 40.998047,107 19.998271,19.99825 0 0 0 21,87.001953 a 19.998271,19.99825 0 0 0 -0.201172,0 z m 0.08984,5 a 14.998205,14.997988 0 0 1 0.111328,0 14.998205,14.997988 0 0 1 0.326172,0.0039 14.998205,14.997988 0 0 1 0.324219,0.0098 14.998205,14.997988 0 0 1 0.326171,0.01758 14.998205,14.997988 0 0 1 0.324219,0.02539 14.998205,14.997988 0 0 1 0.324219,0.03125 14.998205,14.997988 0 0 1 0.324219,0.03906 14.998205,14.997988 0 0 1 0.322265,0.04687 14.998205,14.997988 0 0 1 0.320313,0.05273 14.998205,14.997988 0 0 1 0.320312,0.05859 14.998205,14.997988 0 0 1 0.31836,0.06641 14.998205,14.997988 0 0 1 0.318359,0.07422 14.998205,14.997988 0 0 1 0.314453,0.08008 14.998205,14.997988 0 0 1 0.314453,0.08789 14.998205,14.997988 0 0 1 0.3125,0.09375 14.998205,14.997988 0 0 1 0.308594,0.101563 14.998205,14.997988 0 0 1 0.306641,0.107422 14.998205,14.997988 0 0 1 0.30664,0.113281 14.998205,14.997988 0 0 1 0.300782,0.121093 14.998205,14.997988 0 0 1 0.300781,0.126954 14.998205,14.997988 0 0 1 0.296875,0.134765 14.998205,14.997988 0 0 1 0.292969,0.140625 14.998205,14.997988 0 0 1 0.291015,0.146485 14.998205,14.997988 0 0 1 0.289063,0.152343 14.998205,14.997988 0 0 1 0.283203,0.158204 14.998205,14.997988 0 0 1 0.28125,0.166015 14.998205,14.997988 0 0 1 0.277344,0.171875 14.998205,14.997988 0 0 1 0.271484,0.175781 14.998205,14.997988 0 0 1 0.269531,0.183594 14.998205,14.997988 0 0 1 0.265625,0.189453 14.998205,14.997988 0 0 1 0.261719,0.19336 14.998205,14.997988 0 0 1 0.255859,0.201172 14.998205,14.997988 0 0 1 0.253907,0.205078 14.998205,14.997988 0 0 1 0.246093,0.210937 14.998205,14.997988 0 0 1 0.244141,0.216797 14.998205,14.997988 0 0 1 0.238281,0.222656 14.998205,14.997988 0 0 1 0.234375,0.226563 14.998205,14.997988 0 0 1 0.228516,0.232422 14.998205,14.997988 0 0 1 0.222656,0.236328 14.998205,14.997988 0 0 1 0.21875,0.242187 14.998205,14.997988 0 0 1 0.212891,0.246094 14.998205,14.997988 0 0 1 0.207031,0.25 14.998205,14.997988 0 0 1 0.203125,0.255859 14.998205,14.997988 0 0 1 0.197266,0.259766 14.998205,14.997988 0 0 1 0.189453,0.263672 14.998205,14.997988 0 0 1 0.185547,0.267578 14.998205,14.997988 0 0 1 0.179687,0.271484 14.998205,14.997988 0 0 1 0.173828,0.275391 14.998205,14.997988 0 0 1 0.166016,0.28125 14.998205,14.997988 0 0 1 0.162109,0.28125 14.998205,14.997988 0 0 1 0.154297,0.28711 14.998205,14.997988 0 0 1 0.148438,0.28906 14.998205,14.997988 0 0 1 0.142578,0.29297 14.998205,14.997988 0 0 1 0.136718,0.29688 14.998205,14.997988 0 0 1 0.128907,0.29882 14.998205,14.997988 0 0 1 0.123047,0.30079 14.998205,14.997988 0 0 1 0.117187,0.30468 14.998205,14.997988 0 0 1 0.109375,0.30664 14.998205,14.997988 0 0 1 0.103516,0.3086 14.998205,14.997988 0 0 1 0.0957,0.31054 14.998205,14.997988 0 0 1 0.08984,0.31446 14.998205,14.997988 0 0 1 0.08203,0.31445 14.998205,14.997988 0 0 1 0.07617,0.31641 14.998205,14.997988 0 0 1 0.07031,0.31836 14.998205,14.997988 0 0 1 0.06055,0.32031 14.998205,14.997988 0 0 1 0.05664,0.32031 14.998205,14.997988 0 0 1 0.04687,0.32227 14.998205,14.997988 0 0 1 0.04102,0.32226 14.998205,14.997988 0 0 1 0.03516,0.32422 14.998205,14.997988 0 0 1 0.02734,0.32422 14.998205,14.997988 0 0 1 0.01953,0.32617 14.998205,14.997988 0 0 1 0.01367,0.32422 14.998205,14.997988 0 0 1 0.0059,0.32617 14.998205,14.997988 0 0 1 0,0.11133 14.998205,14.997988 0 0 1 -0.0039,0.32617 14.998205,14.997988 0 0 1 -0.0098,0.32422 14.998205,14.997988 0 0 1 -0.01758,0.32617 14.998205,14.997988 0 0 1 -0.02539,0.32422 14.998205,14.997988 0 0 1 -0.03125,0.32422 14.998205,14.997988 0 0 1 -0.03906,0.32422 14.998205,14.997988 0 0 1 -0.04492,0.32226 14.998205,14.997988 0 0 1 -0.05273,0.32032 14.998205,14.997988 0 0 1 -0.06055,0.32031 14.998205,14.997988 0 0 1 -0.06641,0.31836 14.998205,14.997988 0 0 1 -0.07422,0.31836 14.998205,14.997988 0 0 1 -0.08008,0.31445 14.998205,14.997988 0 0 1 -0.08789,0.31445 14.998205,14.997988 0 0 1 -0.09375,0.31055 14.998205,14.997988 0 0 1 -0.101563,0.31055 14.998205,14.997988 0 0 1 -0.107422,0.30664 14.998205,14.997988 0 0 1 -0.113281,0.30664 14.998205,14.997988 0 0 1 -0.121093,0.30078 14.998205,14.997988 0 0 1 -0.126954,0.30078 14.998205,14.997988 0 0 1 -0.134765,0.29688 14.998205,14.997988 0 0 1 -0.138672,0.29297 14.998205,14.997988 0 0 1 -0.148438,0.29101 14.998205,14.997988 0 0 1 -0.152343,0.28711 14.998205,14.997988 0 0 1 -0.158204,0.28516 14.998205,14.997988 0 0 1 -0.166015,0.28125 14.998205,14.997988 0 0 1 -0.169922,0.27539 14.998205,14.997988 0 0 1 -0.177734,0.27344 14.998205,14.997988 0 0 1 -0.183594,0.26953 14.998205,14.997988 0 0 1 -0.189453,0.26562 14.998205,14.997988 0 0 1 -0.19336,0.26172 14.998205,14.997988 0 0 1 -0.201172,0.25586 14.998205,14.997988 0 0 1 -0.205078,0.25195 14.998205,14.997988 0 0 1 -0.210937,0.24805 14.998205,14.997988 0 0 1 -0.216797,0.24414 14.998205,14.997988 0 0 1 -0.222656,0.23828 14.998205,14.997988 0 0 1 -0.226563,0.23438 14.998205,14.997988 0 0 1 -0.232422,0.22851 14.998205,14.997988 0 0 1 -0.236328,0.22266 14.998205,14.997988 0 0 1 -0.242187,0.21875 14.998205,14.997988 0 0 1 -0.246094,0.21289 14.998205,14.997988 0 0 1 -0.25,0.20703 14.998205,14.997988 0 0 1 -0.255859,0.20313 14.998205,14.997988 0 0 1 -0.259766,0.19531 14.998205,14.997988 0 0 1 -0.263672,0.1914 14.998205,14.997988 0 0 1 -0.267578,0.18555 14.998205,14.997988 0 0 1 -0.271484,0.17969 14.998205,14.997988 0 0 1 -0.275391,0.17187 14.998205,14.997988 0 0 1 -0.28125,0.16797 14.998205,14.997988 0 0 1 -0.28125,0.16211 14.998205,14.997988 0 0 1 -0.287109,0.1543 14.998205,14.997988 0 0 1 -0.289063,0.14844 14.998205,14.997988 0 0 1 -0.292969,0.14257 14.998205,14.997988 0 0 1 -0.296875,0.13672 14.998205,14.997988 0 0 1 -0.298828,0.12891 14.998205,14.997988 0 0 1 -0.300781,0.12305 14.998205,14.997988 0 0 1 -0.304687,0.11718 14.998205,14.997988 0 0 1 -0.306641,0.10938 14.998205,14.997988 0 0 1 -0.308594,0.10351 14.998205,14.997988 0 0 1 -0.310547,0.0957 14.998205,14.997988 0 0 1 -0.314453,0.0898 14.998205,14.997988 0 0 1 -0.314453,0.082 14.998205,14.997988 0 0 1 -0.316406,0.0762 14.998205,14.997988 0 0 1 -0.31836,0.0684 14.998205,14.997988 0 0 1 -0.320312,0.0625 14.998205,14.997988 0 0 1 -0.320313,0.0566 14.998205,14.997988 0 0 1 -0.322265,0.0469 14.998205,14.997988 0 0 1 -0.322266,0.041 14.998205,14.997988 0 0 1 -0.324219,0.0352 14.998205,14.997988 0 0 1 -0.324218,0.0273 14.998205,14.997988 0 0 1 -0.326172,0.0195 14.998205,14.997988 0 0 1 -0.324219,0.0137 14.998205,14.997988 0 0 1 -0.326172,0.006 14.998205,14.997988 0 0 1 -0.111328,0 14.998205,14.997988 0 0 1 -0.326172,-0.004 14.998205,14.997988 0 0 1 -0.324219,-0.01 14.998205,14.997988 0 0 1 -0.326171,-0.0176 14.998205,14.997988 0 0 1 -0.324219,-0.0254 14.998205,14.997988 0 0 1 -0.324219,-0.0312 14.998205,14.997988 0 0 1 -0.324219,-0.0391 14.998205,14.997988 0 0 1 -0.322265,-0.0469 14.998205,14.997988 0 0 1 -0.320313,-0.0527 14.998205,14.997988 0 0 1 -0.320312,-0.0586 14.998205,14.997988 0 0 1 -0.31836,-0.0664 14.998205,14.997988 0 0 1 -0.318359,-0.0742 14.998205,14.997988 0 0 1 -0.314453,-0.0801 14.998205,14.997988 0 0 1 -0.314453,-0.0879 14.998205,14.997988 0 0 1 -0.3125,-0.0937 14.998205,14.997988 0 0 1 -0.308594,-0.10157 14.998205,14.997988 0 0 1 -0.306641,-0.10742 14.998205,14.997988 0 0 1 -0.30664,-0.11328 14.998205,14.997988 0 0 1 -0.300782,-0.12109 14.998205,14.997988 0 0 1 -0.300781,-0.12696 14.998205,14.997988 0 0 1 -0.296875,-0.13476 14.998205,14.997988 0 0 1 -0.292969,-0.14063 14.998205,14.997988 0 0 1 -0.291015,-0.14648 14.998205,14.997988 0 0 1 -0.289063,-0.15234 14.998205,14.997988 0 0 1 -0.283203,-0.15821 14.998205,14.997988 0 0 1 -0.28125,-0.16601 14.998205,14.997988 0 0 1 -0.277344,-0.17188 14.998205,14.997988 0 0 1 -0.271484,-0.17578 14.998205,14.997988 0 0 1 -0.269531,-0.18359 14.998205,14.997988 0 0 1 -0.265625,-0.18946 14.998205,14.997988 0 0 1 -0.261719,-0.19336 14.998205,14.997988 0 0 1 -0.255859,-0.20117 14.998205,14.997988 0 0 1 -0.253907,-0.20508 14.998205,14.997988 0 0 1 -0.246093,-0.21093 14.998205,14.997988 0 0 1 -0.244141,-0.2168 14.998205,14.997988 0 0 1 -0.238281,-0.22266 14.998205,14.997988 0 0 1 -0.234375,-0.22656 14.998205,14.997988 0 0 1 -0.228516,-0.23242 14.998205,14.997988 0 0 1 -0.2226561,-0.23633 14.998205,14.997988 0 0 1 -0.21875,-0.24219 14.998205,14.997988 0 0 1 -0.2128907,-0.24609 14.998205,14.997988 0 0 1 -0.2070312,-0.25 14.998205,14.997988 0 0 1 -0.203125,-0.25586 14.998205,14.997988 0 0 1 -0.1972656,-0.25976 14.998205,14.997988 0 0 1 -0.1894532,-0.26368 14.998205,14.997988 0 0 1 -0.1855468,-0.26758 14.998205,14.997988 0 0 1 -0.1796875,-0.27148 14.998205,14.997988 0 0 1 -0.1738281,-0.27734 14.998205,14.997988 0 0 1 -0.1660157,-0.2793 14.998205,14.997988 0 0 1 -0.1621093,-0.28125 14.998205,14.997988 0 0 1 -0.1542969,-0.28711 14.998205,14.997988 0 0 1 -0.1484375,-0.28906 14.998205,14.997988 0 0 1 -0.1425782,-0.29297 14.998205,14.997988 0 0 1 -0.1367187,-0.29688 14.998205,14.997988 0 0 1 -0.1289063,-0.29882 14.998205,14.997988 0 0 1 -0.1230468,-0.30079 14.998205,14.997988 0 0 1 -0.1171875,-0.30468 14.998205,14.997988 0 0 1 -0.109375,-0.30664 14.998205,14.997988 0 0 1 -0.1035157,-0.3086 14.998205,14.997988 0 0 1 -0.095703,-0.31054 14.998205,14.997988 0 0 1 -0.089844,-0.31446 14.998205,14.997988 0 0 1 -0.082031,-0.31445 14.998205,14.997988 0 0 1 -0.076172,-0.31641 14.998205,14.997988 0 0 1 -0.070312,-0.31836 14.998205,14.997988 0 0 1 -0.060547,-0.32031 14.998205,14.997988 0 0 1 -0.056641,-0.32031 14.998205,14.997988 0 0 1 -0.046875,-0.32227 14.998205,14.997988 0 0 1 -0.041016,-0.32226 14.998205,14.997988 0 0 1 -0.035156,-0.32422 14.998205,14.997988 0 0 1 -0.027344,-0.32422 14.998205,14.997988 0 0 1 -0.019531,-0.32617 14.998205,14.997988 0 0 1 -0.013672,-0.32422 14.998205,14.997988 0 0 1 -0.00586,-0.32617 14.998205,14.997988 0 0 1 0,-0.11133 14.998205,14.997988 0 0 1 0.00391,-0.32617 14.998205,14.997988 0 0 1 0.00977,-0.32422 14.998205,14.997988 0 0 1 0.017578,-0.32617 14.998205,14.997988 0 0 1 0.025391,-0.32422 14.998205,14.997988 0 0 1 0.03125,-0.32422 14.998205,14.997988 0 0 1 0.039062,-0.32422 14.998205,14.997988 0 0 1 0.044922,-0.32226 14.998205,14.997988 0 0 1 0.052734,-0.32032 14.998205,14.997988 0 0 1 0.060547,-0.32031 14.998205,14.997988 0 0 1 0.066406,-0.31836 14.998205,14.997988 0 0 1 0.074219,-0.31836 14.998205,14.997988 0 0 1 0.080078,-0.31445 14.998205,14.997988 0 0 1 0.087891,-0.31445 14.998205,14.997988 0 0 1 0.09375,-0.3125 14.998205,14.997988 0 0 1 0.1015625,-0.3086 14.998205,14.997988 0 0 1 0.1074219,-0.30664 14.998205,14.997988 0 0 1 0.1132813,-0.30664 14.998205,14.997988 0 0 1 0.1210937,-0.30078 14.998205,14.997988 0 0 1 0.1269531,-0.30078 14.998205,14.997988 0 0 1 0.1347656,-0.29688 14.998205,14.997988 0 0 1 0.1386719,-0.29297 14.998205,14.997988 0 0 1 0.1484375,-0.29101 14.998205,14.997988 0 0 1 0.1523438,-0.287111 14.998205,14.997988 0 0 1 0.1582031,-0.285156 14.998205,14.997988 0 0 1 0.1660156,-0.28125 A 14.998205,14.997988 0 0 1 8.328125,98.976562 14.998205,14.997988 0 0 1 8.5058594,98.703125 14.998205,14.997988 0 0 1 8.6894531,98.433594 14.998205,14.997988 0 0 1 8.8789062,98.167969 14.998205,14.997988 0 0 1 9.0722656,97.90625 14.998205,14.997988 0 0 1 9.2734375,97.650391 14.998205,14.997988 0 0 1 9.4785156,97.398438 14.998205,14.997988 0 0 1 9.6894531,97.150391 14.998205,14.997988 0 0 1 9.90625,96.90625 a 14.998205,14.997988 0 0 1 0.222656,-0.238281 14.998205,14.997988 0 0 1 0.226563,-0.234375 14.998205,14.997988 0 0 1 0.232422,-0.228516 14.998205,14.997988 0 0 1 0.236328,-0.222656 14.998205,14.997988 0 0 1 0.242187,-0.21875 14.998205,14.997988 0 0 1 0.246094,-0.212891 14.998205,14.997988 0 0 1 0.25,-0.207031 14.998205,14.997988 0 0 1 0.255859,-0.203125 14.998205,14.997988 0 0 1 0.259766,-0.195313 14.998205,14.997988 0 0 1 0.263672,-0.191406 14.998205,14.997988 0 0 1 0.267578,-0.185547 14.998205,14.997988 0 0 1 0.271484,-0.179687 14.998205,14.997988 0 0 1 0.275391,-0.171875 14.998205,14.997988 0 0 1 0.28125,-0.167969 14.998205,14.997988 0 0 1 0.28125,-0.162109 14.998205,14.997988 0 0 1 0.287109,-0.154297 14.998205,14.997988 0 0 1 0.289063,-0.148438 14.998205,14.997988 0 0 1 0.292969,-0.142578 14.998205,14.997988 0 0 1 0.296875,-0.136718 14.998205,14.997988 0 0 1 0.298828,-0.128907 14.998205,14.997988 0 0 1 0.300781,-0.123047 14.998205,14.997988 0 0 1 0.304687,-0.117187 14.998205,14.997988 0 0 1 0.306641,-0.109375 14.998205,14.997988 0 0 1 0.308594,-0.103516 14.998205,14.997988 0 0 1 0.310547,-0.0957 14.998205,14.997988 0 0 1 0.314453,-0.08984 14.998205,14.997988 0 0 1 0.314453,-0.08203 14.998205,14.997988 0 0 1 0.316406,-0.07617 14.998205,14.997988 0 0 1 0.31836,-0.07031 14.998205,14.997988 0 0 1 0.320312,-0.06055 14.998205,14.997988 0 0 1 0.320313,-0.05664 14.998205,14.997988 0 0 1 0.322265,-0.04687 14.998205,14.997988 0 0 1 0.322266,-0.04102 14.998205,14.997988 0 0 1 0.324219,-0.03516 14.998205,14.997988 0 0 1 0.324218,-0.02734 14.998205,14.997988 0 0 1 0.326172,-0.01953 14.998205,14.997988 0 0 1 0.324219,-0.01367 14.998205,14.997988 0 0 1 0.326172,-0.0059 z"
       transform="matrix(0.15875756,0,0,0.15875793,27.093138,6.8254129)" />
    <path
       id="viseme_u-0"
       style="opacity:0.999;fill:#a11213;fill-opacity:1;stroke:none;stroke-width:0.589422;stroke-linecap:round;stroke-linejoin:miter;stroke-miterlimit:4;stroke-dasharray:none;stroke-opacity:1;paint-order:stroke fill markers;filter:url(#filter975)"
       d="M 20.798828,87.001953 A 19.998271,19.99825 0 0 0 1.0019531,107 19.998271,19.99825 0 0 0 21,126.99805 19.998271,19.99825 0 0 0 40.998047,107 19.998271,19.99825 0 0 0 21,87.001953 a 19.998271,19.99825 0 0 0 -0.201172,0 z m 0.08984,5 a 14.998205,14.997988 0 0 1 0.111328,0 14.998205,14.997988 0 0 1 0.326172,0.0039 14.998205,14.997988 0 0 1 0.324219,0.0098 14.998205,14.997988 0 0 1 0.326171,0.01758 14.998205,14.997988 0 0 1 0.324219,0.02539 14.998205,14.997988 0 0 1 0.324219,0.03125 14.998205,14.997988 0 0 1 0.324219,0.03906 14.998205,14.997988 0 0 1 0.322265,0.04687 14.998205,14.997988 0 0 1 0.320313,0.05273 14.998205,14.997988 0 0 1 0.320312,0.05859 14.998205,14.997988 0 0 1 0.31836,0.06641 14.998205,14.997988 0 0 1 0.318359,0.07422 14.998205,14.997988 0 0 1 0.314453,0.08008 14.998205,14.997988 0 0 1 0.314453,0.08789 14.998205,14.997988 0 0 1 0.3125,0.09375 14.998205,14.997988 0 0 1 0.308594,0.101563 14.998205,14.997988 0 0 1 0.306641,0.107422 14.998205,14.997988 0 0 1 0.30664,0.113281 14.998205,14.997988 0 0 1 0.300782,0.121093 14.998205,14.997988 0 0 1 0.300781,0.126954 14.998205,14.997988 0 0 1 0.296875,0.134765 14.998205,14.997988 0 0 1 0.292969,0.140625 14.998205,14.997988 0 0 1 0.291015,0.146485 14.998205,14.997988 0 0 1 0.289063,0.152343 14.998205,14.997988 0 0 1 0.283203,0.158204 14.998205,14.997988 0 0 1 0.28125,0.166015 14.998205,14.997988 0 0 1 0.277344,0.171875 14.998205,14.997988 0 0 1 0.271484,0.175781 14.998205,14.997988 0 0 1 0.269531,0.183594 14.998205,14.997988 0 0 1 0.265625,0.189453 14.998205,14.997988 0 0 1 0.261719,0.19336 14.998205,14.997988 0 0 1 0.255859,0.201172 14.998205,14.997988 0 0 1 0.253907,0.205078 14.998205,14.997988 0 0 1 0.246093,0.210937 14.998205,14.997988 0 0 1 0.244141,0.216797 14.998205,14.997988 0 0 1 0.238281,0.222656 14.998205,14.997988 0 0 1 0.234375,0.226563 14.998205,14.997988 0 0 1 0.228516,0.232422 14.998205,14.997988 0 0 1 0.222656,0.236328 14.998205,14.997988 0 0 1 0.21875,0.242187 14.998205,14.997988 0 0 1 0.212891,0.246094 14.998205,14.997988 0 0 1 0.207031,0.25 14.998205,14.997988 0 0 1 0.203125,0.255859 14.998205,14.997988 0 0 1 0.197266,0.259766 14.998205,14.997988 0 0 1 0.189453,0.263672 14.998205,14.997988 0 0 1 0.185547,0.267578 14.998205,14.997988 0 0 1 0.179687,0.271484 14.998205,14.997988 0 0 1 0.173828,0.275391 14.998205,14.997988 0 0 1 0.166016,0.28125 14.998205,14.997988 0 0 1 0.162109,0.28125 14.998205,14.997988 0 0 1 0.154297,0.28711 14.998205,14.997988 0 0 1 0.148438,0.28906 14.998205,14.997988 0 0 1 0.142578,0.29297 14.998205,14.997988 0 0 1 0.136718,0.29688 14.998205,14.997988 0 0 1 0.128907,0.29882 14.998205,14.997988 0 0 1 0.123047,0.30079 14.998205,14.997988 0 0 1 0.117187,0.30468 14.998205,14.997988 0 0 1 0.109375,0.30664 14.998205,14.997988 0 0 1 0.103516,0.3086 14.998205,14.997988 0 0 1 0.0957,0.31054 14.998205,14.997988 0 0 1 0.08984,0.31446 14.998205,14.997988 0 0 1 0.08203,0.31445 14.998205,14.997988 0 0 1 0.07617,0.31641 14.998205,14.997988 0 0 1 0.07031,0.31836 14.998205,14.997988 0 0 1 0.06055,0.32031 14.998205,14.997988 0 0 1 0.05664,0.32031 14.998205,14.997988 0 0 1 0.04687,0.32227 14.998205,14.997988 0 0 1 0.04102,0.32226 14.998205,14.997988 0 0 1 0.03516,0.32422 14.998205,14.997988 0 0 1 0.02734,0.32422 14.998205,14.997988 0 0 1 0.01953,0.32617 14.998205,14.997988 0 0 1 0.01367,0.32422 14.998205,14.997988 0 0 1 0.0059,0.32617 14.998205,14.997988 0 0 1 0,0.11133 14.998205,14.997988 0 0 1 -0.0039,0.32617 14.998205,14.997988 0 0 1 -0.0098,0.32422 14.998205,14.997988 0 0 1 -0.01758,0.32617 14.998205,14.997988 0 0 1 -0.02539,0.32422 14.998205,14.997988 0 0 1 -0.03125,0.32422 14.998205,14.997988 0 0 1 -0.03906,0.32422 14.998205,14.997988 0 0 1 -0.04492,0.32226 14.998205,14.997988 0 0 1 -0.05273,0.32032 14.998205,14.997988 0 0 1 -0.06055,0.32031 14.998205,14.997988 0 0 1 -0.06641,0.31836 14.998205,14.997988 0 0 1 -0.07422,0.31836 14.998205,14.997988 0 0 1 -0.08008,0.31445 14.998205,14.997988 0 0 1 -0.08789,0.31445 14.998205,14.997988 0 0 1 -0.09375,0.31055 14.998205,14.997988 0 0 1 -0.101563,0.31055 14.998205,14.997988 0 0 1 -0.107422,0.30664 14.998205,14.997988 0 0 1 -0.113281,0.30664 14.998205,14.997988 0 0 1 -0.121093,0.30078 14.998205,14.997988 0 0 1 -0.126954,0.30078 14.998205,14.997988 0 0 1 -0.134765,0.29688 14.998205,14.997988 0 0 1 -0.138672,0.29297 14.998205,14.997988 0 0 1 -0.148438,0.29101 14.998205,14.997988 0 0 1 -0.152343,0.28711 14.998205,14.997988 0 0 1 -0.158204,0.28516 14.998205,14.997988 0 0 1 -0.166015,0.28125 14.998205,14.997988 0 0 1 -0.169922,0.27539 14.998205,14.997988 0 0 1 -0.177734,0.27344 14.998205,14.997988 0 0 1 -0.183594,0.26953 14.998205,14.997988 0 0 1 -0.189453,0.26562 14.998205,14.997988 0 0 1 -0.19336,0.26172 14.998205,14.997988 0 0 1 -0.201172,0.25586 14.998205,14.997988 0 0 1 -0.205078,0.25195 14.998205,14.997988 0 0 1 -0.210937,0.24805 14.998205,14.997988 0 0 1 -0.216797,0.24414 14.998205,14.997988 0 0 1 -0.222656,0.23828 14.998205,14.997988 0 0 1 -0.226563,0.23438 14.998205,14.997988 0 0 1 -0.232422,0.22851 14.998205,14.997988 0 0 1 -0.236328,0.22266 14.998205,14.997988 0 0 1 -0.242187,0.21875 14.998205,14.997988 0 0 1 -0.246094,0.21289 14.998205,14.997988 0 0 1 -0.25,0.20703 14.998205,14.997988 0 0 1 -0.255859,0.20313 14.998205,14.997988 0 0 1 -0.259766,0.19531 14.998205,14.997988 0 0 1 -0.263672,0.1914 14.998205,14.997988 0 0 1 -0.267578,0.18555 14.998205,14.997988 0 0 1 -0.271484,0.17969 14.998205,14.997988 0 0 1 -0.275391,0.17187 14.998205,14.997988 0 0 1 -0.28125,0.16797 14.998205,14.997988 0 0 1 -0.28125,0.16211 14.998205,14.997988 0 0 1 -0.287109,0.1543 14.998205,14.997988 0 0 1 -0.289063,0.14844 14.998205,14.997988 0 0 1 -0.292969,0.14257 14.998205,14.997988 0 0 1 -0.296875,0.13672 14.998205,14.997988 0 0 1 -0.298828,0.12891 14.998205,14.997988 0 0 1 -0.300781,0.12305 14.998205,14.997988 0 0 1 -0.304687,0.11718 14.998205,14.997988 0 0 1 -0.306641,0.10938 14.998205,14.997988 0 0 1 -0.308594,0.10351 14.998205,14.997988 0 0 1 -0.310547,0.0957 14.998205,14.997988 0 0 1 -0.314453,0.0898 14.998205,14.997988 0 0 1 -0.314453,0.082 14.998205,14.997988 0 0 1 -0.316406,0.0762 14.998205,14.997988 0 0 1 -0.31836,0.0684 14.998205,14.997988 0 0 1 -0.320312,0.0625 14.998205,14.997988 0 0 1 -0.320313,0.0566 14.998205,14.997988 0 0 1 -0.322265,0.0469 14.998205,14.997988 0 0 1 -0.322266,0.041 14.998205,14.997988 0 0 1 -0.324219,0.0352 14.998205,14.997988 0 0 1 -0.324218,0.0273 14.998205,14.997988 0 0 1 -0.326172,0.0195 14.998205,14.997988 0 0 1 -0.324219,0.0137 14.998205,14.997988 0 0 1 -0.326172,0.006 14.998205,14.997988 0 0 1 -0.111328,0 14.998205,14.997988 0 0 1 -0.326172,-0.004 14.998205,14.997988 0 0 1 -0.324219,-0.01 14.998205,14.997988 0 0 1 -0.326171,-0.0176 14.998205,14.997988 0 0 1 -0.324219,-0.0254 14.998205,14.997988 0 0 1 -0.324219,-0.0312 14.998205,14.997988 0 0 1 -0.324219,-0.0391 14.998205,14.997988 0 0 1 -0.322265,-0.0469 14.998205,14.997988 0 0 1 -0.320313,-0.0527 14.998205,14.997988 0 0 1 -0.320312,-0.0586 14.998205,14.997988 0 0 1 -0.31836,-0.0664 14.998205,14.997988 0 0 1 -0.318359,-0.0742 14.998205,14.997988 0 0 1 -0.314453,-0.0801 14.998205,14.997988 0 0 1 -0.314453,-0.0879 14.998205,14.997988 0 0 1 -0.3125,-0.0937 14.998205,14.997988 0 0 1 -0.308594,-0.10157 14.998205,14.997988 0 0 1 -0.306641,-0.10742 14.998205,14.997988 0 0 1 -0.30664,-0.11328 14.998205,14.997988 0 0 1 -0.300782,-0.12109 14.998205,14.997988 0 0 1 -0.300781,-0.12696 14.998205,14.997988 0 0 1 -0.296875,-0.13476 14.998205,14.997988 0 0 1 -0.292969,-0.14063 14.998205,14.997988 0 0 1 -0.291015,-0.14648 14.998205,14.997988 0 0 1 -0.289063,-0.15234 14.998205,14.997988 0 0 1 -0.283203,-0.15821 14.998205,14.997988 0 0 1 -0.28125,-0.16601 14.998205,14.997988 0 0 1 -0.277344,-0.17188 14.998205,14.997988 0 0 1 -0.271484,-0.17578 14.998205,14.997988 0 0 1 -0.269531,-0.18359 14.998205,14.997988 0 0 1 -0.265625,-0.18946 14.998205,14.997988 0 0 1 -0.261719,-0.19336 14.998205,14.997988 0 0 1 -0.255859,-0.20117 14.998205,14.997988 0 0 1 -0.253907,-0.20508 14.998205,14.997988 0 0 1 -0.246093,-0.21093 14.998205,14.997988 0 0 1 -0.244141,-0.2168 14.998205,14.997988 0 0 1 -0.238281,-0.22266 14.998205,14.997988 0 0 1 -0.234375,-0.22656 14.998205,14.997988 0 0 1 -0.228516,-0.23242 14.998205,14.997988 0 0 1 -0.2226561,-0.23633 14.998205,14.997988 0 0 1 -0.21875,-0.24219 14.998205,14.997988 0 0 1 -0.2128907,-0.24609 14.998205,14.997988 0 0 1 -0.2070312,-0.25 14.998205,14.997988 0 0 1 -0.203125,-0.25586 14.998205,14.997988 0 0 1 -0.1972656,-0.25976 14.998205,14.997988 0 0 1 -0.1894532,-0.26368 14.998205,14.997988 0 0 1 -0.1855468,-0.26758 14.998205,14.997988 0 0 1 -0.1796875,-0.27148 14.998205,14.997988 0 0 1 -0.1738281,-0.27734 14.998205,14.997988 0 0 1 -0.1660157,-0.2793 14.998205,14.997988 0 0 1 -0.1621093,-0.28125 14.998205,14.997988 0 0 1 -0.1542969,-0.28711 14.998205,14.997988 0 0 1 -0.1484375,-0.28906 14.998205,14.997988 0 0 1 -0.1425782,-0.29297 14.998205,14.997988 0 0 1 -0.1367187,-0.29688 14.998205,14.997988 0 0 1 -0.1289063,-0.29882 14.998205,14.997988 0 0 1 -0.1230468,-0.30079 14.998205,14.997988 0 0 1 -0.1171875,-0.30468 14.998205,14.997988 0 0 1 -0.109375,-0.30664 14.998205,14.997988 0 0 1 -0.1035157,-0.3086 14.998205,14.997988 0 0 1 -0.095703,-0.31054 14.998205,14.997988 0 0 1 -0.089844,-0.31446 14.998205,14.997988 0 0 1 -0.082031,-0.31445 14.998205,14.997988 0 0 1 -0.076172,-0.31641 14.998205,14.997988 0 0 1 -0.070312,-0.31836 14.998205,14.997988 0 0 1 -0.060547,-0.32031 14.998205,14.997988 0 0 1 -0.056641,-0.32031 14.998205,14.997988 0 0 1 -0.046875,-0.32227 14.998205,14.997988 0 0 1 -0.041016,-0.32226 14.998205,14.997988 0 0 1 -0.035156,-0.32422 14.998205,14.997988 0 0 1 -0.027344,-0.32422 14.998205,14.997988 0 0 1 -0.019531,-0.32617 14.998205,14.997988 0 0 1 -0.013672,-0.32422 14.998205,14.997988 0 0 1 -0.00586,-0.32617 14.998205,14.997988 0 0 1 0,-0.11133 14.998205,14.997988 0 0 1 0.00391,-0.32617 14.998205,14.997988 0 0 1 0.00977,-0.32422 14.998205,14.997988 0 0 1 0.017578,-0.32617 14.998205,14.997988 0 0 1 0.025391,-0.32422 14.998205,14.997988 0 0 1 0.03125,-0.32422 14.998205,14.997988 0 0 1 0.039062,-0.32422 14.998205,14.997988 0 0 1 0.044922,-0.32226 14.998205,14.997988 0 0 1 0.052734,-0.32032 14.998205,14.997988 0 0 1 0.060547,-0.32031 14.998205,14.997988 0 0 1 0.066406,-0.31836 14.998205,14.997988 0 0 1 0.074219,-0.31836 14.998205,14.997988 0 0 1 0.080078,-0.31445 14.998205,14.997988 0 0 1 0.087891,-0.31445 14.998205,14.997988 0 0 1 0.09375,-0.3125 14.998205,14.997988 0 0 1 0.1015625,-0.3086 14.998205,14.997988 0 0 1 0.1074219,-0.30664 14.998205,14.997988 0 0 1 0.1132813,-0.30664 14.998205,14.997988 0 0 1 0.1210937,-0.30078 14.998205,14.997988 0 0 1 0.1269531,-0.30078 14.998205,14.997988 0 0 1 0.1347656,-0.29688 14.998205,14.997988 0 0 1 0.1386719,-0.29297 14.998205,14.997988 0 0 1 0.1484375,-0.29101 14.998205,14.997988 0 0 1 0.1523438,-0.287111 14.998205,14.997988 0 0 1 0.1582031,-0.285156 14.998205,14.997988 0 0 1 0.1660156,-0.28125 A 14.998205,14.997988 0 0 1 8.328125,98.976562 14.998205,14.997988 0 0 1 8.5058594,98.703125 14.998205,14.997988 0 0 1 8.6894531,98.433594 14.998205,14.997988 0 0 1 8.8789062,98.167969 14.998205,14.997988 0 0 1 9.0722656,97.90625 14.998205,14.997988 0 0 1 9.2734375,97.650391 14.998205,14.997988 0 0 1 9.4785156,97.398438 14.998205,14.997988 0 0 1 9.6894531,97.150391 14.998205,14.997988 0 0 1 9.90625,96.90625 a 14.998205,14.997988 0 0 1 0.222656,-0.238281 14.998205,14.997988 0 0 1 0.226563,-0.234375 14.998205,14.997988 0 0 1 0.232422,-0.228516 14.998205,14.997988 0 0 1 0.236328,-0.222656 14.998205,14.997988 0 0 1 0.242187,-0.21875 14.998205,14.997988 0 0 1 0.246094,-0.212891 14.998205,14.997988 0 0 1 0.25,-0.207031 14.998205,14.997988 0 0 1 0.255859,-0.203125 14.998205,14.997988 0 0 1 0.259766,-0.195313 14.998205,14.997988 0 0 1 0.263672,-0.191406 14.998205,14.997988 0 0 1 0.267578,-0.185547 14.998205,14.997988 0 0 1 0.271484,-0.179687 14.998205,14.997988 0 0 1 0.275391,-0.171875 14.998205,14.997988 0 0 1 0.28125,-0.167969 14.998205,14.997988 0 0 1 0.28125,-0.162109 14.998205,14.997988 0 0 1 0.287109,-0.154297 14.998205,14.997988 0 0 1 0.289063,-0.148438 14.998205,14.997988 0 0 1 0.292969,-0.142578 14.998205,14.997988 0 0 1 0.296875,-0.136718 14.998205,14.997988 0 0 1 0.298828,-0.128907 14.998205,14.997988 0 0 1 0.300781,-0.123047 14.998205,14.997988 0 0 1 0.304687,-0.117187 14.998205,14.997988 0 0 1 0.306641,-0.109375 14.998205,14.997988 0 0 1 0.308594,-0.103516 14.998205,14.997988 0 0 1 0.310547,-0.0957 14.998205,14.997988 0 0 1 0.314453,-0.08984 14.998205,14.997988 0 0 1 0.314453,-0.08203 14.998205,14.997988 0 0 1 0.316406,-0.07617 14.998205,14.997988 0 0 1 0.31836,-0.07031 14.998205,14.997988 0 0 1 0.320312,-0.06055 14.998205,14.997988 0 0 1 0.320313,-0.05664 14.998205,14.997988 0 0 1 0.322265,-0.04687 14.998205,14.997988 0 0 1 0.322266,-0.04102 14.998205,14.997988 0 0 1 0.324219,-0.03516 14.998205,14.997988 0 0 1 0.324218,-0.02734 14.998205,14.997988 0 0 1 0.326172,-0.01953 14.998205,14.997988 0 0 1 0.324219,-0.01367 14.998205,14.997988 0 0 1 0.326172,-0.0059 z"
       transform="matrix(0.15875756,0,0,0.15875793,27.093138,0.21082972)" />
    <path
       id="viseme_e-2"
       style="opacity:0.999;fill:#50008e;fill-opacity:1;stroke:none;stroke-width:0.589422;stroke-linecap:round;stroke-linejoin:miter;stroke-miterlimit:4;stroke-dasharray:none;stroke-opacity:1;paint-order:stroke fill markers;filter:url(#filter975)"
       d="M 20.798828,87.001953 A 19.998271,19.99825 0 0 0 1.0019531,107 19.998271,19.99825 0 0 0 21,126.99805 19.998271,19.99825 0 0 0 40.998047,107 19.998271,19.99825 0 0 0 21,87.001953 a 19.998271,19.99825 0 0 0 -0.201172,0 z m 0.08984,5 a 14.998205,14.997988 0 0 1 0.111328,0 14.998205,14.997988 0 0 1 0.326172,0.0039 14.998205,14.997988 0 0 1 0.324219,0.0098 14.998205,14.997988 0 0 1 0.326171,0.01758 14.998205,14.997988 0 0 1 0.324219,0.02539 14.998205,14.997988 0 0 1 0.324219,0.03125 14.998205,14.997988 0 0 1 0.324219,0.03906 14.998205,14.997988 0 0 1 0.322265,0.04687 14.998205,14.997988 0 0 1 0.320313,0.05273 14.998205,14.997988 0 0 1 0.320312,0.05859 14.998205,14.997988 0 0 1 0.31836,0.06641 14.998205,14.997988 0 0 1 0.318359,0.07422 14.998205,14.997988 0 0 1 0.314453,0.08008 14.998205,14.997988 0 0 1 0.314453,0.08789 14.998205,14.997988 0 0 1 0.3125,0.09375 14.998205,14.997988 0 0 1 0.308594,0.101563 14.998205,14.997988 0 0 1 0.306641,0.107422 14.998205,14.997988 0 0 1 0.30664,0.113281 14.998205,14.997988 0 0 1 0.300782,0.121093 14.998205,14.997988 0 0 1 0.300781,0.126954 14.998205,14.997988 0 0 1 0.296875,0.134765 14.998205,14.997988 0 0 1 0.292969,0.140625 14.998205,14.997988 0 0 1 0.291015,0.146485 14.998205,14.997988 0 0 1 0.289063,0.152343 14.998205,14.997988 0 0 1 0.283203,0.158204 14.998205,14.997988 0 0 1 0.28125,0.166015 14.998205,14.997988 0 0 1 0.277344,0.171875 14.998205,14.997988 0 0 1 0.271484,0.175781 14.998205,14.997988 0 0 1 0.269531,0.183594 14.998205,14.997988 0 0 1 0.265625,0.189453 14.998205,14.997988 0 0 1 0.261719,0.19336 14.998205,14.997988 0 0 1 0.255859,0.201172 14.998205,14.997988 0 0 1 0.253907,0.205078 14.998205,14.997988 0 0 1 0.246093,0.210937 14.998205,14.997988 0 0 1 0.244141,0.216797 14.998205,14.997988 0 0 1 0.238281,0.222656 14.998205,14.997988 0 0 1 0.234375,0.226563 14.998205,14.997988 0 0 1 0.228516,0.232422 14.998205,14.997988 0 0 1 0.222656,0.236328 14.998205,14.997988 0 0 1 0.21875,0.242187 14.998205,14.997988 0 0 1 0.212891,0.246094 14.998205,14.997988 0 0 1 0.207031,0.25 14.998205,14.997988 0 0 1 0.203125,0.255859 14.998205,14.997988 0 0 1 0.197266,0.259766 14.998205,14.997988 0 0 1 0.189453,0.263672 14.998205,14.997988 0 0 1 0.185547,0.267578 14.998205,14.997988 0 0 1 0.179687,0.271484 14.998205,14.997988 0 0 1 0.173828,0.275391 14.998205,14.997988 0 0 1 0.166016,0.28125 14.998205,14.997988 0 0 1 0.162109,0.28125 14.998205,14.997988 0 0 1 0.154297,0.28711 14.998205,14.997988 0 0 1 0.148438,0.28906 14.998205,14.997988 0 0 1 0.142578,0.29297 14.998205,14.997988 0 0 1 0.136718,0.29688 14.998205,14.997988 0 0 1 0.128907,0.29882 14.998205,14.997988 0 0 1 0.123047,0.30079 14.998205,14.997988 0 0 1 0.117187,0.30468 14.998205,14.997988 0 0 1 0.109375,0.30664 14.998205,14.997988 0 0 1 0.103516,0.3086 14.998205,14.997988 0 0 1 0.0957,0.31054 14.998205,14.997988 0 0 1 0.08984,0.31446 14.998205,14.997988 0 0 1 0.08203,0.31445 14.998205,14.997988 0 0 1 0.07617,0.31641 14.998205,14.997988 0 0 1 0.07031,0.31836 14.998205,14.997988 0 0 1 0.06055,0.32031 14.998205,14.997988 0 0 1 0.05664,0.32031 14.998205,14.997988 0 0 1 0.04687,0.32227 14.998205,14.997988 0 0 1 0.04102,0.32226 14.998205,14.997988 0 0 1 0.03516,0.32422 14.998205,14.997988 0 0 1 0.02734,0.32422 14.998205,14.997988 0 0 1 0.01953,0.32617 14.998205,14.997988 0 0 1 0.01367,0.32422 14.998205,14.997988 0 0 1 0.0059,0.32617 14.998205,14.997988 0 0 1 0,0.11133 14.998205,14.997988 0 0 1 -0.0039,0.32617 14.998205,14.997988 0 0 1 -0.0098,0.32422 14.998205,14.997988 0 0 1 -0.01758,0.32617 14.998205,14.997988 0 0 1 -0.02539,0.32422 14.998205,14.997988 0 0 1 -0.03125,0.32422 14.998205,14.997988 0 0 1 -0.03906,0.32422 14.998205,14.997988 0 0 1 -0.04492,0.32226 14.998205,14.997988 0 0 1 -0.05273,0.32032 14.998205,14.997988 0 0 1 -0.06055,0.32031 14.998205,14.997988 0 0 1 -0.06641,0.31836 14.998205,14.997988 0 0 1 -0.07422,0.31836 14.998205,14.997988 0 0 1 -0.08008,0.31445 14.998205,14.997988 0 0 1 -0.08789,0.31445 14.998205,14.997988 0 0 1 -0.09375,0.31055 14.998205,14.997988 0 0 1 -0.101563,0.31055 14.998205,14.997988 0 0 1 -0.107422,0.30664 14.998205,14.997988 0 0 1 -0.113281,0.30664 14.998205,14.997988 0 0 1 -0.121093,0.30078 14.998205,14.997988 0 0 1 -0.126954,0.30078 14.998205,14.997988 0 0 1 -0.134765,0.29688 14.998205,14.997988 0 0 1 -0.138672,0.29297 14.998205,14.997988 0 0 1 -0.148438,0.29101 14.998205,14.997988 0 0 1 -0.152343,0.28711 14.998205,14.997988 0 0 1 -0.158204,0.28516 14.998205,14.997988 0 0 1 -0.166015,0.28125 14.998205,14.997988 0 0 1 -0.169922,0.27539 14.998205,14.997988 0 0 1 -0.177734,0.27344 14.998205,14.997988 0 0 1 -0.183594,0.26953 14.998205,14.997988 0 0 1 -0.189453,0.26562 14.998205,14.997988 0 0 1 -0.19336,0.26172 14.998205,14.997988 0 0 1 -0.201172,0.25586 14.998205,14.997988 0 0 1 -0.205078,0.25195 14.998205,14.997988 0 0 1 -0.210937,0.24805 14.998205,14.997988 0 0 1 -0.216797,0.24414 14.998205,14.997988 0 0 1 -0.222656,0.23828 14.998205,14.997988 0 0 1 -0.226563,0.23438 14.998205,14.997988 0 0 1 -0.232422,0.22851 14.998205,14.997988 0 0 1 -0.236328,0.22266 14.998205,14.997988 0 0 1 -0.242187,0.21875 14.998205,14.997988 0 0 1 -0.246094,0.21289 14.998205,14.997988 0 0 1 -0.25,0.20703 14.998205,14.997988 0 0 1 -0.255859,0.20313 14.998205,14.997988 0 0 1 -0.259766,0.19531 14.998205,14.997988 0 0 1 -0.263672,0.1914 14.998205,14.997988 0 0 1 -0.267578,0.18555 14.998205,14.997988 0 0 1 -0.271484,0.17969 14.998205,14.997988 0 0 1 -0.275391,0.17187 14.998205,14.997988 0 0 1 -0.28125,0.16797 14.998205,14.997988 0 0 1 -0.28125,0.16211 14.998205,14.997988 0 0 1 -0.287109,0.1543 14.998205,14.997988 0 0 1 -0.289063,0.14844 14.998205,14.997988 0 0 1 -0.292969,0.14257 14.998205,14.997988 0 0 1 -0.296875,0.13672 14.998205,14.997988 0 0 1 -0.298828,0.12891 14.998205,14.997988 0 0 1 -0.300781,0.12305 14.998205,14.997988 0 0 1 -0.304687,0.11718 14.998205,14.997988 0 0 1 -0.306641,0.10938 14.998205,14.997988 0 0 1 -0.308594,0.10351 14.998205,14.997988 0 0 1 -0.310547,0.0957 14.998205,14.997988 0 0 1 -0.314453,0.0898 14.998205,14.997988 0 0 1 -0.314453,0.082 14.998205,14.997988 0 0 1 -0.316406,0.0762 14.998205,14.997988 0 0 1 -0.31836,0.0684 14.998205,14.997988 0 0 1 -0.320312,0.0625 14.998205,14.997988 0 0 1 -0.320313,0.0566 14.998205,14.997988 0 0 1 -0.322265,0.0469 14.998205,14.997988 0 0 1 -0.322266,0.041 14.998205,14.997988 0 0 1 -0.324219,0.0352 14.998205,14.997988 0 0 1 -0.324218,0.0273 14.998205,14.997988 0 0 1 -0.326172,0.0195 14.998205,14.997988 0 0 1 -0.324219,0.0137 14.998205,14.997988 0 0 1 -0.326172,0.006 14.998205,14.997988 0 0 1 -0.111328,0 14.998205,14.997988 0 0 1 -0.326172,-0.004 14.998205,14.997988 0 0 1 -0.324219,-0.01 14.998205,14.997988 0 0 1 -0.326171,-0.0176 14.998205,14.997988 0 0 1 -0.324219,-0.0254 14.998205,14.997988 0 0 1 -0.324219,-0.0312 14.998205,14.997988 0 0 1 -0.324219,-0.0391 14.998205,14.997988 0 0 1 -0.322265,-0.0469 14.998205,14.997988 0 0 1 -0.320313,-0.0527 14.998205,14.997988 0 0 1 -0.320312,-0.0586 14.998205,14.997988 0 0 1 -0.31836,-0.0664 14.998205,14.997988 0 0 1 -0.318359,-0.0742 14.998205,14.997988 0 0 1 -0.314453,-0.0801 14.998205,14.997988 0 0 1 -0.314453,-0.0879 14.998205,14.997988 0 0 1 -0.3125,-0.0937 14.998205,14.997988 0 0 1 -0.308594,-0.10157 14.998205,14.997988 0 0 1 -0.306641,-0.10742 14.998205,14.997988 0 0 1 -0.30664,-0.11328 14.998205,14.997988 0 0 1 -0.300782,-0.12109 14.998205,14.997988 0 0 1 -0.300781,-0.12696 14.998205,14.997988 0 0 1 -0.296875,-0.13476 14.998205,14.997988 0 0 1 -0.292969,-0.14063 14.998205,14.997988 0 0 1 -0.291015,-0.14648 14.998205,14.997988 0 0 1 -0.289063,-0.15234 14.998205,14.997988 0 0 1 -0.283203,-0.15821 14.998205,14.997988 0 0 1 -0.28125,-0.16601 14.998205,14.997988 0 0 1 -0.277344,-0.17188 14.998205,14.997988 0 0 1 -0.271484,-0.17578 14.998205,14.997988 0 0 1 -0.269531,-0.18359 14.998205,14.997988 0 0 1 -0.265625,-0.18946 14.998205,14.997988 0 0 1 -0.261719,-0.19336 14.998205,14.997988 0 0 1 -0.255859,-0.20117 14.998205,14.997988 0 0 1 -0.253907,-0.20508 14.998205,14.997988 0 0 1 -0.246093,-0.21093 14.998205,14.997988 0 0 1 -0.244141,-0.2168 14.998205,14.997988 0 0 1 -0.238281,-0.22266 14.998205,14.997988 0 0 1 -0.234375,-0.22656 14.998205,14.997988 0 0 1 -0.228516,-0.23242 14.998205,14.997988 0 0 1 -0.2226561,-0.23633 14.998205,14.997988 0 0 1 -0.21875,-0.24219 14.998205,14.997988 0 0 1 -0.2128907,-0.24609 14.998205,14.997988 0 0 1 -0.2070312,-0.25 14.998205,14.997988 0 0 1 -0.203125,-0.25586 14.998205,14.997988 0 0 1 -0.1972656,-0.25976 14.998205,14.997988 0 0 1 -0.1894532,-0.26368 14.998205,14.997988 0 0 1 -0.1855468,-0.26758 14.998205,14.997988 0 0 1 -0.1796875,-0.27148 14.998205,14.997988 0 0 1 -0.1738281,-0.27734 14.998205,14.997988 0 0 1 -0.1660157,-0.2793 14.998205,14.997988 0 0 1 -0.1621093,-0.28125 14.998205,14.997988 0 0 1 -0.1542969,-0.28711 14.998205,14.997988 0 0 1 -0.1484375,-0.28906 14.998205,14.997988 0 0 1 -0.1425782,-0.29297 14.998205,14.997988 0 0 1 -0.1367187,-0.29688 14.998205,14.997988 0 0 1 -0.1289063,-0.29882 14.998205,14.997988 0 0 1 -0.1230468,-0.30079 14.998205,14.997988 0 0 1 -0.1171875,-0.30468 14.998205,14.997988 0 0 1 -0.109375,-0.30664 14.998205,14.997988 0 0 1 -0.1035157,-0.3086 14.998205,14.997988 0 0 1 -0.095703,-0.31054 14.998205,14.997988 0 0 1 -0.089844,-0.31446 14.998205,14.997988 0 0 1 -0.082031,-0.31445 14.998205,14.997988 0 0 1 -0.076172,-0.31641 14.998205,14.997988 0 0 1 -0.070312,-0.31836 14.998205,14.997988 0 0 1 -0.060547,-0.32031 14.998205,14.997988 0 0 1 -0.056641,-0.32031 14.998205,14.997988 0 0 1 -0.046875,-0.32227 14.998205,14.997988 0 0 1 -0.041016,-0.32226 14.998205,14.997988 0 0 1 -0.035156,-0.32422 14.998205,14.997988 0 0 1 -0.027344,-0.32422 14.998205,14.997988 0 0 1 -0.019531,-0.32617 14.998205,14.997988 0 0 1 -0.013672,-0.32422 14.998205,14.997988 0 0 1 -0.00586,-0.32617 14.998205,14.997988 0 0 1 0,-0.11133 14.998205,14.997988 0 0 1 0.00391,-0.32617 14.998205,14.997988 0 0 1 0.00977,-0.32422 14.998205,14.997988 0 0 1 0.017578,-0.32617 14.998205,14.997988 0 0 1 0.025391,-0.32422 14.998205,14.997988 0 0 1 0.03125,-0.32422 14.998205,14.997988 0 0 1 0.039062,-0.32422 14.998205,14.997988 0 0 1 0.044922,-0.32226 14.998205,14.997988 0 0 1 0.052734,-0.32032 14.998205,14.997988 0 0 1 0.060547,-0.32031 14.998205,14.997988 0 0 1 0.066406,-0.31836 14.998205,14.997988 0 0 1 0.074219,-0.31836 14.998205,14.997988 0 0 1 0.080078,-0.31445 14.998205,14.997988 0 0 1 0.087891,-0.31445 14.998205,14.997988 0 0 1 0.09375,-0.3125 14.998205,14.997988 0 0 1 0.1015625,-0.3086 14.998205,14.997988 0 0 1 0.1074219,-0.30664 14.998205,14.997988 0 0 1 0.1132813,-0.30664 14.998205,14.997988 0 0 1 0.1210937,-0.30078 14.998205,14.997988 0 0 1 0.1269531,-0.30078 14.998205,14.997988 0 0 1 0.1347656,-0.29688 14.998205,14.997988 0 0 1 0.1386719,-0.29297 14.998205,14.997988 0 0 1 0.1484375,-0.29101 14.998205,14.997988 0 0 1 0.1523438,-0.287111 14.998205,14.997988 0 0 1 0.1582031,-0.285156 14.998205,14.997988 0 0 1 0.1660156,-0.28125 A 14.998205,14.997988 0 0 1 8.328125,98.976562 14.998205,14.997988 0 0 1 8.5058594,98.703125 14.998205,14.997988 0 0 1 8.6894531,98.433594 14.998205,14.997988 0 0 1 8.8789062,98.167969 14.998205,14.997988 0 0 1 9.0722656,97.90625 14.998205,14.997988 0 0 1 9.2734375,97.650391 14.998205,14.997988 0 0 1 9.4785156,97.398438 14.998205,14.997988 0 0 1 9.6894531,97.150391 14.998205,14.997988 0 0 1 9.90625,96.90625 a 14.998205,14.997988 0 0 1 0.222656,-0.238281 14.998205,14.997988 0 0 1 0.226563,-0.234375 14.998205,14.997988 0 0 1 0.232422,-0.228516 14.998205,14.997988 0 0 1 0.236328,-0.222656 14.998205,14.997988 0 0 1 0.242187,-0.21875 14.998205,14.997988 0 0 1 0.246094,-0.212891 14.998205,14.997988 0 0 1 0.25,-0.207031 14.998205,14.997988 0 0 1 0.255859,-0.203125 14.998205,14.997988 0 0 1 0.259766,-0.195313 14.998205,14.997988 0 0 1 0.263672,-0.191406 14.998205,14.997988 0 0 1 0.267578,-0.185547 14.998205,14.997988 0 0 1 0.271484,-0.179687 14.998205,14.997988 0 0 1 0.275391,-0.171875 14.998205,14.997988 0 0 1 0.28125,-0.167969 14.998205,14.997988 0 0 1 0.28125,-0.162109 14.998205,14.997988 0 0 1 0.287109,-0.154297 14.998205,14.997988 0 0 1 0.289063,-0.148438 14.998205,14.997988 0 0 1 0.292969,-0.142578 14.998205,14.997988 0 0 1 0.296875,-0.136718 14.998205,14.997988 0 0 1 0.298828,-0.128907 14.998205,14.997988 0 0 1 0.300781,-0.123047 14.998205,14.997988 0 0 1 0.304687,-0.117187 14.998205,14.997988 0 0 1 0.306641,-0.109375 14.998205,14.997988 0 0 1 0.308594,-0.103516 14.998205,14.997988 0 0 1 0.310547,-0.0957 14.998205,14.997988 0 0 1 0.314453,-0.08984 14.998205,14.997988 0 0 1 0.314453,-0.08203 14.998205,14.997988 0 0 1 0.316406,-0.07617 14.998205,14.997988 0 0 1 0.31836,-0.07031 14.998205,14.997988 0 0 1 0.320312,-0.06055 14.998205,14.997988 0 0 1 0.320313,-0.05664 14.998205,14.997988 0 0 1 0.322265,-0.04687 14.998205,14.997988 0 0 1 0.322266,-0.04102 14.998205,14.997988 0 0 1 0.324219,-0.03516 14.998205,14.997988 0 0 1 0.324218,-0.02734 14.998205,14.997988 0 0 1 0.326172,-0.01953 14.998205,14.997988 0 0 1 0.324219,-0.01367 14.998205,14.997988 0 0 1 0.326172,-0.0059 z"
       transform="matrix(0.15875895,0,0,0.15875654,27.093137,-6.4036326)" />
    <path
       id="viseme_o-9"
       style="opacity:0.999;fill:#4dd900;fill-opacity:1;stroke:none;stroke-width:0.589422;stroke-linecap:round;stroke-linejoin:miter;stroke-miterlimit:4;stroke-dasharray:none;stroke-opacity:1;paint-order:stroke fill markers;filter:url(#filter975)"
       d="M 20.798828,87.001953 A 19.998271,19.99825 0 0 0 1.0019531,107 19.998271,19.99825 0 0 0 21,126.99805 19.998271,19.99825 0 0 0 40.998047,107 19.998271,19.99825 0 0 0 21,87.001953 a 19.998271,19.99825 0 0 0 -0.201172,0 z m 0.08984,5 a 14.998205,14.997988 0 0 1 0.111328,0 14.998205,14.997988 0 0 1 0.326172,0.0039 14.998205,14.997988 0 0 1 0.324219,0.0098 14.998205,14.997988 0 0 1 0.326171,0.01758 14.998205,14.997988 0 0 1 0.324219,0.02539 14.998205,14.997988 0 0 1 0.324219,0.03125 14.998205,14.997988 0 0 1 0.324219,0.03906 14.998205,14.997988 0 0 1 0.322265,0.04687 14.998205,14.997988 0 0 1 0.320313,0.05273 14.998205,14.997988 0 0 1 0.320312,0.05859 14.998205,14.997988 0 0 1 0.31836,0.06641 14.998205,14.997988 0 0 1 0.318359,0.07422 14.998205,14.997988 0 0 1 0.314453,0.08008 14.998205,14.997988 0 0 1 0.314453,0.08789 14.998205,14.997988 0 0 1 0.3125,0.09375 14.998205,14.997988 0 0 1 0.308594,0.101563 14.998205,14.997988 0 0 1 0.306641,0.107422 14.998205,14.997988 0 0 1 0.30664,0.113281 14.998205,14.997988 0 0 1 0.300782,0.121093 14.998205,14.997988 0 0 1 0.300781,0.126954 14.998205,14.997988 0 0 1 0.296875,0.134765 14.998205,14.997988 0 0 1 0.292969,0.140625 14.998205,14.997988 0 0 1 0.291015,0.146485 14.998205,14.997988 0 0 1 0.289063,0.152343 14.998205,14.997988 0 0 1 0.283203,0.158204 14.998205,14.997988 0 0 1 0.28125,0.166015 14.998205,14.997988 0 0 1 0.277344,0.171875 14.998205,14.997988 0 0 1 0.271484,0.175781 14.998205,14.997988 0 0 1 0.269531,0.183594 14.998205,14.997988 0 0 1 0.265625,0.189453 14.998205,14.997988 0 0 1 0.261719,0.19336 14.998205,14.997988 0 0 1 0.255859,0.201172 14.998205,14.997988 0 0 1 0.253907,0.205078 14.998205,14.997988 0 0 1 0.246093,0.210937 14.998205,14.997988 0 0 1 0.244141,0.216797 14.998205,14.997988 0 0 1 0.238281,0.222656 14.998205,14.997988 0 0 1 0.234375,0.226563 14.998205,14.997988 0 0 1 0.228516,0.232422 14.998205,14.997988 0 0 1 0.222656,0.236328 14.998205,14.997988 0 0 1 0.21875,0.242187 14.998205,14.997988 0 0 1 0.212891,0.246094 14.998205,14.997988 0 0 1 0.207031,0.25 14.998205,14.997988 0 0 1 0.203125,0.255859 14.998205,14.997988 0 0 1 0.197266,0.259766 14.998205,14.997988 0 0 1 0.189453,0.263672 14.998205,14.997988 0 0 1 0.185547,0.267578 14.998205,14.997988 0 0 1 0.179687,0.271484 14.998205,14.997988 0 0 1 0.173828,0.275391 14.998205,14.997988 0 0 1 0.166016,0.28125 14.998205,14.997988 0 0 1 0.162109,0.28125 14.998205,14.997988 0 0 1 0.154297,0.28711 14.998205,14.997988 0 0 1 0.148438,0.28906 14.998205,14.997988 0 0 1 0.142578,0.29297 14.998205,14.997988 0 0 1 0.136718,0.29688 14.998205,14.997988 0 0 1 0.128907,0.29882 14.998205,14.997988 0 0 1 0.123047,0.30079 14.998205,14.997988 0 0 1 0.117187,0.30468 14.998205,14.997988 0 0 1 0.109375,0.30664 14.998205,14.997988 0 0 1 0.103516,0.3086 14.998205,14.997988 0 0 1 0.0957,0.31054 14.998205,14.997988 0 0 1 0.08984,0.31446 14.998205,14.997988 0 0 1 0.08203,0.31445 14.998205,14.997988 0 0 1 0.07617,0.31641 14.998205,14.997988 0 0 1 0.07031,0.31836 14.998205,14.997988 0 0 1 0.06055,0.32031 14.998205,14.997988 0 0 1 0.05664,0.32031 14.998205,14.997988 0 0 1 0.04687,0.32227 14.998205,14.997988 0 0 1 0.04102,0.32226 14.998205,14.997988 0 0 1 0.03516,0.32422 14.998205,14.997988 0 0 1 0.02734,0.32422 14.998205,14.997988 0 0 1 0.01953,0.32617 14.998205,14.997988 0 0 1 0.01367,0.32422 14.998205,14.997988 0 0 1 0.0059,0.32617 14.998205,14.997988 0 0 1 0,0.11133 14.998205,14.997988 0 0 1 -0.0039,0.32617 14.998205,14.997988 0 0 1 -0.0098,0.32422 14.998205,14.997988 0 0 1 -0.01758,0.32617 14.998205,14.997988 0 0 1 -0.02539,0.32422 14.998205,14.997988 0 0 1 -0.03125,0.32422 14.998205,14.997988 0 0 1 -0.03906,0.32422 14.998205,14.997988 0 0 1 -0.04492,0.32226 14.998205,14.997988 0 0 1 -0.05273,0.32032 14.998205,14.997988 0 0 1 -0.06055,0.32031 14.998205,14.997988 0 0 1 -0.06641,0.31836 14.998205,14.997988 0 0 1 -0.07422,0.31836 14.998205,14.997988 0 0 1 -0.08008,0.31445 14.998205,14.997988 0 0 1 -0.08789,0.31445 14.998205,14.997988 0 0 1 -0.09375,0.31055 14.998205,14.997988 0 0 1 -0.101563,0.31055 14.998205,14.997988 0 0 1 -0.107422,0.30664 14.998205,14.997988 0 0 1 -0.113281,0.30664 14.998205,14.997988 0 0 1 -0.121093,0.30078 14.998205,14.997988 0 0 1 -0.126954,0.30078 14.998205,14.997988 0 0 1 -0.134765,0.29688 14.998205,14.997988 0 0 1 -0.138672,0.29297 14.998205,14.997988 0 0 1 -0.148438,0.29101 14.998205,14.997988 0 0 1 -0.152343,0.28711 14.998205,14.997988 0 0 1 -0.158204,0.28516 14.998205,14.997988 0 0 1 -0.166015,0.28125 14.998205,14.997988 0 0 1 -0.169922,0.27539 14.998205,14.997988 0 0 1 -0.177734,0.27344 14.998205,14.997988 0 0 1 -0.183594,0.26953 14.998205,14.997988 0 0 1 -0.189453,0.26562 14.998205,14.997988 0 0 1 -0.19336,0.26172 14.998205,14.997988 0 0 1 -0.201172,0.25586 14.998205,14.997988 0 0 1 -0.205078,0.25195 14.998205,14.997988 0 0 1 -0.210937,0.24805 14.998205,14.997988 0 0 1 -0.216797,0.24414 14.998205,14.997988 0 0 1 -0.222656,0.23828 14.998205,14.997988 0 0 1 -0.226563,0.23438 14.998205,14.997988 0 0 1 -0.232422,0.22851 14.998205,14.997988 0 0 1 -0.236328,0.22266 14.998205,14.997988 0 0 1 -0.242187,0.21875 14.998205,14.997988 0 0 1 -0.246094,0.21289 14.998205,14.997988 0 0 1 -0.25,0.20703 14.998205,14.997988 0 0 1 -0.255859,0.20313 14.998205,14.997988 0 0 1 -0.259766,0.19531 14.998205,14.997988 0 0 1 -0.263672,0.1914 14.998205,14.997988 0 0 1 -0.267578,0.18555 14.998205,14.997988 0 0 1 -0.271484,0.17969 14.998205,14.997988 0 0 1 -0.275391,0.17187 14.998205,14.997988 0 0 1 -0.28125,0.16797 14.998205,14.997988 0 0 1 -0.28125,0.16211 14.998205,14.997988 0 0 1 -0.287109,0.1543 14.998205,14.997988 0 0 1 -0.289063,0.14844 14.998205,14.997988 0 0 1 -0.292969,0.14257 14.998205,14.997988 0 0 1 -0.296875,0.13672 14.998205,14.997988 0 0 1 -0.298828,0.12891 14.998205,14.997988 0 0 1 -0.300781,0.12305 14.998205,14.997988 0 0 1 -0.304687,0.11718 14.998205,14.997988 0 0 1 -0.306641,0.10938 14.998205,14.997988 0 0 1 -0.308594,0.10351 14.998205,14.997988 0 0 1 -0.310547,0.0957 14.998205,14.997988 0 0 1 -0.314453,0.0898 14.998205,14.997988 0 0 1 -0.314453,0.082 14.998205,14.997988 0 0 1 -0.316406,0.0762 14.998205,14.997988 0 0 1 -0.31836,0.0684 14.998205,14.997988 0 0 1 -0.320312,0.0625 14.998205,14.997988 0 0 1 -0.320313,0.0566 14.998205,14.997988 0 0 1 -0.322265,0.0469 14.998205,14.997988 0 0 1 -0.322266,0.041 14.998205,14.997988 0 0 1 -0.324219,0.0352 14.998205,14.997988 0 0 1 -0.324218,0.0273 14.998205,14.997988 0 0 1 -0.326172,0.0195 14.998205,14.997988 0 0 1 -0.324219,0.0137 14.998205,14.997988 0 0 1 -0.326172,0.006 14.998205,14.997988 0 0 1 -0.111328,0 14.998205,14.997988 0 0 1 -0.326172,-0.004 14.998205,14.997988 0 0 1 -0.324219,-0.01 14.998205,14.997988 0 0 1 -0.326171,-0.0176 14.998205,14.997988 0 0 1 -0.324219,-0.0254 14.998205,14.997988 0 0 1 -0.324219,-0.0312 14.998205,14.997988 0 0 1 -0.324219,-0.0391 14.998205,14.997988 0 0 1 -0.322265,-0.0469 14.998205,14.997988 0 0 1 -0.320313,-0.0527 14.998205,14.997988 0 0 1 -0.320312,-0.0586 14.998205,14.997988 0 0 1 -0.31836,-0.0664 14.998205,14.997988 0 0 1 -0.318359,-0.0742 14.998205,14.997988 0 0 1 -0.314453,-0.0801 14.998205,14.997988 0 0 1 -0.314453,-0.0879 14.998205,14.997988 0 0 1 -0.3125,-0.0937 14.998205,14.997988 0 0 1 -0.308594,-0.10157 14.998205,14.997988 0 0 1 -0.306641,-0.10742 14.998205,14.997988 0 0 1 -0.30664,-0.11328 14.998205,14.997988 0 0 1 -0.300782,-0.12109 14.998205,14.997988 0 0 1 -0.300781,-0.12696 14.998205,14.997988 0 0 1 -0.296875,-0.13476 14.998205,14.997988 0 0 1 -0.292969,-0.14063 14.998205,14.997988 0 0 1 -0.291015,-0.14648 14.998205,14.997988 0 0 1 -0.289063,-0.15234 14.998205,14.997988 0 0 1 -0.283203,-0.15821 14.998205,14.997988 0 0 1 -0.28125,-0.16601 14.998205,14.997988 0 0 1 -0.277344,-0.17188 14.998205,14.997988 0 0 1 -0.271484,-0.17578 14.998205,14.997988 0 0 1 -0.269531,-0.18359 14.998205,14.997988 0 0 1 -0.265625,-0.18946 14.998205,14.997988 0 0 1 -0.261719,-0.19336 14.998205,14.997988 0 0 1 -0.255859,-0.20117 14.998205,14.997988 0 0 1 -0.253907,-0.20508 14.998205,14.997988 0 0 1 -0.246093,-0.21093 14.998205,14.997988 0 0 1 -0.244141,-0.2168 14.998205,14.997988 0 0 1 -0.238281,-0.22266 14.998205,14.997988 0 0 1 -0.234375,-0.22656 14.998205,14.997988 0 0 1 -0.228516,-0.23242 14.998205,14.997988 0 0 1 -0.2226561,-0.23633 14.998205,14.997988 0 0 1 -0.21875,-0.24219 14.998205,14.997988 0 0 1 -0.2128907,-0.24609 14.998205,14.997988 0 0 1 -0.2070312,-0.25 14.998205,14.997988 0 0 1 -0.203125,-0.25586 14.998205,14.997988 0 0 1 -0.1972656,-0.25976 14.998205,14.997988 0 0 1 -0.1894532,-0.26368 14.998205,14.997988 0 0 1 -0.1855468,-0.26758 14.998205,14.997988 0 0 1 -0.1796875,-0.27148 14.998205,14.997988 0 0 1 -0.1738281,-0.27734 14.998205,14.997988 0 0 1 -0.1660157,-0.2793 14.998205,14.997988 0 0 1 -0.1621093,-0.28125 14.998205,14.997988 0 0 1 -0.1542969,-0.28711 14.998205,14.997988 0 0 1 -0.1484375,-0.28906 14.998205,14.997988 0 0 1 -0.1425782,-0.29297 14.998205,14.997988 0 0 1 -0.1367187,-0.29688 14.998205,14.997988 0 0 1 -0.1289063,-0.29882 14.998205,14.997988 0 0 1 -0.1230468,-0.30079 14.998205,14.997988 0 0 1 -0.1171875,-0.30468 14.998205,14.997988 0 0 1 -0.109375,-0.30664 14.998205,14.997988 0 0 1 -0.1035157,-0.3086 14.998205,14.997988 0 0 1 -0.095703,-0.31054 14.998205,14.997988 0 0 1 -0.089844,-0.31446 14.998205,14.997988 0 0 1 -0.082031,-0.31445 14.998205,14.997988 0 0 1 -0.076172,-0.31641 14.998205,14.997988 0 0 1 -0.070312,-0.31836 14.998205,14.997988 0 0 1 -0.060547,-0.32031 14.998205,14.997988 0 0 1 -0.056641,-0.32031 14.998205,14.997988 0 0 1 -0.046875,-0.32227 14.998205,14.997988 0 0 1 -0.041016,-0.32226 14.998205,14.997988 0 0 1 -0.035156,-0.32422 14.998205,14.997988 0 0 1 -0.027344,-0.32422 14.998205,14.997988 0 0 1 -0.019531,-0.32617 14.998205,14.997988 0 0 1 -0.013672,-0.32422 14.998205,14.997988 0 0 1 -0.00586,-0.32617 14.998205,14.997988 0 0 1 0,-0.11133 14.998205,14.997988 0 0 1 0.00391,-0.32617 14.998205,14.997988 0 0 1 0.00977,-0.32422 14.998205,14.997988 0 0 1 0.017578,-0.32617 14.998205,14.997988 0 0 1 0.025391,-0.32422 14.998205,14.997988 0 0 1 0.03125,-0.32422 14.998205,14.997988 0 0 1 0.039062,-0.32422 14.998205,14.997988 0 0 1 0.044922,-0.32226 14.998205,14.997988 0 0 1 0.052734,-0.32032 14.998205,14.997988 0 0 1 0.060547,-0.32031 14.998205,14.997988 0 0 1 0.066406,-0.31836 14.998205,14.997988 0 0 1 0.074219,-0.31836 14.998205,14.997988 0 0 1 0.080078,-0.31445 14.998205,14.997988 0 0 1 0.087891,-0.31445 14.998205,14.997988 0 0 1 0.09375,-0.3125 14.998205,14.997988 0 0 1 0.1015625,-0.3086 14.998205,14.997988 0 0 1 0.1074219,-0.30664 14.998205,14.997988 0 0 1 0.1132813,-0.30664 14.998205,14.997988 0 0 1 0.1210937,-0.30078 14.998205,14.997988 0 0 1 0.1269531,-0.30078 14.998205,14.997988 0 0 1 0.1347656,-0.29688 14.998205,14.997988 0 0 1 0.1386719,-0.29297 14.998205,14.997988 0 0 1 0.1484375,-0.29101 14.998205,14.997988 0 0 1 0.1523438,-0.287111 14.998205,14.997988 0 0 1 0.1582031,-0.285156 14.998205,14.997988 0 0 1 0.1660156,-0.28125 A 14.998205,14.997988 0 0 1 8.328125,98.976562 14.998205,14.997988 0 0 1 8.5058594,98.703125 14.998205,14.997988 0 0 1 8.6894531,98.433594 14.998205,14.997988 0 0 1 8.8789062,98.167969 14.998205,14.997988 0 0 1 9.0722656,97.90625 14.998205,14.997988 0 0 1 9.2734375,97.650391 14.998205,14.997988 0 0 1 9.4785156,97.398438 14.998205,14.997988 0 0 1 9.6894531,97.150391 14.998205,14.997988 0 0 1 9.90625,96.90625 a 14.998205,14.997988 0 0 1 0.222656,-0.238281 14.998205,14.997988 0 0 1 0.226563,-0.234375 14.998205,14.997988 0 0 1 0.232422,-0.228516 14.998205,14.997988 0 0 1 0.236328,-0.222656 14.998205,14.997988 0 0 1 0.242187,-0.21875 14.998205,14.997988 0 0 1 0.246094,-0.212891 14.998205,14.997988 0 0 1 0.25,-0.207031 14.998205,14.997988 0 0 1 0.255859,-0.203125 14.998205,14.997988 0 0 1 0.259766,-0.195313 14.998205,14.997988 0 0 1 0.263672,-0.191406 14.998205,14.997988 0 0 1 0.267578,-0.185547 14.998205,14.997988 0 0 1 0.271484,-0.179687 14.998205,14.997988 0 0 1 0.275391,-0.171875 14.998205,14.997988 0 0 1 0.28125,-0.167969 14.998205,14.997988 0 0 1 0.28125,-0.162109 14.998205,14.997988 0 0 1 0.287109,-0.154297 14.998205,14.997988 0 0 1 0.289063,-0.148438 14.998205,14.997988 0 0 1 0.292969,-0.142578 14.998205,14.997988 0 0 1 0.296875,-0.136718 14.998205,14.997988 0 0 1 0.298828,-0.128907 14.998205,14.997988 0 0 1 0.300781,-0.123047 14.998205,14.997988 0 0 1 0.304687,-0.117187 14.998205,14.997988 0 0 1 0.306641,-0.109375 14.998205,14.997988 0 0 1 0.308594,-0.103516 14.998205,14.997988 0 0 1 0.310547,-0.0957 14.998205,14.997988 0 0 1 0.314453,-0.08984 14.998205,14.997988 0 0 1 0.314453,-0.08203 14.998205,14.997988 0 0 1 0.316406,-0.07617 14.998205,14.997988 0 0 1 0.31836,-0.07031 14.998205,14.997988 0 0 1 0.320312,-0.06055 14.998205,14.997988 0 0 1 0.320313,-0.05664 14.998205,14.997988 0 0 1 0.322265,-0.04687 14.998205,14.997988 0 0 1 0.322266,-0.04102 14.998205,14.997988 0 0 1 0.324219,-0.03516 14.998205,14.997988 0 0 1 0.324218,-0.02734 14.998205,14.997988 0 0 1 0.326172,-0.01953 14.998205,14.997988 0 0 1 0.324219,-0.01367 14.998205,14.997988 0 0 1 0.326172,-0.0059 z"
       transform="matrix(0.15875756,0,0,0.15875793,27.093138,-13.018337)" />
    <g
       aria-label="💛"
       id="text988"
       style="font-style:normal;font-weight:normal;font-size:10.5833px;line-height:1.25;font-family:sans-serif;opacity:1;fill:url(#linearGradient990);fill-opacity:1;stroke:none;stroke-width:0.132292;stroke-miterlimit:4;stroke-dasharray:none;stroke-opacity:1"
       transform="matrix(0.70965559,0,0,0.70968631,28.294474,20.866905)">
      <path
         d="m -8.5890708,-15.742892 c 0.4650864,0 0.9008896,0.08957 1.3074096,0.268717 0.409965,0.175699 0.7665312,0.416855 1.0696987,0.723468 0.3066125,0.303167 0.5477685,0.659734 0.7234678,1.069699 0.1791443,0.40652 0.2687165,0.842323 0.2687165,1.307409 0,0.451306 -0.084405,0.881942 -0.2532137,1.291907 -0.1688091,0.40652 -0.4134101,0.769976 -0.733803,1.0903691 l -4.9557541,4.955754 -4.955754,-4.955754 c -0.320393,-0.3203931 -0.564994,-0.6838491 -0.733803,-1.0903691 -0.168809,-0.409965 -0.253214,-0.840601 -0.253214,-1.291907 0,-0.310057 0.03962,-0.608057 0.118856,-0.893999 0.08268,-0.289387 0.19637,-0.558104 0.341063,-0.80615 0.144693,-0.248046 0.320393,-0.475422 0.527098,-0.682127 0.206705,-0.206705 0.434081,-0.382404 0.682127,-0.527098 0.248046,-0.144693 0.51504,-0.256658 0.800982,-0.335895 0.289387,-0.08268 0.58911,-0.124024 0.899167,-0.124024 0.268717,0 0.518485,0.02756 0.749306,0.08268 0.234265,0.05168 0.454751,0.127472 0.661456,0.227376 0.21015,0.09991 0.409965,0.22393 0.599445,0.372069 0.192925,0.144694 0.380682,0.310058 0.563271,0.496092 0.182589,-0.186034 0.368624,-0.351398 0.558104,-0.496092 0.189479,-0.148139 0.389294,-0.272162 0.599444,-0.372069 0.2101505,-0.09991 0.430636,-0.175699 0.6614567,-0.227376 0.2342657,-0.05512 0.4857569,-0.08268 0.7544735,-0.08268 z"
         style="font-style:normal;font-variant:normal;font-weight:normal;font-stretch:normal;font-family:'Rounded M+ 1c';-inkscape-font-specification:'Rounded M+ 1c';fill:url(#linearGradient996);fill-opacity:1;stroke:none;stroke-width:0.132292;stroke-miterlimit:4;stroke-dasharray:none;stroke-opacity:1"
         id="path993"
         sodipodi:nodetypes="scccscscscscssscscccccscs" />
    </g>
    <g
       id="g13974"
       transform="matrix(0.74128221,0,0,0.74128221,5.2101156,-4.9501961)">
      <path
         style="fill:none;stroke:#e6b422;stroke-width:1.00012;stroke-linecap:round;stroke-miterlimit:4;stroke-dasharray:none;stroke-opacity:1"
         id="path1102"
         sodipodi:type="arc"
         sodipodi:cx="20.454819"
         sodipodi:cy="48.824577"
         sodipodi:rx="3.4410949"
         sodipodi:ry="3.4410949"
         sodipodi:start="3.6651914"
         sodipodi:end="5.7595865"
         sodipodi:open="true"
         sodipodi:arc-type="arc"
         d="m 17.474743,47.10403 a 3.4410949,3.4410949 0 0 1 2.980076,-1.720548 3.4410949,3.4410949 0 0 1 2.980075,1.720548" />
      <text
         xml:space="preserve"
         style="font-style:normal;font-variant:normal;font-weight:bold;font-stretch:normal;font-size:8.31003px;line-height:1.25;font-family:'Rounded M+ 1c';-inkscape-font-specification:'Rounded M+ 1c Bold';fill:#e6b422;fill-opacity:1;stroke:none;stroke-width:0.20775;stroke-opacity:1"
         x="14.895474"
         y="40.941013"
         id="text4373"
         transform="scale(0.94111685,1.0625673)"><tspan
           sodipodi:role="line"
           id="tspan4371"
           style="font-style:normal;font-variant:normal;font-weight:bold;font-stretch:normal;font-family:'Rounded M+ 1c';-inkscape-font-specification:'Rounded M+ 1c Bold';fill:#e6b422;fill-opacity:1;stroke:none;stroke-width:0.20775;stroke-opacity:1"
           x="14.895474"
           y="40.941013">&gt; &lt;</tspan></text>
    </g>
  </g>
</svg>
